/* XPM */
static char *dummy[]={
"64 64 7 1",
". c #333333",
"e c #660000",
"# c #666666",
"c c #990000",
"a c #999999",
"d c #cc0000",
"b c #cccccc",
"................................................................",
".##############################################################.",
".##############################################################.",
".#.###############a#a#a#aaaaaaaaaaaaaaa#a#a#a##################.",
".#.##aba###aba#a#aba#aaaaaaaaaaaaaaaaa#a#a#a###################.",
".#.###ab####aba#a#abaaaaaaaaaaaaaaaaa#a#a#a####################.",
".#.####a#a###a#a###aaaaaaaaaaaaaaaaa#a#a#a##############aa#####.",
".#.###a#a#a#a#aaaaaaaaaaab##...................##aa#####aa#####.",
".#.a#a#a#a#aaaaaaaaaaaaaaab#####################aa#############.",
".#.#a#a#aaaaaaaaaaaaaaaaaaabaaa#a#a#a#a########aa##############.",
".#.a#a#aaaaaaaaaaaaaaaaaaaabaa#a#a#a#a########aa###############.",
".#.#aaaaaaaaaaaaaaaaaaaaaaaabaa#a#a#a########aaa###############.",
".#.aaaaacaaaaaaaaaaaaaaaaaaaabaa#a#a########aaa################.",
".#.aaaaccdaaaaaaa##aaaaaaaa#aab#a#a#########aa###########.#####.",
".#.aaacddddaaaaaaa##aaaaabaa#aaa#a#########aa#####aa#####.#####.",
".#.aadddddddaaaaab##aaaa#ab#a#aaa#########aaa#####aa#####.#####.",
".#.adddddddddaaaaba##aaa##aa#a#aaa#######aaa#############.#####.",
".#.aaaaaaaaaaaaaaba###a#a#a#a#a#aaa#####aaa##############.#####.",
".#.aaaaaaaaaaaaaabaa###a#a#a#a###aa#####aa###############.#####.",
".#.adddddddccaaaabaaa###a#a#a#####aa###aa################.#####.",
".#.aadddddccaaaaabaa#a.##a#a######aaa#aaa################.#####.",
".#.aaaddcccaaaaaaba#a##.##a########aaaaa#################.#####.",
".#.aaaacccaaaaaaab#a#a##.##a##aaa###aaa####aa############.#####.",
".#.aaaaacaaaaaaaaba#a#a##.#####aa##########aa############.#####.",
".#.aaaaaaaaaaaaa#b#a#a#a##.#####a########################.#####.",
".#.aaaaaaaaaa#a#aba#a#a#a#.##############################.#####.",
".#.aa#aaaaaa#a#a#b#a#a#a###.#############################.#####.",
".#.aa#aaaaaaa#a#aba#a#a#####.############################.#####.",
".#.aa#aaaaaa#a#a#a#a#a#######.###########################.#####.",
".#.aa##ccc#aa#a#aaa#a########.#######aa##################.#####.",
".#.aa#ccddca#a#a#a#a##########.######aa##################.#####.",
".#.aa.eccccaa#a#aaa###########a##########################.#####.",
".#.a#.ecccca#a#a#a#a#########aaa############a############.#####.",
".#.#a.#eec#aa#a#aaa#########aaa##############a###########.#####.",
".#.a#.####aa#a#a#a#########aaa################a##########.#####.",
".#.#a.aaaaa#a#a#aa#########aa############################.#####.",
".#.a#....####a#a#a########aa#############################.#####.",
".#.#a#a#a#a#a#a##a#######aaa###aa##########a####a########.#####.",
".#.a#a#a#a#a#a###a######aaa####aa##########aa####a#######.#####.",
".#.#a#a#a#a#a####a#####aaa########################a######.#####.",
".#.a#a#a#a#a#####a#####aa#############.############a#####.#####.",
".#.#a#a#a#a######a####aa###############.############a####.#####.",
".#.a#a#a#a#######a###aaa################.###########aa###.#####.",
".#.#a#a#a########a##aaa#################.###########aaa##.#####.",
".#.a#a#a#a#######a##aa###################.###########aa##.#####.",
".#.#a#a#a########a#aa#####################.###########aa#######.",
".#.a#a#a#########aaaa###aa#################.######a###aaa######.",
".#.#a#a##########aaa####aa##################.#####aa###aa######.",
".#.a#aba#########aa#########################.###########a######.",
".#.#a#ab#########a###########################.#################.",
".#.a###a######################################.################.",
".#.############################################.###############.",
".#.############################################.###############.",
".#.#############################################.######aba#####.",
".#.##aba###aaa####aa#######aaaaaaaaaaaaaaaaaaaaa#.######ab#####.",
".#.###ab####aa####aa#####################################a#####.",
".#.####a#####a#################################################.",
".#.############################################################.",
".#.############################################################.",
".#.############################################################.",
".#..............................................................",
".##############################################################.",
".##############################################################.",
"................................................................"};
