/* XPM */
static char *sprite_10[] = {
/* columns rows colors chars-per-pixel */
"64 64 4 1 ",
"  c black",
". c #D04545",
"X c #45A8D0",
"o c white",
/* pixels */
"                                                                ",
"                                                                ",
"                                                                ",
"                                                                ",
"                                                                ",
"                                                                ",
"                                                                ",
"                           .........                            ",
"                          ..........                            ",
"                          ...    ....                           ",
"                         ..       ...                           ",
"                         ..         ..                          ",
"                         .           .                          ",
"                         .  .    .   .             X            ",
"                         .  .    .   .                 X X      ",
"                         .  .    .   .                X         ",
"                         .  .    .   .                  X       ",
"                         .           .               X          ",
"                         .    ..    ..                          ",
"                         ..  ....   .                           ",
"                          .   ..   ..                           ",
"                          ..       .                  ......    ",
" ..                   .......    ..                 ...    .    ",
" ..                 ..    ..........               ..  .....    ",
" . .              ..    ..  ..     ...          ....  ..        ",
" . .           ...    ......         ...     ....    ..         ",
" .  ..     ....     ..     ..           ......     ..           ",
"  .   .....       ..       .                     ...            ",
"  .             ..         .       ...          ..              ",
"   ..         ..          .        .  ...    ...                ",
"     .........            .        .    ......                  ",
"                          .       .                             ",
"                          .       .                             ",
"                         .        .                             ",
"                         .       .                              ",
"                         .       .                              ",
"                         .       .                              ",
"                         .       .                              ",
"                        .        .                              ",
"                        .        .                              ",
"                        .       ..                              ",
"                       ..       ...                             ",
"                      ..          .                             ",
"                     .             ..                           ",
"                   ..      ....     ..                          ",
"                  .      ..   ...    ....                       ",
"                 ..     ..      ...     ..                      ",
"                .      ..         ...     .                     ",
"               ..     .             ..    .                     ",
"              ..    ..               .    .                     ",
"              .    .                  ..  .                     ",
"              .  ..                    . ..                     ",
"              .  .                    .. .                      ",
"              .  .                    .  .                      ",
"              .  .                    . ..                      ",
"              .. .                   .. .                       ",
"               .  .                  .  .                       ",
"               .  .                 ..  .                       ",
"               .  ..                .   .                       ",
"                .  .               ..  ..                       ",
"                .  ..              .   ..                       ",
"             ....   .              .     .                      ",
"             .      .              .     .                      ",
"            .........               ......                      "
};
