/* XPM */
static char *sprite_7[] = {
/* columns rows colors chars-per-pixel */
"64 64 3 1 ",
"  c black",
". c #D04545",
"X c white",
/* pixels */
"                                                                ",
"                                                                ",
"                                                                ",
"                                                                ",
"                                                                ",
"                                                                ",
"                                                                ",
"                           .........                            ",
"                          ..........                            ",
"                          ...    ....                           ",
"                         ..       ...                           ",
"                         ..         ..                          ",
"                         .           .                          ",
"                         .  .    .   .                          ",
"                         .  .    .   .                          ",
"                         .  .    .   .                          ",
"                         .  .    .   .                          ",
"                         .           .                          ",
"                         .    ..    ..                          ",
"                         ..  ....   .                           ",
"                          .   ..   ..                           ",
"                          ..       .                  ......    ",
"                          ...    ..                 ...    .    ",
"                     ...............               ..  .....    ",
"                  ...       ..     ...          ....  ..        ",
"        ....   ...       ...         ...     ....    ..         ",
" ........   ...       ...  ..           ......     ..           ",
" ..                ...     .                     ...            ",
"   ....   ...   ...        .       ...          ..              ",
"      ....   ...          .        .  ...    ...                ",
"                          .        .    ......                  ",
"                          .       .                             ",
"                          .       .                             ",
"                         .        .                             ",
"                         .       .                              ",
"                         .       .                              ",
"                         .       .                              ",
"                         .       .                              ",
"                        .        .                              ",
"                        .        .                              ",
"                        .       ..                              ",
"                       ..       ...                             ",
"                      ..          .                             ",
"                     .             ..                           ",
"                   ..      ....     ..                          ",
"                  .      ..   ...    ....                       ",
"                 ..     ..      ...     ..                      ",
"                .      ..         ...     .                     ",
"               ..     .             ..    .                     ",
"              ..    ..               .    .                     ",
"              .    .                  ..  .                     ",
"              .  ..                    . ..                     ",
"              .  .                    .  .                      ",
"              .  .                    . ..                      ",
"              .  .                   .. .                       ",
"              .. .                   .  .                       ",
"               .  .                 ..  .                       ",
"               .  .                 .   .                       ",
"               .  ..               ..  ..                       ",
"                .  .               .   ..                       ",
"                .  ..              .     .                      ",
"             ....   .              .     .                      ",
"             .      .               ......                      ",
"            .........                                           "
};
