/* XPM */
static char *wall_bedrock[] = {
/* columns rows colors chars-per-pixel */
"32 32 47 1 ",
"  c #565656",
". c #343434",
"X c gray20",
"o c gray34",
"O c gray59",
"+ c #979797",
"@ c #070707",
"# c gray60",
"$ c gray21",
"% c #5E5A4E",
"& c #555555",
"* c #585858",
"= c #9A9A9A",
"- c gray3",
"; c #353326",
": c #060606",
"> c #313131",
", c #5A5A5A",
"< c #59574A",
"1 c gray33",
"2 c #959595",
"3 c #323232",
"4 c #5D5A4E",
"5 c #0B0900",
"6 c #656565",
"7 c #080500",
"8 c #585649",
"9 c #9B988B",
"0 c #373737",
"q c #5B584B",
"w c gray4",
"e c gray2",
"r c #090700",
"t c #58585B",
"y c #575759",
"u c #333431",
"i c #323230",
"p c #313133",
"a c #323234",
"s c #090909",
"d c #969794",
"f c #565754",
"g c #353331",
"h c #363432",
"j c #343230",
"k c #59584F",
"l c white",
/* pixels */
" .XXXoO+@# .$X$% .XXXoO+@# .$X$%",
"&*#O+#O#.=++-oo;&*#O+#O#.=++-oo;",
" :X>@$$.#Xoo O,< :X>@$$.#Xoo O,<",
"12o*o-&#1 3.3X>412o*o-&#1 3.3X>4",
"*##XX>.$3$OO+#+5*##XX>.$3$OO+#+5",
"X.&o*XXX :ooXX@4X.&o*XXX :ooXX@4",
"22o6*.##* & ++O722o6*.##* & ++O7",
" **XXX$.>@>...o8 **XXX$.>@>...o8",
"*+#@OXoo*+=O#=#9*+#@OXoo*+=O#=#9",
"o.>.X03*:ooXX3+qo.>.X03*:ooXX3+q",
"*,#.$OO0wX+#2o*8*,#.$OO0wX+#2o*8",
"e,  .o o+2* o+=re,  .o o+2* o+=r",
"o>...X3.+#$3>$$qo>...X3.+#$3>$$q",
"o#.O@,o3$.@X  29o#.O@,o3$.@X  29",
"ty&.3>ui *2O*X$<ty&.3>ui *2O*X$<",
"pa>.s+df&*oghj*kpa>.s+df&*oghj*k",
" .XXXoO+@# .$X$% .XXXoO+@# .$X$%",
"&*#O+#O#.=++-oo;&*#O+#O#.=++-oo;",
" :X>@$$.#Xoo O,< :X>@$$.#Xoo O,<",
"12o*o-&#1 3.3X>412o*o-&#1 3.3X>4",
"*##XX>.$3$OO+#+5*##XX>.$3$OO+#+5",
"X.&o*XXX :ooXX@4X.&o*XXX :ooXX@4",
"22o6*.##* & ++O722o6*.##* & ++O7",
" **XXX$.>@>...o8 **XXX$.>@>...o8",
"*+#@OXoo*+=O#=#9*+#@OXoo*+=O#=#9",
"o.>.X03*:ooXX3+qo.>.X03*:ooXX3+q",
"*,#.$OO0wX+#2o*8*,#.$OO0wX+#2o*8",
"e,  .o o+2* o+=re,  .o o+2* o+=r",
"o>...X3.+#$3>$$qo>...X3.+#$3>$$q",
"o#.O@,o3$.@X  29o#.O@,o3$.@X  29",
"ty&.3>ui *2O*X$<ty&.3>ui *2O*X$<",
"pa>.s+df&*oghj*kpa>.s+df&*oghj*k"
};
