/* XPM */
static char *wall_brick[] = {
/* columns rows colors chars-per-pixel */
"32 32 245 2 ",
"   c #865A52",
".  c #8C574B",
"X  c #8D5F53",
"o  c #C19186",
"O  c #965649",
"+  c #985549",
"@  c #8C5046",
"#  c #995F58",
"$  c #935450",
"%  c #9C615C",
"&  c #815347",
"*  c #C19485",
"=  c #965B4F",
"-  c #9D5B4F",
";  c #98594A",
":  c #A5533C",
">  c #6F4A40",
",  c #77473C",
"<  c #774D42",
"1  c #CA9E94",
"2  c #A3675C",
"3  c #814338",
"4  c #703930",
"5  c #6D3831",
"6  c #7F4741",
"7  c #79453E",
"8  c #764D3F",
"9  c #C09788",
"0  c #925B4E",
"q  c #84463B",
"w  c #7B4032",
"e  c #8C3E28",
"r  c #694D42",
"t  c #7A584A",
"y  c #604237",
"u  c #BA978F",
"i  c #8B5A4F",
"p  c #7F4A40",
"a  c #794940",
"s  c #71423B",
"d  c #754941",
"f  c #6F483E",
"g  c #6B4E41",
"h  c #BB998C",
"j  c #7E4E43",
"k  c #855046",
"l  c #7B473B",
"z  c #954A38",
"x  c #A98B81",
"c  c #AC877A",
"v  c #A8857C",
"b  c #BE9991",
"n  c #B08276",
"m  c #B58479",
"M  c #B08178",
"N  c #AD8179",
"B  c #AF8379",
"V  c #B18A7E",
"C  c #A98779",
"Z  c #C4A091",
"A  c #B38378",
"S  c #B27F75",
"D  c #B28277",
"F  c #C58471",
"G  c #7C5046",
"H  c #8C5A4F",
"J  c #8E5B51",
"K  c #8E5C4D",
"L  c #875544",
"P  c #8A5D4F",
"I  c #C49486",
"U  c #976052",
"Y  c #996152",
"T  c #8F5B4B",
"R  c #8F5B4D",
"E  c #915A4D",
"W  c #8E5A4B",
"Q  c #8D5E4E",
"!  c #C8907C",
"~  c #895D53",
"^  c #7F4539",
"/  c #915951",
"(  c #79463C",
")  c #6A3B29",
"_  c #734633",
"`  c #734836",
"'  c #C29584",
"]  c #915B49",
"[  c #7F4434",
"{  c #743C2A",
"}  c #7C4334",
"|  c #713B2D",
" . c #7B493A",
".. c #754A3B",
"X. c #C49988",
"o. c #826055",
"O. c #64362A",
"+. c #7E5248",
"@. c #6A4135",
"#. c #724B3B",
"$. c #613E2A",
"%. c #6E4A3A",
"&. c #C29D8E",
"*. c #906856",
"=. c #6C3F2C",
"-. c #7A4B3B",
";. c #734436",
":. c #784A3E",
">. c #734A3D",
",. c #6F4A3E",
"<. c #B6988D",
"1. c #A8887E",
"2. c #AE8479",
"3. c #AB837A",
"4. c #AC8579",
"5. c #AC8474",
"6. c #AC8472",
"7. c #AE8477",
"8. c #C39A8A",
"9. c #B08674",
"0. c #AE8372",
"q. c #AD8273",
"w. c #B08576",
"e. c #B18375",
"r. c #B08578",
"t. c #AA8377",
"y. c #B89C93",
"u. c #855F5A",
"i. c #8C5B53",
"p. c #886153",
"a. c #C19989",
"s. c #8E584A",
"d. c #97594C",
"f. c #9C5F52",
"g. c #A4695B",
"h. c #935B4C",
"j. c #895C4D",
"k. c #C6988A",
"l. c #8E5848",
"z. c #915849",
"x. c #9E665B",
"c. c #734B44",
"v. c #724A45",
"b. c #73433A",
"n. c #714A3C",
"m. c #BE9585",
"M. c #8F5649",
"N. c #814136",
"B. c #7E4133",
"V. c #7F4234",
"C. c #854D3E",
"Z. c #825043",
"A. c #72493C",
"S. c #BA9184",
"D. c #8A4C3F",
"F. c #80443B",
"G. c #74463E",
"H. c #76504D",
"J. c #744740",
"K. c #765348",
"L. c #C39E91",
"P. c #8A5C51",
"I. c #653829",
"U. c #704536",
"Y. c #673C2D",
"T. c #785143",
"R. c #6A4C40",
"E. c #B8958A",
"W. c #8E5E51",
"Q. c #7F4942",
"!. c #7A473F",
"~. c #AC8680",
"^. c #B28279",
"/. c #A97F74",
"(. c #C0998B",
"). c #B18679",
"_. c #AB8574",
"`. c #AB8476",
"'. c #A9867B",
"]. c #C09B91",
"[. c #AF7F71",
"{. c #B78578",
"}. c #B07F77",
"|. c #B78075",
" X c #8B5F55",
".X c #975E4F",
"XX c #976050",
"oX c #8D584A",
"OX c #8F5D4E",
"+X c #815443",
"@X c #C19282",
"#X c #8B5545",
"$X c #A1695A",
"%X c #8F5A4F",
"&X c #8E594D",
"*X c #8D5747",
"=X c #94604D",
"-X c #8C5C4D",
";X c #D49581",
":X c #896053",
">X c #7D4534",
",X c #7F4635",
"<X c #7C4536",
"1X c #7B4436",
"2X c #794738",
"3X c #6A3C2E",
"4X c #BE9080",
"5X c #915A4B",
"6X c #7C4338",
"7X c #7B4532",
"8X c #7A4935",
"9X c #764B3A",
"0X c #D3927D",
"qX c #7F6251",
"wX c #6C412D",
"eX c #7C4C3C",
"rX c #77473A",
"tX c #74463A",
"yX c #73473A",
"uX c #6F483C",
"iX c #BE9A8D",
"pX c #896151",
"aX c #75483A",
"sX c #77463E",
"dX c #78473F",
"fX c #784B3A",
"gX c #714936",
"hX c #724F3D",
"jX c #CC907B",
"kX c #A68C67",
"lX c #AB8856",
"zX c #AD8557",
"xX c #B2895C",
"cX c #AF895B",
"vX c #AF8E60",
"bX c #A98C5D",
"nX c #BDA071",
"mX c #AA8C5B",
"MX c #AC8B5B",
"NX c #AA8659",
"BX c #AB875A",
"VX c #AD8C5A",
"CX c #AC8B59",
"ZX c #BD986E",
"AX c white",
/* pixels */
"  . X o O + @ # $ % & * = - ; :   . X o O + @ # $ % & * = - ; : ",
"> , < 1 2 3 4 5 6 7 8 9 0 q w e > , < 1 2 3 4 5 6 7 8 9 0 q w e ",
"r t y u i p a s d f g h j k l z r t y u i p a s d f g h j k l z ",
"x c v b n m M N B V C Z A S D F x c v b n m M N B V C Z A S D F ",
"G 0 H J K L P I U Y T R E W Q ! G 0 H J K L P I U Y T R E W Q ! ",
"~ ^ / ( ) _ ` ' ] [ { } |  ...X.~ ^ / ( ) _ ` ' ] [ { } |  ...X.",
"o.O.+.@.#.$.%.&.*.=.-.;.:.>.,.<.o.O.+.@.#.$.%.&.*.=.-.;.:.>.,.<.",
"1.2.3.4.5.6.7.8.9.0.q.w.e.r.t.y.1.2.3.4.5.6.7.8.9.0.q.w.e.r.t.y.",
"u.i.p.a.s.d.f.g.h.W j.k.l.z.x.c.u.i.p.a.s.d.f.g.h.W j.k.l.z.x.c.",
"v.b.n.m.M.N.B.V.C.Z.A.S.l.D.F.G.v.b.n.m.M.N.B.V.C.Z.A.S.l.D.F.G.",
"H.J.K.L.P., I.U.Y.T.R.E.W.l Q.!.H.J.K.L.P., I.U.Y.T.R.E.W.l Q.!.",
"~.^./.(.).n 7._.5.`.'.].[.{.}.|.~.^./.(.).n 7._.5.`.'.].[.{.}.|.",
" X.XXXoXR OX+X@X#X$X%X&X*X=X-X;X X.XXXoXR OX+X@X#X$X%X&X*X=X-X;X",
":X>X,X<X1X2X3X4X5Xw 6X6X7X8X9X0X:X>X,X<X1X2X3X4X5Xw 6X6X7X8X9X0X",
"qXwXeXrXtXyXuXiXpXaXsXdXfXgXhXjXqXwXeXrXtXyXuXiXpXaXsXdXfXgXhXjX",
"kXlXzXxXcXvXbXnXmXMXNXBXVXCXmXZXkXlXzXxXcXvXbXnXmXMXNXBXVXCXmXZX",
"  . X o O + @ # $ % & * = - ; :   . X o O + @ # $ % & * = - ; : ",
"> , < 1 2 3 4 5 6 7 8 9 0 q w e > , < 1 2 3 4 5 6 7 8 9 0 q w e ",
"r t y u i p a s d f g h j k l z r t y u i p a s d f g h j k l z ",
"x c v b n m M N B V C Z A S D F x c v b n m M N B V C Z A S D F ",
"G 0 H J K L P I U Y T R E W Q ! G 0 H J K L P I U Y T R E W Q ! ",
"~ ^ / ( ) _ ` ' ] [ { } |  ...X.~ ^ / ( ) _ ` ' ] [ { } |  ...X.",
"o.O.+.@.#.$.%.&.*.=.-.;.:.>.,.<.o.O.+.@.#.$.%.&.*.=.-.;.:.>.,.<.",
"1.2.3.4.5.6.7.8.9.0.q.w.e.r.t.y.1.2.3.4.5.6.7.8.9.0.q.w.e.r.t.y.",
"u.i.p.a.s.d.f.g.h.W j.k.l.z.x.c.u.i.p.a.s.d.f.g.h.W j.k.l.z.x.c.",
"v.b.n.m.M.N.B.V.C.Z.A.S.l.D.F.G.v.b.n.m.M.N.B.V.C.Z.A.S.l.D.F.G.",
"H.J.K.L.P., I.U.Y.T.R.E.W.l Q.!.H.J.K.L.P., I.U.Y.T.R.E.W.l Q.!.",
"~.^./.(.).n 7._.5.`.'.].[.{.}.|.~.^./.(.).n 7._.5.`.'.].[.{.}.|.",
" X.XXXoXR OX+X@X#X$X%X&X*X=X-X;X X.XXXoXR OX+X@X#X$X%X&X*X=X-X;X",
":X>X,X<X1X2X3X4X5Xw 6X6X7X8X9X0X:X>X,X<X1X2X3X4X5Xw 6X6X7X8X9X0X",
"qXwXeXrXtXyXuXiXpXaXsXdXfXgXhXjXqXwXeXrXtXyXuXiXpXaXsXdXfXgXhXjX",
"kXlXzXxXcXvXbXnXmXMXNXBXVXCXmXZXkXlXzXxXcXvXbXnXmXMXNXBXVXCXmXZX"
};
