/* XPM */
static char *wall_diamond_ore[] = {
/* columns rows colors chars-per-pixel */
"32 32 233 2 ",
"   c #7D7F81",
".  c #757273",
"X  c #747774",
"o  c #727874",
"O  c #747772",
"+  c #7F7E7A",
"@  c #928E8B",
"#  c #918D8A",
"$  c #6A6869",
"%  c #8E8E90",
"&  c #7F7F81",
"*  c #6F7173",
"=  c #727272",
"-  c #767474",
";  c #767175",
":  c #817D7C",
">  c #7D8184",
",  c #827F80",
"<  c #8E908F",
"1  c #8A8F8D",
"2  c #8D9290",
"3  c #909292",
"4  c #908D8E",
"5  c #909090",
"6  c #71777A",
"7  c #8C9294",
"8  c #8C8E92",
"9  c #8E8F93",
"0  c #63696E",
"q  c #7C7F85",
"w  c #7F7C82",
"e  c #767376",
"r  c #778082",
"t  c #6D6A6B",
"y  c #727274",
"u  c #737478",
"i  c #B3BBBF",
"p  c #6E767D",
"a  c #6F727C",
"s  c #6C777F",
"d  c #7B9497",
"f  c #647B7D",
"g  c #798080",
"h  c #7C8083",
"j  c #D3E3EE",
"k  c #AEBECA",
"l  c #7D7F85",
"z  c #7D7A7D",
"x  c #7B8485",
"c  c #7E7D80",
"v  c #7A8288",
"b  c #606871",
"n  c #79808B",
"m  c #D7E3ED",
"M  c #B1C9CD",
"N  c #6E8584",
"B  c #6F7374",
"V  c #71757A",
"C  c #6B7B88",
"Z  c #687885",
"A  c #7F7D7E",
"S  c #7A8181",
"D  c #939393",
"F  c #8C8E90",
"G  c #74787B",
"H  c #727379",
"J  c #6E7579",
"K  c #6D7677",
"L  c #6E7874",
"P  c #717674",
"I  c #91929B",
"U  c #8C9198",
"Y  c #8C9296",
"T  c #656663",
"R  c #6E7575",
"E  c gray45",
"W  c #7C8081",
"Q  c #7C8385",
"!  c #797F84",
"~  c #F7FFFF",
"^  c #D4E8EA",
"/  c #6A7C7D",
"(  c #7D827C",
")  c #676A67",
"_  c #F9FFFF",
"`  c #707479",
"'  c #767578",
"]  c gray42",
"[  c #7D807D",
"{  c #8A9191",
"}  c #929292",
"|  c #7D7F83",
" . c #FAFFFF",
".. c #D1E7ED",
"X. c #A4C5CC",
"o. c #99C6CB",
"O. c #AAD0D3",
"+. c #75847F",
"@. c #76827E",
"#. c #9FC0C5",
"$. c #ABCBD5",
"%. c #87939A",
"&. c #8E8F95",
"*. c #656766",
"=. c #7E8182",
"-. c #7C8387",
";. c #6A767D",
":. c #617880",
">. c #5B7E85",
",. c #538289",
"<. c #558285",
"1. c #5E7E7D",
"2. c #4E6E6C",
"3. c #5A8287",
"4. c #69787F",
"5. c #75767D",
"6. c gray50",
"7. c #748184",
"8. c #D9E4E5",
"9. c #AABBC1",
"0. c #586B73",
"q. c #839298",
"w. c #68797F",
"e. c #6C8789",
"r. c #60888B",
"t. c #D3FFFF",
"y. c #B7F4F4",
"u. c #6E9D9F",
"i. c #7A9899",
"p. c #899293",
"a. c #929194",
"s. c #8E9091",
"d. c #968C8D",
"f. c #6B7679",
"g. c #687C81",
"h. c #667981",
"j. c #6B757D",
"k. c #6F777E",
"l. c #CFEAEA",
"z. c #9CD3D3",
"x. c #99D4D5",
"c. c #A6CDCD",
"v. c #667F80",
"b. c #6B7978",
"n. c #727778",
"m. c #8B7D7D",
"M. c #767F83",
"N. c #869194",
"B. c #68777B",
"V. c #AEBBC2",
"C. c #888F98",
"Z. c #8D9194",
"A. c #5A6F6F",
"S. c #647D7E",
"D. c #80979A",
"F. c #82989C",
"G. c #7E9797",
"H. c #718382",
"J. c #7C7F7E",
"K. c #887C7E",
"L. c #60696D",
"P. c #7C7E82",
"I. c #798183",
"U. c #788587",
"Y. c #67787D",
"T. c #748188",
"R. c #808283",
"E. c #7E7E7E",
"W. c #829497",
"Q. c #6D828B",
"!. c #CBE7F0",
"~. c #A8CFD2",
"^. c #7F9C9E",
"/. c #8E9296",
"(. c #6C6568",
"). c #758383",
"_. c #707676",
"`. c #6E7776",
"'. c #697978",
"]. c #697B7E",
"[. c #707573",
"{. c #717878",
"}. c #CEE6EC",
"|. c #E6FFFF",
" X c #C4ECFC",
".X c #95C4D4",
"XX c #95CAD6",
"oX c #A3CBD4",
"OX c #727982",
"+X c #827D81",
"@X c #788585",
"#X c #8C938E",
"$X c #717876",
"%X c #D6E2E0",
"&X c #B5C7C7",
"*X c #718181",
"=X c #7B807C",
"-X c #627D80",
";X c #A6CCD3",
":X c #A5CBDC",
">X c #568092",
",X c #5C8A98",
"<X c #648792",
"1X c #869098",
"2X c #928F94",
"3X c #778381",
"4X c #7C7F7A",
"5X c #727377",
"6X c #707774",
"7X c #707772",
"8X c #707571",
"9X c #798782",
"0X c #728583",
"qX c #829197",
"wX c #83919C",
"eX c #72838D",
"rX c #6C7980",
"tX c #71777C",
"yX c #727270",
"uX c #727475",
"iX c #74767A",
"pX c #666A69",
"aX c #8D928E",
"sX c #8C918D",
"dX c #7C817D",
"fX c #7B837C",
"gX c #77817C",
"hX c #7A8183",
"jX c #72767C",
"kX c #6D7378",
"lX c #787E81",
"zX c #7B8389",
"xX c white",
/* pixels */
"  . X o O + @ # $ % & * = - ; :   . X o O + @ # $ % & * = - ; : ",
"> , < 1 2 3 4 5 6 7 8 9 0 q w e > , < 1 2 3 4 5 6 7 8 9 0 q w e ",
"r t y u i p a s d f g h j k l z r t y u i p a s d f g h j k l z ",
"x 5 c l v b n m M N B V C Z V A x 5 c l v b n m M N B V C Z V A ",
"S D F G u H J K L P 8 I U Y < T S D F G u H J K L P 8 I U Y < T ",
"R E W Q ! ~ ^ / ( ) _ m ` ' ] [ R E W Q ! ~ ^ / ( ) _ m ` ' ] [ ",
"{ } |  ...X.o.O.+.@.#.$.%.&.F *.{ } |  ...X.o.O.+.@.#.$.%.&.F *.",
"r =.-.;.:.>.,.<.1.2.<.3.4.5.h 6.r =.-.;.:.>.,.<.1.2.<.3.4.5.h 6.",
"7.8.9.0.q.w.e.r.t.y.u.i.p.a.s.d.7.8.9.0.q.w.e.r.t.y.u.i.p.a.s.d.",
"7.f.g.h.j.k.f.l.z.x.c.v.b.n.F m.7.f.g.h.j.k.f.l.z.x.c.v.b.n.F m.",
"M.h N.B.V.C.Z.R A.S.D.F.G.H.J.K.M.h N.B.V.C.Z.R A.S.D.F.G.H.J.K.",
"L.P.I.U.Y.T.R.E.p.W.Q.!.~.^./.(.L.P.I.U.Y.T.R.E.p.W.Q.!.~.^./.(.",
")._.`.'.f ].[.{.}.|. X.XXXoXOX+X)._.`.'.f ].[.{.}.|. X.XXXoXOX+X",
"@X#X$X%X&X*X=XL -X;X:X>X,X<X1X2X@X#X$X%X&X*X=XL -X;X:X>X,X<X1X2X",
"3X4X  5X6X7XO 8X9X0XqXwXeXrXtX=.3X4X  5X6X7XO 8X9X0XqXwXeXrXtX=.",
"`.yXuXiXpXaXsXdXfXgXhXV jXkXlXzX`.yXuXiXpXaXsXdXfXgXhXV jXkXlXzX",
"  . X o O + @ # $ % & * = - ; :   . X o O + @ # $ % & * = - ; : ",
"> , < 1 2 3 4 5 6 7 8 9 0 q w e > , < 1 2 3 4 5 6 7 8 9 0 q w e ",
"r t y u i p a s d f g h j k l z r t y u i p a s d f g h j k l z ",
"x 5 c l v b n m M N B V C Z V A x 5 c l v b n m M N B V C Z V A ",
"S D F G u H J K L P 8 I U Y < T S D F G u H J K L P 8 I U Y < T ",
"R E W Q ! ~ ^ / ( ) _ m ` ' ] [ R E W Q ! ~ ^ / ( ) _ m ` ' ] [ ",
"{ } |  ...X.o.O.+.@.#.$.%.&.F *.{ } |  ...X.o.O.+.@.#.$.%.&.F *.",
"r =.-.;.:.>.,.<.1.2.<.3.4.5.h 6.r =.-.;.:.>.,.<.1.2.<.3.4.5.h 6.",
"7.8.9.0.q.w.e.r.t.y.u.i.p.a.s.d.7.8.9.0.q.w.e.r.t.y.u.i.p.a.s.d.",
"7.f.g.h.j.k.f.l.z.x.c.v.b.n.F m.7.f.g.h.j.k.f.l.z.x.c.v.b.n.F m.",
"M.h N.B.V.C.Z.R A.S.D.F.G.H.J.K.M.h N.B.V.C.Z.R A.S.D.F.G.H.J.K.",
"L.P.I.U.Y.T.R.E.p.W.Q.!.~.^./.(.L.P.I.U.Y.T.R.E.p.W.Q.!.~.^./.(.",
")._.`.'.f ].[.{.}.|. X.XXXoXOX+X)._.`.'.f ].[.{.}.|. X.XXXoXOX+X",
"@X#X$X%X&X*X=XL -X;X:X>X,X<X1X2X@X#X$X%X&X*X=XL -X;X:X>X,X<X1X2X",
"3X4X  5X6X7XO 8X9X0XqXwXeXrXtX=.3X4X  5X6X7XO 8X9X0XqXwXeXrXtX=.",
"`.yXuXiXpXaXsXdXfXgXhXV jXkXlXzX`.yXuXiXpXaXsXdXfXgXhXV jXkXlXzX"
};
