/* XPM */
static char *wall_dirt[] = {
/* columns rows colors chars-per-pixel */
"32 32 181 2 ",
"   c #A88A72",
".  c #946E4F",
"X  c #8C6B52",
"o  c #77553A",
"O  c #7D5535",
"+  c #B38B68",
"@  c #926E51",
"#  c #916C52",
"$  c #795237",
"%  c #7B563C",
"&  c #5E3E24",
"*  c #78563B",
"=  c #7E553A",
"-  c #B0876C",
";  c #7A553B",
":  c #9D9264",
">  c #74563E",
",  c #5D3B20",
"<  c #795332",
"1  c #936B4B",
"2  c #A58164",
"3  c #633E24",
"4  c #7D563A",
"5  c #AE876B",
"6  c #906E50",
"7  c #795438",
"8  c #AF866B",
"9  c #976C51",
"0  c #633C20",
"q  c #554319",
"w  c #A78A74",
"e  c #7B5537",
"r  c #5F3C21",
"t  c #AF886A",
"y  c #7B5232",
"u  c #7C583B",
"i  c #7A5438",
"p  c #7B5031",
"a  c #7E5634",
"s  c #7D5533",
"d  c #65381C",
"f  c #64361D",
"g  c #B28768",
"h  c #765A34",
"j  c #8C7059",
"k  c #8C6549",
"l  c #AC886B",
"z  c #7A5639",
"x  c #936C4E",
"c  c #643E20",
"v  c #91684D",
"b  c #936A4D",
"n  c #7F5339",
"m  c #B58A70",
"M  c #966D4D",
"N  c #775636",
"B  c #8D715B",
"V  c #7B5539",
"C  c #906A4C",
"Z  c #AE8769",
"A  c #603C1F",
"S  c #906C4F",
"D  c #785337",
"F  c #613D22",
"G  c #7A553D",
"H  c #866049",
"J  c #7B593B",
"K  c #603C21",
"L  c #725642",
"P  c #633D1E",
"I  c #946C4E",
"U  c #906D52",
"Y  c #653F21",
"T  c #613A1C",
"R  c #603E20",
"E  c #7B543D",
"W  c #603821",
"Q  c #79583A",
"!  c #775739",
"~  c #79543A",
"^  c #AD8870",
"/  c #A68975",
"(  c #7D5638",
")  c #7F5433",
"_  c #A28065",
"`  c #79573C",
"'  c #7A5436",
"]  c #B08A6B",
"[  c #B2876A",
"{  c #B18669",
"}  c #765235",
"|  c #8F6B4E",
" . c #7B5234",
".. c #966D4F",
"X. c #B08868",
"o. c #AF8669",
"O. c #906D54",
"+. c #926B4F",
"@. c #653C1E",
"#. c #996C4D",
"$. c #976C4D",
"%. c #7E5739",
"&. c #94684C",
"*. c #8B6E5A",
"=. c #77543C",
"-. c #8E6D56",
";. c #76553E",
":. c #5D3D23",
">. c #78563D",
",. c #946F54",
"<. c #926B4D",
"1. c #7A5434",
"2. c #7D5736",
"3. c #785231",
"4. c #62391E",
"5. c #7C5338",
"6. c #735743",
"7. c #613D20",
"8. c #5F3C23",
"9. c #603D24",
"0. c #7C5839",
"q. c #7E5837",
"w. c #AC8666",
"e. c #7B543B",
"r. c #936C52",
"t. c #765945",
"y. c #946F52",
"u. c #795334",
"i. c #7E5636",
"p. c #966B4C",
"a. c #673C20",
"s. c #B0886A",
"d. c #633D1C",
"f. c #926E4F",
"g. c #927052",
"h. c #A58269",
"j. c #7B5841",
"k. c #8C6F5B",
"l. c #B38766",
"z. c #835432",
"x. c #996C49",
"c. c #8E6344",
"v. c #5F3B1C",
"b. c #5C3A21",
"n. c #755844",
"m. c #7D5437",
"M. c #996C4B",
"N. c #B58664",
"B. c #815735",
"V. c #7B583D",
"C. c #7B573A",
"Z. c #785135",
"A. c #7E5538",
"S. c #AF8767",
"D. c #735741",
"F. c #7F5739",
"G. c #7C5434",
"H. c #986E4E",
"J. c #AA886D",
"K. c #5E391F",
"L. c #79573E",
"P. c #AF8C6C",
"I. c #AE8867",
"U. c #956E54",
"Y. c #7A533C",
"T. c #866F55",
"R. c #775835",
"E. c #A88C68",
"W. c #8E714F",
"Q. c #8B7050",
"!. c #705739",
"~. c #9C8365",
"^. c #735B3A",
"/. c #8D6E49",
"(. c #8E6E49",
"). c #775837",
"_. c #8B6E51",
"`. c #8E7051",
"'. c #755837",
"]. c #5B3F1D",
"[. c white",
/* pixels */
"  . X o O + @ # $ % & * = - ; :   . X o O + @ # $ % & * = - ; : ",
"> . , o < 1 2 3 4 5 6 7 8 9 0 q > . , o < 1 2 3 4 5 6 7 8 9 0 q ",
"w e * r t y u i - p a s d f g h w e * r t y u i - p a s d f g h ",
"j k l z x c 4 5 v b a 1 n m M N j k l z x c 4 5 v b a 1 n m M N ",
"B V C Z A S V D S F G H J 6 K * B V C Z A S V D S F G H J 6 K * ",
"L P 1 I % U Y T R o E W Q ! ~ ^ L P 1 I % U Y T R o E W Q ! ~ ^ ",
"/ ( ) O _ ` ' ] Z e [ { } |  .../ ( ) O _ ` ' ] Z e [ { } |  ...",
"L e X.o.O.X u i +.@.#.$.' %.&.I L e X.o.O.X u i +.@.#.$.' %.&.I ",
"*.z ( @ =.-.;.:.>.,.<.1.2.3.4.5.*.z ( @ =.-.;.:.>.,.<.1.2.3.4.5.",
"6.@ 7.7 % 8.9.>.G ; 0.q.w.Z e.r.6.@ 7.7 % 8.9.>.G ; 0.q.w.Z e.r.",
"t.y.u.] o.i.g p.a.s.X.d.f.g.h.j.t.y.u.] o.i.g p.a.s.X.d.f.g.h.j.",
"k.z e ..$.l.z.x.c...M e v.S ` b.k.z e ..$.l.z.x.c...M e v.S ` b.",
"n.7.C m.$.M.N.B.z V.~ C.Z.A.S.o.n.7.C m.$.M.N.B.z V.~ C.Z.A.S.o.",
"D.@ ' %.F.G.H.1 J r J.K.$ o.$.1 D.@ ' %.F.G.H.1 J r J.K.$ o.$.1 ",
"B e 7.l ; 8.L.r P.I.V U.Y.e.<.. B e 7.l ; 8.L.r P.I.V U.Y.e.<.. ",
"T.R.E.W.Q.!.~.^./.(.).! _.`.'.].T.R.E.W.Q.!.~.^./.(.).! _.`.'.].",
"  . X o O + @ # $ % & * = - ; :   . X o O + @ # $ % & * = - ; : ",
"> . , o < 1 2 3 4 5 6 7 8 9 0 q > . , o < 1 2 3 4 5 6 7 8 9 0 q ",
"w e * r t y u i - p a s d f g h w e * r t y u i - p a s d f g h ",
"j k l z x c 4 5 v b a 1 n m M N j k l z x c 4 5 v b a 1 n m M N ",
"B V C Z A S V D S F G H J 6 K * B V C Z A S V D S F G H J 6 K * ",
"L P 1 I % U Y T R o E W Q ! ~ ^ L P 1 I % U Y T R o E W Q ! ~ ^ ",
"/ ( ) O _ ` ' ] Z e [ { } |  .../ ( ) O _ ` ' ] Z e [ { } |  ...",
"L e X.o.O.X u i +.@.#.$.' %.&.I L e X.o.O.X u i +.@.#.$.' %.&.I ",
"*.z ( @ =.-.;.:.>.,.<.1.2.3.4.5.*.z ( @ =.-.;.:.>.,.<.1.2.3.4.5.",
"6.@ 7.7 % 8.9.>.G ; 0.q.w.Z e.r.6.@ 7.7 % 8.9.>.G ; 0.q.w.Z e.r.",
"t.y.u.] o.i.g p.a.s.X.d.f.g.h.j.t.y.u.] o.i.g p.a.s.X.d.f.g.h.j.",
"k.z e ..$.l.z.x.c...M e v.S ` b.k.z e ..$.l.z.x.c...M e v.S ` b.",
"n.7.C m.$.M.N.B.z V.~ C.Z.A.S.o.n.7.C m.$.M.N.B.z V.~ C.Z.A.S.o.",
"D.@ ' %.F.G.H.1 J r J.K.$ o.$.1 D.@ ' %.F.G.H.1 J r J.K.$ o.$.1 ",
"B e 7.l ; 8.L.r P.I.V U.Y.e.<.. B e 7.l ; 8.L.r P.I.V U.Y.e.<.. ",
"T.R.E.W.Q.!.~.^./.(.).! _.`.'.].T.R.E.W.Q.!.~.^./.(.).! _.`.'.]."
};
