/* XPM */
static char *door[] = {
/* columns rows colors chars-per-pixel */
"32 32 33 1 ",
"  c #181818",
". c gray18",
"X c #353535",
"o c #493518",
"O c #523919",
"+ c #573C1B",
"@ c #5B3C1C",
"# c #6A431F",
"$ c #634721",
"% c #674A22",
"& c #724520",
"* c #754622",
"= c #785327",
"- c #765729",
"; c #7A5B2B",
": c #7D5C2D",
"> c #434343",
", c #6F6F6F",
"< c #80572A",
"1 c #82592C",
"2 c #896832",
"3 c #8F6B35",
"4 c #906D35",
"5 c #916D38",
"6 c #947338",
"7 c #9C773B",
"8 c #9F7C3D",
"9 c #A08340",
"0 c #A58845",
"q c #AA8F47",
"w c #A78A49",
"e c #AF944D",
"r c #B09751",
/* pixels */
"rqqqqrreqrrrrrr22rrrrrrqerrqqqqr",
"r53;33222223235##53232222233;35r",
"r5====<3111<%55##55%<1113<====5r",
"7-$23336%23334;++;42333%63332$-7",
"X==;;;-91;;;-03**30;;;-19-;;;==X",
",2%22239<222392##292223<93222%2,",
"r5550ww92296ww5**5ww69229ww0555r",
"8;$$$$$;%%%$$-;++;-$$%%%;$$$$$;8",
"r512255w122;3w5##5w22551w3;2215r",
"q2=33350=333292##293335=02333=2q",
"r3<35559=2;5503##303555=955;2<3r",
"8-;64446;66644-++-44666;64446;-8",
"r55ww9w92999065**56099929w9ww55r",
"e2%111121<<==22&&22==<<121111%2e",
"r5=22559152>. **** .>25195522=5r",
"X;%:--:4%;; O4O++O4O ;;%4:--:%;X",
",2=22550=5555w5##5w5555=05522=2,",
"r53600992990905##50909929900635r",
"r52222335553;55##55;35553322225r",
"7-$%%%%;%%$$$-;++;-$$$%%;%%%%$-7",
"r2=22559122;303**3022551922;3=2r",
"q2%33359<333292##293335<93332%2q",
"r5135559=2;55w5**5w3555=92;5515r",
"8;-44446;64444;++;44446;64444-;8",
"r5555;255333555##555333552;5555r",
"q2===1<3===%122##221%===3<1===2q",
"X3<35529=233303##303332=92333<3X",
",-%;---6%;;;-4-++-4-;;;%6;;;-%-,",
"r5155259=222365**563222=9222315r",
"e2;wwww95009992&&29990059wwww;2e",
"r52225525523555**55532552552225r",
";++@OO@O+++OoOO++OOoO+++O@OO@++;"
};
