/* XPM */
static char *wall_mossy[] = {
/* columns rows colors chars-per-pixel */
"32 32 249 2 ",
"   c #B5B19C",
".  c #ADB0A1",
"X  c #B1B1A6",
"o  c #A5A396",
"O  c #959182",
"+  c #7D836D",
"@  c #44613C",
"#  c #3E5D37",
"$  c #5F6C55",
"%  c #AEADA2",
"&  c #B3B0A6",
"*  c #B0ACA4",
"=  c #81857A",
"-  c #686960",
";  c #B4B1A9",
":  c #978F88",
">  c #AAB39B",
",  c #A7B4A7",
"<  c #6C756B",
"1  c #7D837A",
"2  c #475042",
"3  c #475D46",
"4  c #56815C",
"5  c #57815F",
"6  c #455A49",
"7  c #7B857D",
"8  c #838882",
"9  c #7F857E",
"0  c #87948B",
"q  c #3E4B42",
"w  c #727A75",
"e  c #999C9B",
"r  c #485D3C",
"t  c #738A70",
"y  c #7C8A79",
"u  c #3A4838",
"i  c #425D41",
"p  c #5E7E5F",
"a  c #99BC99",
"s  c #4E6C4F",
"d  c #445946",
"f  c #39463B",
"g  c #859086",
"h  c #7A8578",
"j  c #3A4C3D",
"k  c #475C4A",
"l  c #485A49",
"z  c #7F8C83",
"x  c #4C6143",
"c  c #3D563C",
"v  c #384C37",
"b  c #425843",
"n  c #A2C3A6",
"m  c #416144",
"M  c #829B80",
"N  c #778D73",
"B  c #425B40",
"V  c #445D45",
"C  c #3B4E3A",
"Z  c #4A5B4A",
"A  c #465947",
"S  c #9BAE9C",
"D  c #A7BCA7",
"F  c #48584B",
"G  c #A8B4A3",
"H  c #A3B3A2",
"J  c #5C725D",
"K  c #435B45",
"L  c #9EB8A3",
"P  c #788D7D",
"I  c #7E8C7C",
"U  c #485A41",
"Y  c #3D6139",
"T  c #577E53",
"R  c #8CAA8B",
"E  c #5D735E",
"W  c #455245",
"Q  c #778278",
"!  c #A0ADA0",
"~  c #626D65",
"^  c #737C70",
"/  c #7E8B80",
"(  c #6F8772",
")  c #405D43",
"_  c #4B6551",
"`  c #819382",
"'  c #7A8576",
"]  c #3C4E36",
"[  c #567D50",
"{  c #A8D4A5",
"}  c #698A6A",
"|  c #576D5A",
" . c #666F65",
".. c #626861",
"X. c #3E4941",
"o. c #77867A",
"O. c #4D6851",
"+. c #3C5C3F",
"@. c #436143",
"#. c #365232",
"$. c #485C43",
"%. c #485F41",
"&. c #41663C",
"*. c #4D734B",
"=. c #92AD94",
"-. c #556458",
";. c #747774",
":. c #818480",
">. c #566458",
",. c #5A675C",
"<. c #80877C",
"1. c #79867D",
"2. c #354D39",
"3. c #3B593D",
"4. c #5F805C",
"5. c #9BBA96",
"6. c #425B3E",
"7. c #3E583B",
"8. c #3E6039",
"9. c #395A35",
"0. c #445C47",
"q. c #7C8C80",
"w. c #7E867E",
"e. c #4B504A",
"r. c #4E5B50",
"t. c #B5BFB7",
"y. c #818077",
"u. c #3B433E",
"i. c #4B584D",
"p. c #5D7D5C",
"a. c #4B6C4A",
"s. c #4D634C",
"d. c #A2B8A1",
"f. c #94B291",
"g. c #4A6948",
"h. c #435C43",
"j. c #3E5340",
"k. c #3C4F3D",
"l. c #3C493B",
"z. c #BAC2BD",
"x. c #ADAFB1",
"c. c #878B7C",
"v. c #5F6961",
"b. c #A6B3A7",
"n. c #A6B7A6",
"m. c #536E53",
"M. c #395539",
"N. c #A2B2A3",
"B. c #69796A",
"V. c #A8C1A9",
"C. c #557155",
"Z. c #819981",
"A. c #415740",
"S. c #5A7359",
"D. c #B0C5B1",
"F. c #7F8682",
"G. c #7E8084",
"H. c #5B7253",
"J. c #5E765E",
"K. c #738574",
"L. c #738372",
"P. c #758876",
"I. c #485849",
"U. c #AAB1AD",
"Y. c #8F9792",
"T. c #788879",
"R. c #536654",
"E. c #778C77",
"W. c #435C41",
"Q. c #426140",
"!. c #597459",
"~. c #919E92",
"^. c #828685",
"/. c #425E3D",
"(. c #445F44",
"). c #5A735B",
"_. c #708570",
"`. c #687B69",
"'. c #48564A",
"]. c #7C847F",
"[. c #879489",
"{. c #788B79",
"}. c #3C4D3C",
"|. c #425541",
" X c #5E795B",
".X c #435E43",
"XX c #485847",
"oX c #4C5651",
"OX c #A2B7A5",
"+X c #A4B4A5",
"@X c #395139",
"#X c #344F33",
"$X c #364F37",
"%X c #374A38",
"&X c #4F594F",
"*X c #7A857A",
"=X c #405641",
"-X c #3B513A",
";X c #97A297",
":X c #546453",
">X c #748A73",
",X c #465C47",
"<X c #ADBDB1",
"1X c #77827A",
"2X c #4B644C",
"3X c #A2C0A1",
"4X c #5F785F",
"5X c #A7BAA6",
"6X c #4A5749",
"7X c #465645",
"8X c #B7D2B7",
"9X c #99A69B",
"0X c #7A827B",
"qX c #8B988B",
"wX c #788877",
"eX c #7E917D",
"rX c #47564A",
"tX c #737E71",
"yX c #838D85",
"uX c #3B513C",
"iX c #93AC94",
"pX c #7B8E7C",
"aX c #718172",
"sX c #778776",
"dX c #40603E",
"fX c #416240",
"gX c #778A78",
"hX c #88968A",
"jX c #829284",
"kX c #889688",
"lX c #505B50",
"zX c #3E4540",
"xX c #7B8178",
"cX c #727C74",
"vX c #6D7E6D",
"bX c #40503F",
"nX c #3B463B",
"mX c #3A443A",
"MX c #3E4B3E",
"NX c #4A5D49",
"BX c #617C61",
"VX c #728E72",
"CX c #5D6D5E",
"ZX c #4C574D",
"AX c #455046",
"SX c #444F44",
"DX c #464B47",
"FX c #6B6D6C",
"GX c white",
/* pixels */
"  . X o O + @ # $ % & * = - ; :   . X o O + @ # $ % & * = - ; : ",
"> , < 1 2 3 4 5 6 7 8 9 0 q w e > , < 1 2 3 4 5 6 7 8 9 0 q w e ",
"r t y u i p a s d f g h j k l z r t y u i p a s d f g h j k l z ",
"x c v b n m M N B V C Z A S D F x c v b n m M N B V C Z A S D F ",
"G H J K L P I U Y T R E W Q ! ~ G H J K L P I U Y T R E W Q ! ~ ",
"^ / ( ) _ ` ' ] [ { } |  ...f X.^ / ( ) _ ` ' ] [ { } |  ...f X.",
"h o.O.+.@.#.$.%.&.*.=.-.;.:.>.,.h o.O.+.@.#.$.%.&.*.=.-.;.:.>.,.",
"<.1.2.3.4.5.6.7.8.9.0.q.w.e.r.t.<.1.2.3.4.5.6.7.8.9.0.q.w.e.r.t.",
"y.u.i.D p.a.s.d.f.g.h.j.k.l.z.x.y.u.i.D p.a.s.d.f.g.h.j.k.l.z.x.",
"c.v.b.n.m.M.N.B.V.C.Z.A.S.D.F.G.c.v.b.n.m.M.N.B.V.C.Z.A.S.D.F.G.",
"H.J.K.L.P.I.U.Y.T.R.E.W.Q.!.~.^.H.J.K.L.P.I.U.Y.T.R.E.W.Q.!.~.^.",
"/.(.)._.`.'.F.].[.{.}.|. X.XXXoX/.(.)._.`.'.F.].[.{.}.|. X.XXXoX",
"OX+X@X#X$X%X&X*X=X-Xb.;X:X>X,XF OX+X@X#X$X%X&X*X=X-Xb.;X:X>X,XF ",
"<X1X2X3X4X5X6X7X@.8X9X0XqXwXeXrX<X1X2X3X4X5X6X7X@.8X9X0XqXwXeXrX",
"tXyXuXiXpXaXsXh.dXfXgXhXjXkXlXzXtXyXuXiXpXaXsXh.dXfXgXhXjXkXlXzX",
"xXcXvXbXnXmXMXNXBXVXCXZXAXSXDXFXxXcXvXbXnXmXMXNXBXVXCXZXAXSXDXFX",
"  . X o O + @ # $ % & * = - ; :   . X o O + @ # $ % & * = - ; : ",
"> , < 1 2 3 4 5 6 7 8 9 0 q w e > , < 1 2 3 4 5 6 7 8 9 0 q w e ",
"r t y u i p a s d f g h j k l z r t y u i p a s d f g h j k l z ",
"x c v b n m M N B V C Z A S D F x c v b n m M N B V C Z A S D F ",
"G H J K L P I U Y T R E W Q ! ~ G H J K L P I U Y T R E W Q ! ~ ",
"^ / ( ) _ ` ' ] [ { } |  ...f X.^ / ( ) _ ` ' ] [ { } |  ...f X.",
"h o.O.+.@.#.$.%.&.*.=.-.;.:.>.,.h o.O.+.@.#.$.%.&.*.=.-.;.:.>.,.",
"<.1.2.3.4.5.6.7.8.9.0.q.w.e.r.t.<.1.2.3.4.5.6.7.8.9.0.q.w.e.r.t.",
"y.u.i.D p.a.s.d.f.g.h.j.k.l.z.x.y.u.i.D p.a.s.d.f.g.h.j.k.l.z.x.",
"c.v.b.n.m.M.N.B.V.C.Z.A.S.D.F.G.c.v.b.n.m.M.N.B.V.C.Z.A.S.D.F.G.",
"H.J.K.L.P.I.U.Y.T.R.E.W.Q.!.~.^.H.J.K.L.P.I.U.Y.T.R.E.W.Q.!.~.^.",
"/.(.)._.`.'.F.].[.{.}.|. X.XXXoX/.(.)._.`.'.F.].[.{.}.|. X.XXXoX",
"OX+X@X#X$X%X&X*X=X-Xb.;X:X>X,XF OX+X@X#X$X%X&X*X=X-Xb.;X:X>X,XF ",
"<X1X2X3X4X5X6X7X@.8X9X0XqXwXeXrX<X1X2X3X4X5X6X7X@.8X9X0XqXwXeXrX",
"tXyXuXiXpXaXsXh.dXfXgXhXjXkXlXzXtXyXuXiXpXaXsXh.dXfXgXhXjXkXlXzX",
"xXcXvXbXnXmXMXNXBXVXCXZXAXSXDXFXxXcXvXbXnXmXMXNXBXVXCXZXAXSXDXFX"
};
