/* XPM */
static char *wall_sand[] = {
/* columns rows colors chars-per-pixel */
"32 32 123 2 ",
"   c #C8BC99",
".  c #E6D7A8",
"X  c #E5D6A7",
"o  c #E4D4A8",
"O  c #E7DAAC",
"+  c #DBCEA1",
"@  c #D3C698",
"#  c #DFD2A4",
"$  c #E9D9AC",
"%  c #E2D2A5",
"&  c #DDCDA1",
"*  c #E2D2A7",
"=  c #E3D3A8",
"-  c #FFF0C5",
";  c #D0C194",
":  c #DACBA7",
">  c #DBD6AE",
",  c #DAD39F",
"<  c #DFD8A3",
"1  c #E7E0AC",
"2  c #BEB783",
"3  c #D1CA96",
"4  c #D2CB97",
"5  c #D5CD99",
"6  c #EAE2B0",
"7  c #E6DEAC",
"8  c #FFFFCD",
"9  c #DDD5A3",
"0  c #DAD3A1",
"q  c #DED6A4",
"w  c #E8E0BC",
"e  c #DCD7B0",
"r  c #EBE3AF",
"t  c #F8F0BC",
"y  c #D7CF9B",
"u  c #D8D19D",
"i  c #DCD4A0",
"p  c #DED6A2",
"a  c #DCD4A2",
"s  c #E5DDAB",
"d  c #E3DBA9",
"f  c #E7DFAE",
"g  c #D9D1A0",
"h  c #CEC694",
"j  c #D3CC9A",
"k  c #F5EDC9",
"l  c #CAC59E",
"z  c #D9D29E",
"x  c #D0C894",
"c  c #AEA675",
"v  c #D6CE9C",
"b  c #E1DAA8",
"n  c #BDB591",
"m  c #DFDAB3",
"M  c #E6DFAA",
"N  c #D6CE9A",
"B  c #E5DDA9",
"V  c #D0C896",
"C  c #CCC593",
"Z  c #D2CA99",
"A  c #C4BC8B",
"S  c #EEE6B5",
"D  c #C4BC98",
"F  c #FFFFCC",
"G  c #EAE2AE",
"H  c #D8D09F",
"J  c #F3EBB9",
"K  c #BFB793",
"L  c #BBB68F",
"P  c #C8C08C",
"I  c #C0B884",
"U  c #E0D9A5",
"Y  c #D5CD9B",
"T  c #FDF6C4",
"R  c #E0D8A7",
"E  c #D7CFAB",
"W  c #D7D2AB",
"Q  c #E3DBA7",
"!  c #DDD5A1",
"~  c #E4DCA8",
"^  c #FCF5C1",
"/  c #D1C998",
"(  c #DFD7A6",
")  c #F2EAB8",
"_  c #E2DBB4",
"`  c #DED9B2",
"'  c #D3CC98",
"]  c #FFFECA",
"[  c #C3BC88",
"{  c #DBD4AD",
"}  c #BEB991",
"|  c #CFC793",
" . c #F1E9B5",
".. c #E7DFB9",
"X. c #DDD8B1",
"o. c #A8A16D",
"O. c #C7BF8B",
"+. c #EEE7B3",
"@. c #F2EAB6",
"#. c #FFFCC8",
"$. c #DAD3AC",
"%. c #E1DAA6",
"&. c #FFF9C5",
"*. c #B8B18A",
"=. c #EBE6BF",
"-. c #C9C18D",
";. c #D2CAA4",
":. c #B4AD78",
">. c #F4EDB8",
",. c #D3CCA5",
"<. c #BDB682",
"1. c #CAC38F",
"2. c #D1CCB0",
"3. c #D3CEA6",
"4. c #C0BB94",
"5. c #FFFFD8",
"6. c #C7C29B",
"7. c #E8E3BB",
"8. c #EEE6C0",
"9. c #CDC69F",
"0. c #D4CDA6",
"q. c #C3BD9D",
"w. c white",
/* pixels */
"  . X o O + @ # $ % & * = - ; :   . X o O + @ # $ % & * = - ; : ",
"> , < 1 2 3 4 5 6 7 8 9 9 0 q w > , < 1 2 3 4 5 6 7 8 9 9 0 q w ",
"e r t y 5 u i p a s d f g h j k e r t y 5 u i p a s d f g h j k ",
"l y z p 4 < x i c v 0 b 7 s 0 n l y z p 4 < x i c v 0 b 7 s 0 n ",
"m u M N M B B 1 V C Z s j A S D m u M N M B B 1 V C Z s j A S D ",
"l p x F 4 G z , H J q A h Z 0 K l p x F 4 G z , H J q A h Z 0 K ",
"L , P i I U z 4 Y H s T q b R E L , P i I U z 4 Y H s T q b R E ",
"W N Q u ! 3 ~ ^ q C 0 / q ( ) _ W N Q u ! 3 ~ ^ q C 0 / q ( ) _ ",
"` i r ~ U ' B p y ] [ , z i , { ` i r ~ U ' B p y ] [ , z i , { ",
"} z < u u , | 4 i i !  .! ! N ..} z < u u , | 4 i i !  .! ! N ..",
"X.U o.U O.1 y u +.@.M N z #.u $.X.U o.U O.1 y u +.@.M N z #.u $.",
"l %.Q O.< ' ! N p ! y &.5 4 4 *.l %.Q O.< ' ! N p ! y &.5 4 4 *.",
"=.< ' +.< 4 U I -., u 4 U %.3 ;.=.< ' +.< 4 U I -., u 4 U %.3 ;.",
"` %.| :.| ' '  .< >.~ U ~ z Q ,.` %.| :.| ' '  .< >.~ U ~ z Q ,.",
"> z u x z 5 i Q -.< <.u ~ 1.3 $.> z u x z 5 i Q -.< <.u ~ 1.3 $.",
"2.m 3.4.5.e 6.7.W 8.9.$.{ $.0.q.2.m 3.4.5.e 6.7.W 8.9.$.{ $.0.q.",
"  . X o O + @ # $ % & * = - ; :   . X o O + @ # $ % & * = - ; : ",
"> , < 1 2 3 4 5 6 7 8 9 9 0 q w > , < 1 2 3 4 5 6 7 8 9 9 0 q w ",
"e r t y 5 u i p a s d f g h j k e r t y 5 u i p a s d f g h j k ",
"l y z p 4 < x i c v 0 b 7 s 0 n l y z p 4 < x i c v 0 b 7 s 0 n ",
"m u M N M B B 1 V C Z s j A S D m u M N M B B 1 V C Z s j A S D ",
"l p x F 4 G z , H J q A h Z 0 K l p x F 4 G z , H J q A h Z 0 K ",
"L , P i I U z 4 Y H s T q b R E L , P i I U z 4 Y H s T q b R E ",
"W N Q u ! 3 ~ ^ q C 0 / q ( ) _ W N Q u ! 3 ~ ^ q C 0 / q ( ) _ ",
"` i r ~ U ' B p y ] [ , z i , { ` i r ~ U ' B p y ] [ , z i , { ",
"} z < u u , | 4 i i !  .! ! N ..} z < u u , | 4 i i !  .! ! N ..",
"X.U o.U O.1 y u +.@.M N z #.u $.X.U o.U O.1 y u +.@.M N z #.u $.",
"l %.Q O.< ' ! N p ! y &.5 4 4 *.l %.Q O.< ' ! N p ! y &.5 4 4 *.",
"=.< ' +.< 4 U I -., u 4 U %.3 ;.=.< ' +.< 4 U I -., u 4 U %.3 ;.",
"` %.| :.| ' '  .< >.~ U ~ z Q ,.` %.| :.| ' '  .< >.~ U ~ z Q ,.",
"> z u x z 5 i Q -.< <.u ~ 1.3 $.> z u x z 5 i Q -.< <.u ~ 1.3 $.",
"2.m 3.4.5.e 6.7.W 8.9.$.{ $.0.q.2.m 3.4.5.e 6.7.W 8.9.$.{ $.0.q."
};
