/* XPM */
static char *wall_stone2[] = {
/* columns rows colors chars-per-pixel */
"32 32 108 2 ",
"   c #A0A0A0",
".  c #999997",
"X  c #A1A19F",
"o  c #9C9C9A",
"O  c #8F908D",
"+  c #9B9B99",
"@  c #969794",
"#  c #949492",
"$  c #959595",
"%  c gray58",
"&  c #9A9A9A",
"*  c gray56",
"=  c gray38",
"-  c #9D9E9B",
";  c #898A87",
":  c #878785",
">  c #888986",
",  c #797977",
"<  c #868684",
"1  c #747474",
"2  c #808080",
"3  c gray50",
"4  c #797979",
"5  c #7E7E7E",
"6  c gray49",
"7  c #605D60",
"8  c #929290",
"9  c #7A7B78",
"0  c #7E7E7C",
"q  c #818181",
"w  c gray52",
"e  c gray45",
"r  c gray42",
"t  c #5E5B5E",
"y  c #959593",
"u  c #747572",
"i  c #81827F",
"p  c #7F7F7D",
"a  c #787876",
"s  c #777777",
"d  c #898989",
"f  c #6F6F6F",
"g  c #615E61",
"h  c #939391",
"j  c #858583",
"k  c gray53",
"l  c #605D5E",
"z  c #737471",
"x  c #7D7D7B",
"c  c #80807E",
"v  c gray47",
"b  c #626262",
"n  c #8E8E8C",
"m  c #70706E",
"M  c #6C6D6A",
"N  c #6F6F6D",
"B  c gray40",
"V  c #6D6D6D",
"C  c #767676",
"Z  c gray44",
"A  c #5E5F5C",
"S  c #5B5B59",
"D  c #5C5C5A",
"F  c #5D5E5B",
"G  c #5D5D5D",
"H  c gray37",
"J  c #5F5F5F",
"K  c gray39",
"L  c #605C59",
"P  c gray60",
"I  c gray59",
"U  c #9B9B9B",
"Y  c gray61",
"T  c #A5A5A5",
"R  c #8E8E8E",
"E  c #A49A90",
"W  c #717171",
"Q  c #888888",
"!  c gray48",
"~  c #83776D",
"^  c #979797",
"/  c gray51",
"(  c #7B7774",
")  c #7B7B7B",
"_  c #686868",
"`  c #939393",
"'  c DimGray",
"]  c gray55",
"[  c #8B8B8B",
"{  c #868686",
"}  c #6C6C6C",
"|  c #727272",
" . c #576557",
".. c #586958",
"X. c #506852",
"o. c #4E6950",
"O. c #4D6851",
"+. c #516955",
"@. c #4F6452",
"#. c #526553",
"$. c #516452",
"%. c #506651",
"&. c #526D54",
"*. c #4D684F",
"=. c #506A51",
"-. c #4E6952",
";. c #4E6554",
":. c white",
/* pixels */
"  . X o O + @ # $ $ % & * * * =   . X o O + @ # $ $ % & * * * = ",
"- ; : > , < ; : 1 2 3 4 3 5 6 7 - ; : > , < ; : 1 2 3 4 3 5 6 7 ",
"8 9 9 , > , 0 0 q w q 3 3 e r t 8 9 9 , > , 0 0 q w q 3 3 e r t ",
"y u i : p 0 9 a s 4 4 3 5 d f g y u i : p 0 9 a s 4 4 3 5 d f g ",
"h a , , , , > j k k k 1 3 d 1 l h a , , , , > j k k k 1 3 d 1 l ",
"# , a 9 0 z x c v v 1 6 4 4 r b # , a 9 0 z x c v v 1 6 4 4 r b ",
"n u , u m M m N e 1 f B V C Z b n u , u m M m N e 1 f B V C Z b ",
"A S D A F S F F G H J K J H H L A S D A F S F F G H J K J H H L ",
"$ P P I U Y % J T Y U * & & R E $ P P I U Y % J T Y U * & & R E ",
"4 4 3 e 3 2 W G % Q 2 3 v ! v ~ 4 4 3 e 3 2 W G % Q 2 3 v ! v ~ ",
"d k ! e 4 d s J ^ / 3 3 3 w ! ( d k ! e 4 d s J ^ / 3 3 3 w ! ( ",
"2 q 2 Q Q 2 Z J Y k e W 2 2 3 4 2 q 2 Q Q 2 Z J Y k e W 2 2 3 4 ",
"4 4 ) k k ! _ G ` s 3 2 v 4 4 v 4 4 ) k k ! _ G ` s 3 2 v 4 4 v ",
"5 5 4 ! 4 e ' = % k ] 2 [ ! { 1 5 5 4 ! 4 e ' = % k ] 2 [ ! { 1 ",
"_ _ _ f r e s = Q } C | f W ' ' _ _ _ f r e s = Q } C | f W ' ' ",
" ...X.o.O.+.@.#.$.%.&.*.=.-.+.;. ...X.o.O.+.@.#.$.%.&.*.=.-.+.;.",
"  . X o O + @ # $ $ % & * * * =   . X o O + @ # $ $ % & * * * = ",
"- ; : > , < ; : 1 2 3 4 3 5 6 7 - ; : > , < ; : 1 2 3 4 3 5 6 7 ",
"8 9 9 , > , 0 0 q w q 3 3 e r t 8 9 9 , > , 0 0 q w q 3 3 e r t ",
"y u i : p 0 9 a s 4 4 3 5 d f g y u i : p 0 9 a s 4 4 3 5 d f g ",
"h a , , , , > j k k k 1 3 d 1 l h a , , , , > j k k k 1 3 d 1 l ",
"# , a 9 0 z x c v v 1 6 4 4 r b # , a 9 0 z x c v v 1 6 4 4 r b ",
"n u , u m M m N e 1 f B V C Z b n u , u m M m N e 1 f B V C Z b ",
"A S D A F S F F G H J K J H H L A S D A F S F F G H J K J H H L ",
"$ P P I U Y % J T Y U * & & R E $ P P I U Y % J T Y U * & & R E ",
"4 4 3 e 3 2 W G % Q 2 3 v ! v ~ 4 4 3 e 3 2 W G % Q 2 3 v ! v ~ ",
"d k ! e 4 d s J ^ / 3 3 3 w ! ( d k ! e 4 d s J ^ / 3 3 3 w ! ( ",
"2 q 2 Q Q 2 Z J Y k e W 2 2 3 4 2 q 2 Q Q 2 Z J Y k e W 2 2 3 4 ",
"4 4 ) k k ! _ G ` s 3 2 v 4 4 v 4 4 ) k k ! _ G ` s 3 2 v 4 4 v ",
"5 5 4 ! 4 e ' = % k ] 2 [ ! { 1 5 5 4 ! 4 e ' = % k ] 2 [ ! { 1 ",
"_ _ _ f r e s = Q } C | f W ' ' _ _ _ f r e s = Q } C | f W ' ' ",
" ...X.o.O.+.@.#.$.%.&.*.=.-.+.;. ...X.o.O.+.@.#.$.%.&.*.=.-.+.;."
};
