/* XPM */
static char *wall_stone[] = {
/* columns rows colors chars-per-pixel */
"32 32 34 1 ",
"  c #7E7E7E",
". c #767676",
"X c #747474",
"o c #808080",
"O c #8D8D8D",
"+ c gray56",
"@ c #686868",
"# c #929292",
"$ c #727272",
"% c #857A72",
"& c gray50",
"* c #8E8E8E",
"= c DimGray",
"- c #7E736C",
"; c gray45",
": c #877D75",
"> c gray49",
", c gray40",
"< c #818181",
"1 c #777777",
"2 c #909090",
"3 c #70665E",
"4 c #877C77",
"5 c #6E645E",
"6 c gray51",
"7 c #978D87",
"8 c gray55",
"9 c #897F79",
"0 c #716661",
"q c #867B76",
"w c #978D85",
"e c #867C74",
"r c #857E75",
"t c white",
/* pixels */
" ..X.oO+@# .$..% ..X.oO+@# .$..%",
"&&#++*XXX++*=&&-&&#++*XXX++*=&&-",
" @$.@.X;+; &o+o: @$.@.X;+; &o+o:",
"o+&&>,&*<oXX1;.:o+&&>,&*<oXX1;.:",
">+*XX.;X;.*++223>+*XX.;X;.*++223",
";Xo&o..; @&&XX=4;Xo&o..; @&&XX=4",
"#*&&o12+< &>+*+5#*&&o12+< &>+*+5",
"  &XX;1X$=X;..>4  &XX;1X$=X;..>4",
"6++,*.&oo*O22O276++,*.&oo*O22O27",
"oXX.XX1&=&o$XX89oXX.XX1&=&o$XX89",
"o&2;;+2X@1*22o&4o&2;;+2X@1*22o&4",
"@& oX &o*+   ++0@& oX &o*+   ++0",
">.;.;.;X+*XX;X;q>.;.;.;X+*XX;X;q",
"&*2*2* .X.=Xoo#w&*2*2* .X.=Xoo#w",
"&&&.XXX.o<O2 X1e&&&.XXX.o<O2 X1e",
"$.XX=*+ oo&1.X&r$.XX=*+ oo&1.X&r",
" ..X.oO+@# .$..% ..X.oO+@# .$..%",
"&&#++*XXX++*=&&-&&#++*XXX++*=&&-",
" @$.@.X;+; &o+o: @$.@.X;+; &o+o:",
"o+&&>,&*<oXX1;.:o+&&>,&*<oXX1;.:",
">+*XX.;X;.*++223>+*XX.;X;.*++223",
";Xo&o..; @&&XX=4;Xo&o..; @&&XX=4",
"#*&&o12+< &>+*+5#*&&o12+< &>+*+5",
"  &XX;1X$=X;..>4  &XX;1X$=X;..>4",
"6++,*.&oo*O22O276++,*.&oo*O22O27",
"oXX.XX1&=&o$XX89oXX.XX1&=&o$XX89",
"o&2;;+2X@1*22o&4o&2;;+2X@1*22o&4",
"@& oX &o*+   ++0@& oX &o*+   ++0",
">.;.;.;X+*XX;X;q>.;.;.;X+*XX;X;q",
"&*2*2* .X.=Xoo#w&*2*2* .X.=Xoo#w",
"&&&.XXX.o<O2 X1e&&&.XXX.o<O2 X1e",
"$.XX=*+ oo&1.X&r$.XX=*+ oo&1.X&r"
};
