/* XPM */
static char *wall_tnt[] = {
/* columns rows colors chars-per-pixel */
"32 32 208 2 ",
"   c #C74B2A",
".  c #CB401B",
"X  c #B83619",
"o  c #AF3012",
"O  c #CE4922",
"+  c #C5431B",
"@  c #B13919",
"#  c #AC3212",
"$  c #D14822",
"%  c #A73316",
"&  c #C54B29",
"*  c #C53C16",
"=  c #AE3110",
"-  c #A22708",
";  c #CB4823",
":  c #C03E18",
">  c #A93312",
",  c #A02808",
"<  c #CE4720",
"1  c #9A2A0C",
"2  c #C44E2D",
"3  c #C33F17",
"4  c #A93410",
"5  c #9D2804",
"6  c #CD4B25",
"7  c #C23F19",
"8  c #A73412",
"9  c #9C2904",
"0  c #952B0B",
"q  c #B54F2F",
"w  c #B4411D",
"e  c #9B3815",
"r  c #922D0B",
"t  c #BF4B29",
"y  c #B44121",
"u  c #9D3717",
"i  c #922C0D",
"p  c #8D2E11",
"a  c #A7573E",
"s  c #9E4A2D",
"d  c #894024",
"f  c #80351A",
"g  c #AD533D",
"h  c #A24832",
"j  c #8B3C27",
"k  c #7F331D",
"l  c #AD563D",
"z  c #9F4B2E",
"x  c #883F23",
"c  c #AE543E",
"v  c #A04630",
"b  c #8E402B",
"n  c #823219",
"m  c #FFCEBB",
"M  c #FFCBB8",
"N  c #FCD0BD",
"B  c #F4C4B4",
"V  c #FFCAC0",
"C  c #FFCBC1",
"Z  c #FFCEC4",
"A  c #FFD0C5",
"S  c #F5BEAF",
"D  c #FED1BE",
"F  c #F1C2B2",
"G  c #F9BFB5",
"H  c #FFCCC2",
"J  c #FECCC2",
"K  c #FABCAD",
"L  c #DEC9C0",
"P  c #E8D6D1",
"I  c #0B0000",
"U  c #0F0000",
"Y  c #0E0000",
"T  c #DCC8CA",
"R  c #0D0000",
"E  c #DBC8CA",
"W  c #E5D4D0",
"Q  c #D9CAC4",
"!  c #110000",
"~  c #E9D6DA",
"^  c #E9C3BE",
"/  c #D3CBC7",
"(  c #CED0CF",
")  c #CDCDCD",
"_  c black",
"`  c #CDCCD1",
"'  c #CDCCD3",
"]  c #030007",
"[  c #010007",
"{  c #CBCDCF",
"}  c #000201",
"|  c #D0D0D0",
" . c #CECED0",
".. c #010005",
"X. c #CECDD4",
"o. c #D1CDD5",
"O. c #E1C6C4",
"+. c #D6CCC6",
"@. c #CBCECB",
"#. c #CFD2CE",
"$. c #000100",
"%. c #D1CED3",
"&. c #030308",
"*. c #CFCED3",
"=. c #000203",
"-. c #CED0CD",
";. c #000002",
":. c #D1CED1",
">. c #CFCFD1",
",. c #E0C6BF",
"<. c #DEC7BF",
"1. c #BBAEA5",
"2. c #B5ABA3",
"3. c #080000",
"4. c #D9CAC8",
"5. c #B9A9A7",
"6. c #0A0000",
"7. c #D7C9C9",
"8. c #D8CAC8",
"9. c #B9A9A5",
"0. c #B8ABA7",
"q. c #E9C5B8",
"w. c #D3A599",
"e. c #CDA494",
"r. c #EAC6B7",
"t. c #CCA79B",
"y. c #CFA398",
"u. c #ECBFB8",
"i. c #CEA69F",
"p. c #CAA29B",
"a. c #CDA498",
"s. c #EBC2B7",
"d. c #CAA59A",
"f. c #CDA89E",
"g. c #EEC2B8",
"h. c #CCA194",
"j. c #C9A296",
"k. c #D4A08F",
"l. c #8D4532",
"z. c #883C26",
"x. c #78321E",
"c. c #722C19",
"v. c #924531",
"b. c #873A29",
"n. c #773021",
"m. c #6D2718",
"M. c #904332",
"N. c #883C28",
"B. c #752F1E",
"V. c #702A18",
"C. c #934632",
"Z. c #8B3E28",
"A. c #77311D",
"S. c #702710",
"D. c #B65234",
"F. c #A03819",
"G. c #972E12",
"H. c #BF4E30",
"J. c #B44224",
"K. c #A0371D",
"L. c #962D13",
"P. c #BE4C31",
"I. c #B54124",
"U. c #A0381B",
"Y. c #BF4E2E",
"T. c #B24121",
"R. c #9F3718",
"E. c #943010",
"W. c #C14E2C",
"Q. c #C13C15",
"!. c #AC3210",
"~. c #9F2704",
"^. c #9F2706",
"/. c #CE4826",
"(. c #C23D1A",
"). c #BF3D15",
"_. c #A8330D",
"`. c #982A06",
"'. c #BF4F2C",
"]. c #AA3511",
"[. c #A02A09",
"{. c #CA4A24",
"}. c #BD4018",
"|. c #A63512",
" X c #9B2A08",
".X c #CB4825",
"XX c #C13C19",
"oX c #A93314",
"OX c #CA4B22",
"+X c #BC3F13",
"@X c #A6360E",
"#X c #952D0A",
"$X c #8B5833",
"%X c #824C2C",
"&X c #75452A",
"*X c #6E3E21",
"=X c #8E5433",
"-X c #844C2A",
";X c #704526",
":X c #693B20",
">X c #8E5435",
",X c #874A2C",
"<X c #744429",
"1X c #6D3D22",
"2X c #905535",
"3X c #6F4727",
"4X c #634220",
"5X c white",
/* pixels */
"  . X o O + @ # $ . X o O + @ %   . X o O + @ # $ . X o O + @ % ",
"& * = - ; : > , < * = - ; : > 1 & * = - ; : > , < * = - ; : > 1 ",
"2 3 4 5 6 7 8 9 6 3 4 5 6 7 8 0 2 3 4 5 6 7 8 9 6 3 4 5 6 7 8 0 ",
"q w e r t y u i t w e r t y u p q w e r t y u i t w e r t y u p ",
"a s d f g h j k l z x f c v b n a s d f g h j k l z x f c v b n ",
"m M N B V C Z A S m D F G H J K m M N B V C Z A S m D F G H J K ",
"L P I U Y T R E W U Q U ! R ~ ^ L P I U Y T R E W U Q U ! R ~ ^ ",
"/ ( ) _ ` ' ] [ { } |  ...X.o.O./ ( ) _ ` ' ] [ { } |  ...X.o.O.",
"+.@.#.$. .%.&.*.=.} -.( ;.:.>.,.+.@.#.$. .%.&.*.=.} -.( ;.:.>.,.",
"<.1.2.3.4.5.6.7.8.I +.+.I 9.0.q.<.1.2.3.4.5.6.7.8.I +.+.I 9.0.q.",
"w.e.r.t.y.u.i.p.a.s.d.f.g.h.j.k.w.e.r.t.y.u.i.p.a.s.d.f.g.h.j.k.",
"l.z.x.c.v.b.n.m.M.N.B.V.C.Z.A.S.l.z.x.c.v.b.n.m.M.N.B.V.C.Z.A.S.",
"D.y F.G.H.J.K.L.P.I.U.G.Y.T.R.E.D.y F.G.H.J.K.L.P.I.U.G.Y.T.R.E.",
"W.Q.!.~.6 : > ^./.(.# , 6 )._.`.W.Q.!.~.6 : > ^./.(.# , 6 )._.`.",
"'.Q.].[.{.}.|. X.XXXoX[.OX+X@X#X'.Q.].[.{.}.|. X.XXXoX[.OX+X@X#X",
"$X%X&X*X=X-X;X:X>X,X<X1X2X-X3X4X$X%X&X*X=X-X;X:X>X,X<X1X2X-X3X4X",
"  . X o O + @ # $ . X o O + @ %   . X o O + @ # $ . X o O + @ % ",
"& * = - ; : > , < * = - ; : > 1 & * = - ; : > , < * = - ; : > 1 ",
"2 3 4 5 6 7 8 9 6 3 4 5 6 7 8 0 2 3 4 5 6 7 8 9 6 3 4 5 6 7 8 0 ",
"q w e r t y u i t w e r t y u p q w e r t y u i t w e r t y u p ",
"a s d f g h j k l z x f c v b n a s d f g h j k l z x f c v b n ",
"m M N B V C Z A S m D F G H J K m M N B V C Z A S m D F G H J K ",
"L P I U Y T R E W U Q U ! R ~ ^ L P I U Y T R E W U Q U ! R ~ ^ ",
"/ ( ) _ ` ' ] [ { } |  ...X.o.O./ ( ) _ ` ' ] [ { } |  ...X.o.O.",
"+.@.#.$. .%.&.*.=.} -.( ;.:.>.,.+.@.#.$. .%.&.*.=.} -.( ;.:.>.,.",
"<.1.2.3.4.5.6.7.8.I +.+.I 9.0.q.<.1.2.3.4.5.6.7.8.I +.+.I 9.0.q.",
"w.e.r.t.y.u.i.p.a.s.d.f.g.h.j.k.w.e.r.t.y.u.i.p.a.s.d.f.g.h.j.k.",
"l.z.x.c.v.b.n.m.M.N.B.V.C.Z.A.S.l.z.x.c.v.b.n.m.M.N.B.V.C.Z.A.S.",
"D.y F.G.H.J.K.L.P.I.U.G.Y.T.R.E.D.y F.G.H.J.K.L.P.I.U.G.Y.T.R.E.",
"W.Q.!.~.6 : > ^./.(.# , 6 )._.`.W.Q.!.~.6 : > ^./.(.# , 6 )._.`.",
"'.Q.].[.{.}.|. X.XXXoX[.OX+X@X#X'.Q.].[.{.}.|. X.XXXoX[.OX+X@X#X",
"$X%X&X*X=X-X;X:X>X,X<X1X2X-X3X4X$X%X&X*X=X-X;X:X>X,X<X1X2X-X3X4X"
};
