/* XPM */
static char *wall_wood2[] = {
/* columns rows colors chars-per-pixel */
"32 32 201 2 ",
"   c #4C371C",
".  c #6A5131",
"X  c #6D5534",
"o  c #937A59",
"O  c #472F0E",
"+  c #8D7454",
"@  c #4A3211",
"#  c #69512E",
"$  c #6B5330",
"%  c #6D5532",
"&  c #79613E",
"*  c #947E5F",
"=  c #402F1A",
"-  c #685235",
";  c #705A3D",
":  c #3F290C",
">  c #452F12",
",  c #917A5D",
"<  c #4B3418",
"1  c #90795A",
"2  c #463011",
"3  c #665030",
"4  c #533D1E",
"5  c #766041",
"6  c #543E1F",
"7  c #8A7454",
"8  c #3B2A14",
"9  c #60492D",
"0  c #644D30",
"q  c #493215",
"w  c #675034",
"e  c #927C5D",
"r  c #432D0D",
"t  c #685233",
"y  c #776142",
"u  c #513B1B",
"i  c #7A6344",
"p  c #50391A",
"a  c #917B59",
"s  c #685741",
"d  c #4F381B",
"f  c #624C2F",
"g  c #483114",
"h  c #776144",
"j  c #786245",
"k  c #442E0F",
"l  c #483112",
"z  c #4C3617",
"x  c #776140",
"c  c #66553F",
"v  c #463013",
"b  c #6D563B",
"n  c #654E33",
"m  c #7A6346",
"M  c #6C5538",
"N  c #6F593A",
"B  c #4B3516",
"V  c #695334",
"C  c #917B5B",
"Z  c #452F10",
"A  c #8F7859",
"S  c #77623E",
"D  c #6A5944",
"F  c #5F482B",
"G  c #6A5339",
"H  c #685137",
"J  c #664F32",
"K  c #6A5435",
"L  c #856F50",
"P  c #7D6748",
"I  c #685231",
"U  c #62523A",
"Y  c #765F43",
"T  c #533C22",
"R  c #90795C",
"E  c #685336",
"W  c #442F12",
"Q  c #897255",
"!  c #5B4524",
"~  c #3F2A08",
"^  c #786243",
"/  c #493213",
"(  c #6E5837",
")  c #695941",
"_  c #453015",
"`  c #685338",
"'  c #8F7B5D",
"]  c #473315",
"[  c #412A0B",
"{  c #76603F",
"}  c #543E1D",
"|  c #644E2C",
" . c #786341",
".. c #6F5938",
"X. c #443216",
"o. c #6E5C3E",
"O. c #8B7556",
"+. c #483418",
"@. c #463212",
"#. c #877451",
"$. c #402D08",
"%. c #6A5732",
"&. c #6A5734",
"*. c #453111",
"=. c #755F3D",
"-. c #68553E",
";. c #927E5E",
":. c #4B3B1C",
">. c #655536",
",. c #6D5735",
"<. c #8D7856",
"1. c #493518",
"2. c #695537",
"3. c #402C0C",
"4. c #8C7856",
"5. c #493612",
"6. c #887552",
"7. c #473313",
"8. c #4B391F",
"9. c #786444",
"0. c #423213",
"q. c #665637",
"w. c #6C5634",
"e. c #422E11",
"r. c #614F33",
"t. c #453113",
"y. c #5E4B2B",
"u. c #968360",
"i. c #473411",
"p. c #695533",
"a. c #8F7C59",
"s. c #8C7655",
"d. c #422F16",
"f. c #403112",
"g. c #625334",
"h. c #705A39",
"j. c #483416",
"k. c #8F7D61",
"l. c #3F2B0D",
"z. c #604C2C",
"x. c #443010",
"c. c #6B5737",
"v. c #8B7757",
"b. c #927C5B",
"n. c #3F2C12",
"m. c #8F7B5B",
"M. c #3C2C0F",
"N. c #615134",
"B. c #907A58",
"V. c #402C0E",
"C. c #685738",
"Z. c #634F2F",
"A. c #8E7A5A",
"S. c #412D0F",
"D. c #6A5638",
"F. c #624E2E",
"G. c #8F7955",
"H. c #443218",
"J. c #6A5636",
"K. c #5B4B2F",
"L. c #655538",
"P. c #7A6442",
"I. c #4F3B1D",
"U. c #6D5B3D",
"Y. c #6C5937",
"T. c #624E2C",
"R. c #655134",
"E. c #897558",
"W. c #907D5B",
"Q. c #3F2C07",
"!. c #402D13",
"~. c #685434",
"^. c #8B7B5E",
"/. c #433316",
"(. c #523D20",
"). c #433113",
"_. c #85714F",
"`. c #675331",
"'. c #8E7A5C",
"]. c #402C10",
"[. c #645034",
"{. c #766144",
"}. c #45310F",
"|. c #67532F",
" X c #594D36",
".X c #5F533A",
"XX c #6F654D",
"oX c #40331C",
"OX c #5E4D33",
"+X c #625437",
"@X c #5B5837",
"#X c #383715",
"$X c #5F5637",
"%X c #695B40",
"&X c #64563F",
"*X c #3A2B17",
"=X c #5E513C",
"-X c #645740",
";X c #5F5236",
":X c #726248",
">X c white",
/* pixels */
"  . X o O X + @ # $ % & % & # *   . X o O X + @ # $ % & % & # * ",
"= - ; : > , < - 1 2 3 1 4 5 6 7 = - ; : > , < - 1 2 3 1 4 5 6 7 ",
"8 9 0 q - , > w e r t y u i p a 8 9 0 q - , > w e r t y u i p a ",
"s d f g h j > w 1 k t 1 l e z x s d f g h j > w 1 k t 1 l e z x ",
"c v b n h m M w N B V C Z A Z S c v b n h m M w N B V C Z A Z S ",
"D F G H , w w J K Z t L k P 2 I D F G H , w w J K Z t L k P 2 I ",
"U Y T b R f E W Q k 5 ! ~ ^ / ( U Y T b R f E W Q k 5 ! ~ ^ / ( ",
") , _ ` , v ' ] , [ { } |  .r ..) , _ ` , v ' ] , [ { } |  .r ..",
"U ' X.o.O./ E +.E @.#.$.%.&.*.=.U ' X.o.O./ E +.E @.#.$.%.&.*.=.",
"-.;.:.>.,.<.1.` 2.3.4.5.%.6.7.x -.;.:.>.,.<.1.` 2.3.4.5.%.6.7.x ",
"8.9.0.q.w.<.e.r.t.y.u.i.p.a.l s.8.9.0.q.w.<.e.r.t.y.u.i.p.a.l s.",
"d.9.f.g.h.a j.k.l.z.;.x.c.v./ b.d.9.f.g.h.a j.k.l.z.;.x.c.v./ b.",
"n.m.M.N.( B.V.C.x.Z.A.S.D.F.*.G.n.m.M.N.( B.V.C.x.Z.A.S.D.F.*.G.",
"H.J.K.L.I P.I.U.Y.T.R.W 2.E.W.Q.H.J.K.L.I P.I.U.Y.T.R.W 2.E.W.Q.",
"!.~.^./.(  .(.)._.`.'.].[.{.}.|.!.~.^./.(  .(.)._.`.'.].[.{.}.|.",
" X.XXXoXOX+X@X#X$X%X&X*X=X-X;X:X X.XXXoXOX+X@X#X$X%X&X*X=X-X;X:X",
"  . X o O X + @ # $ % & % & # *   . X o O X + @ # $ % & % & # * ",
"= - ; : > , < - 1 2 3 1 4 5 6 7 = - ; : > , < - 1 2 3 1 4 5 6 7 ",
"8 9 0 q - , > w e r t y u i p a 8 9 0 q - , > w e r t y u i p a ",
"s d f g h j > w 1 k t 1 l e z x s d f g h j > w 1 k t 1 l e z x ",
"c v b n h m M w N B V C Z A Z S c v b n h m M w N B V C Z A Z S ",
"D F G H , w w J K Z t L k P 2 I D F G H , w w J K Z t L k P 2 I ",
"U Y T b R f E W Q k 5 ! ~ ^ / ( U Y T b R f E W Q k 5 ! ~ ^ / ( ",
") , _ ` , v ' ] , [ { } |  .r ..) , _ ` , v ' ] , [ { } |  .r ..",
"U ' X.o.O./ E +.E @.#.$.%.&.*.=.U ' X.o.O./ E +.E @.#.$.%.&.*.=.",
"-.;.:.>.,.<.1.` 2.3.4.5.%.6.7.x -.;.:.>.,.<.1.` 2.3.4.5.%.6.7.x ",
"8.9.0.q.w.<.e.r.t.y.u.i.p.a.l s.8.9.0.q.w.<.e.r.t.y.u.i.p.a.l s.",
"d.9.f.g.h.a j.k.l.z.;.x.c.v./ b.d.9.f.g.h.a j.k.l.z.;.x.c.v./ b.",
"n.m.M.N.( B.V.C.x.Z.A.S.D.F.*.G.n.m.M.N.( B.V.C.x.Z.A.S.D.F.*.G.",
"H.J.K.L.I P.I.U.Y.T.R.W 2.E.W.Q.H.J.K.L.I P.I.U.Y.T.R.W 2.E.W.Q.",
"!.~.^./.(  .(.)._.`.'.].[.{.}.|.!.~.^./.(  .(.)._.`.'.].[.{.}.|.",
" X.XXXoXOX+X@X#X$X%X&X*X=X-X;X:X X.XXXoXOX+X@X#X$X%X&X*X=X-X;X:X"
};
