/* XPM */
static char *wall_wood[] = {
/* columns rows colors chars-per-pixel */
"32 32 148 2 ",
"   c #ADA362",
".  c #A3824F",
"X  c #A1814E",
"o  c #B89764",
"O  c #BA9A65",
"+  c #B2915D",
"@  c #A0804B",
"#  c #BA9A63",
"$  c #B99962",
"%  c #B6965F",
"&  c #9C835A",
"*  c #ADA065",
"=  c #BB9C6B",
"-  c #AD8E5D",
";  c #7C5D2C",
":  c #B09161",
">  c #A28451",
",  c #A1834F",
"<  c #9F804D",
"1  c #9F814B",
"2  c #B2955F",
"3  c #A38550",
"4  c #B1935E",
"5  c #B89A65",
"6  c #9B845C",
"7  c #AF9E6B",
"8  c #B59B6B",
"9  c #9D8252",
"0  c #9F8555",
"q  c #9A8050",
"w  c #A88E5E",
"e  c #AF9565",
"r  c #795E2E",
"t  c #B69C6C",
"y  c #AD9363",
"u  c #B49A6A",
"i  c #96835E",
"p  c #6D5426",
"a  c #6D5323",
"s  c #6B5020",
"d  c #7A5F2F",
"f  c #7B6131",
"g  c #775D2D",
"h  c #6F5525",
"j  c #705626",
"k  c #725F3A",
"l  c #A3824D",
"z  c #A4834F",
"x  c #BA9967",
"c  c #BB9A68",
"v  c #7F5E2B",
"b  c #B39262",
"n  c #B29161",
"m  c #AF8E5E",
"M  c #B09873",
"N  c #A38153",
"B  c #7D5D28",
"V  c #AF8F5A",
"C  c #B2915F",
"Z  c #B39260",
"A  c #B18F5F",
"S  c #A48353",
"D  c #A18050",
"F  c #9F7E4E",
"G  c #9D8361",
"H  c #B9976C",
"J  c #B89A69",
"K  c #B69766",
"L  c #AF905F",
"P  c #B79868",
"I  c #A28355",
"U  c #A08054",
"Y  c #A3835A",
"T  c #7D5D33",
"R  c #B5956B",
"E  c #B7976E",
"W  c #B6966C",
"Q  c #B99A70",
"!  c #B39A7C",
"~  c #7D5B32",
"^  c #7B5B2D",
"/  c #725325",
"(  c #715224",
")  c #6A4B1D",
"_  c #745426",
"`  c #705123",
"'  c #795A2C",
"]  c #7D5D31",
"[  c #7C5C32",
"{  c #725329",
"}  c #715128",
"|  c #745E3E",
" . c #B9956A",
".. c #BA9969",
"X. c #BB9A6A",
"o. c #B99868",
"O. c #805F2F",
"+. c #B49363",
"@. c #9C8461",
"#. c #A48257",
"$. c #A28353",
"%. c #B99B6A",
"&. c #AE8F5E",
"*. c #A18251",
"=. c #A38554",
"-. c #9F804F",
";. c #7D5E2D",
":. c #97805A",
">. c #B59A71",
",. c #AB9060",
"<. c #B29767",
"1. c #B79D6D",
"2. c #9E8453",
"3. c #A08656",
"4. c #AE9464",
"5. c #998661",
"6. c #7A5D32",
"7. c #6E5424",
"8. c #765C2C",
"9. c #715E39",
"0. c #BB9B66",
"q. c #B89762",
"w. c #B29B73",
"e. c #B3905F",
"r. c #A1814C",
"t. c #7C5C27",
"y. c #B69661",
"u. c #A58550",
"i. c #B99864",
"p. c #B3935E",
"a. c #A68651",
"s. c #AB926B",
"d. c #B59667",
"f. c #A08150",
"g. c #B39B78",
"h. c #795D36",
"j. c #795D32",
"k. c #7A5F33",
"l. c #7E6338",
"z. c #6D5227",
"x. c #70552A",
"c. c #7C6136",
"v. c #6C5125",
"b. c #72562B",
"n. c #54390E",
"m. c #6F5429",
"M. c #76603F",
"N. c white",
/* pixels */
"  . X X X o O + @ O # $ % $ $ &   . X X X o O + @ O # $ % $ $ & ",
"* = - ; : : > , < , 1 2 3 4 5 6 * = - ; : : > , < , 1 2 3 4 5 6 ",
"7 8 9 9 0 q w e r 8 t y u t 8 i 7 8 9 9 0 q w e r 8 t y u t 8 i ",
"p a s d d r f g g d h a j a r k p a s d d r f g g d h a j a r k ",
"= l z @ . x x . c . X v b n m M = l z @ . x x . c . X v b n m M ",
"N @ B V C Z x X C m A m S D F G N @ B V C Z x X C m A m S D F G ",
"H J K L P P J I U Y T R E W Q ! H J K L P P J I U Y T R E W Q ! ",
"~ ^ / ( ) _ ` ' ] [ { } } { T | ~ ^ / ( ) _ ` ' ] [ { } } { T | ",
" .....X.o.O.D X.X.+.b m o.X.o.@. .....X.o.O.D X.X.+.b m o.X.o.@.",
"#.D $.$.$.%.: &.*.=.-.;.%.*.*.:.#.D $.$.$.%.: &.*.=.-.;.%.*.*.:.",
">.,.y ,.<.1.9 9 2.3.4.4.4.y e 5.>.,.y ,.<.1.9 9 2.3.4.4.4.y e 5.",
"6.7.r f h a 7.8.d d d r a a 7.9.6.7.r f h a 7.8.d d d r a a 7.9.",
"..0.q.O O z 0.z l B z l V O q.w...0.q.O O z 0.z l B z l V O q.w.",
"e.r.t.y.0.O 0.u.i.p.p.l a.@ z s.e.r.t.y.0.O 0.u.i.p.p.l a.@ z s.",
"d.J *.-.=.P J f.= K f.L P = P g.d.J *.-.=.P J f.= K f.L P = P g.",
"h.j.k.l.z.x.c.v.k.k.j.b.n.m.m.M.h.j.k.l.z.x.c.v.k.k.j.b.n.m.m.M.",
"  . X X X o O + @ O # $ % $ $ &   . X X X o O + @ O # $ % $ $ & ",
"* = - ; : : > , < , 1 2 3 4 5 6 * = - ; : : > , < , 1 2 3 4 5 6 ",
"7 8 9 9 0 q w e r 8 t y u t 8 i 7 8 9 9 0 q w e r 8 t y u t 8 i ",
"p a s d d r f g g d h a j a r k p a s d d r f g g d h a j a r k ",
"= l z @ . x x . c . X v b n m M = l z @ . x x . c . X v b n m M ",
"N @ B V C Z x X C m A m S D F G N @ B V C Z x X C m A m S D F G ",
"H J K L P P J I U Y T R E W Q ! H J K L P P J I U Y T R E W Q ! ",
"~ ^ / ( ) _ ` ' ] [ { } } { T | ~ ^ / ( ) _ ` ' ] [ { } } { T | ",
" .....X.o.O.D X.X.+.b m o.X.o.@. .....X.o.O.D X.X.+.b m o.X.o.@.",
"#.D $.$.$.%.: &.*.=.-.;.%.*.*.:.#.D $.$.$.%.: &.*.=.-.;.%.*.*.:.",
">.,.y ,.<.1.9 9 2.3.4.4.4.y e 5.>.,.y ,.<.1.9 9 2.3.4.4.4.y e 5.",
"6.7.r f h a 7.8.d d d r a a 7.9.6.7.r f h a 7.8.d d d r a a 7.9.",
"..0.q.O O z 0.z l B z l V O q.w...0.q.O O z 0.z l B z l V O q.w.",
"e.r.t.y.0.O 0.u.i.p.p.l a.@ z s.e.r.t.y.0.O 0.u.i.p.p.l a.@ z s.",
"d.J *.-.=.P J f.= K f.L P = P g.d.J *.-.=.P J f.= K f.L P = P g.",
"h.j.k.l.z.x.c.v.k.k.j.b.n.m.m.M.h.j.k.l.z.x.c.v.k.k.j.b.n.m.m.M."
};
