/* XPM */
static char *db4dfb9841884f33aff384504170ff3fMlcsULFMWaUnT5aU[] = {
/* columns rows colors chars-per-pixel */
"16 16 10 1 ",
"  c #030307",
". c #040307",
"X c #030308",
"o c #03050A",
"O c #040509",
"+ c #111017",
"@ c #1C1C24",
"# c #282B31",
"$ c #373C40",
"% c #47494D",
/* pixels */
".#$$$$$$$$$$$$$%",
".@#############$",
".@#############$",
".@#@@##########$",
".@#@@########$#$",
".@#############$",
".+@@@@@@@@@@@@@#",
"................",
"$$$$$$%o#$$$$$$$",
"######$O@#######",
"######$o@#######",
"######$o@#######",
"####$#$o@#@#####",
"######$X@#######",
"@@@@@@# +@@@@@@@",
"................"
};
