/* XPM */
static char *sprite_1281714039427[] = {
/* columns rows colors chars-per-pixel */
"64 64 152 2 ",
"   c #0A0502",
".  c #0D0903",
"X  c #140C05",
"o  c #1A0E06",
"O  c #160E08",
"+  c #1B0F08",
"@  c #171006",
"#  c #1C1106",
"$  c #1C1109",
"%  c #221206",
"&  c #281606",
"*  c #2D1806",
"=  c #23140A",
"-  c #2A160A",
";  c #26180D",
":  c #2C190B",
">  c #341C0B",
",  c #391D0C",
"<  c #261910",
"1  c #2C1C11",
"2  c #331E11",
"3  c #35200E",
"4  c #3D210D",
"5  c #2E2115",
"6  c #352113",
"7  c #3B2414",
"8  c #37231B",
"9  c #3D2719",
"0  c #3E291A",
"q  c #411E0F",
"w  c #43240D",
"e  c #49260E",
"r  c #45280E",
"t  c #4C2A0E",
"y  c #532C0E",
"u  c #592F0E",
"i  c #56310F",
"p  c #5B320E",
"a  c #432511",
"s  c #492610",
"d  c #452912",
"f  c #4C2A12",
"g  c #432A1A",
"h  c #4B2D1B",
"j  c #532D12",
"k  c #592E12",
"l  c #522F1A",
"z  c #47311E",
"x  c #4E321C",
"c  c #563114",
"v  c #5B3312",
"b  c #54351C",
"n  c #5A361B",
"m  c #55391D",
"M  c #5A3A1D",
"N  c #63350E",
"B  c #69370E",
"V  c #65380F",
"C  c #6B390E",
"Z  c #733C0E",
"A  c #793F0F",
"S  c #602F13",
"D  c #623512",
"F  c #683611",
"G  c #653913",
"H  c #6A3A12",
"J  c #633619",
"K  c #633B1C",
"L  c #6C3C1A",
"P  c #733E12",
"I  c #7B3F14",
"U  c #723E18",
"Y  c #4E3420",
"T  c #513820",
"R  c #603F20",
"E  c #683C22",
"W  c #77430F",
"Q  c #7A410F",
"!  c #65411D",
"~  c #6C431D",
"^  c #6E481D",
"/  c #764113",
"(  c #7C4313",
")  c #7F4811",
"_  c #72451C",
"`  c #7B4319",
"'  c #74491D",
"]  c #7C4D1D",
"[  c #7F511D",
"{  c #6C4022",
"}  c #764420",
"|  c #754A20",
" . c #83450F",
".. c #824513",
"X. c #8C4615",
"o. c #854A14",
"O. c #8C4C14",
"+. c #824718",
"@. c #8A4718",
"#. c #844C1A",
"$. c #8C4C19",
"%. c #924E14",
"&. c #9B4E17",
"*. c #944D18",
"=. c #9A4E18",
"-. c #8D5113",
";. c #85521D",
":. c #8C551D",
">. c #945215",
",. c #9B5415",
"<. c #9E5815",
"1. c #965318",
"2. c #9B5418",
"3. c #9D5818",
"4. c #A25514",
"5. c #A35A15",
"6. c #AB5B14",
"7. c #A25518",
"8. c #AA551A",
"9. c #A25918",
"0. c #AA5B18",
"q. c #B35D13",
"w. c #BA5E17",
"e. c #B15618",
"r. c #B35B19",
"t. c #BA5D1A",
"y. c #A66015",
"u. c #AA6116",
"i. c #A86019",
"p. c #BB6414",
"a. c #BA6916",
"s. c #B36518",
"d. c #BD611A",
"f. c #864C20",
"g. c #8A4E21",
"h. c #825220",
"j. c #915221",
"k. c #995620",
"l. c #9B5822",
"z. c #A35A20",
"x. c #C05D18",
"c. c #C16617",
"v. c #C46C16",
"b. c #CB6F16",
"n. c #C4641A",
"m. c #CB671C",
"M. c #C36A19",
"N. c #CB6A1A",
"B. c #D36D1B",
"V. c #CC7016",
"C. c #C97019",
"Z. c #DC751A",
/* pixels */
"f > - > = : j J D a , a 2 2 j U _ ` L c > : = o , j n c d H o.O.O.O.O./ t 4 D o.5.6.6.6.i.u.u.5.5.<.O.o./ ( ,.5.5.5.5.,.O./ P D ",
"> - > > = = f J J j - ; : : 2 f f d > = $ # + = a l c n f H O.O...( H t > y / -.5.6.u.6.6.6.>.O.o.Q P W ( o.>.5.y.u.6.-.C y j e ",
"- : , : + = 2 f j a , f k a = : ; $ $ # $ $ # = a l K K e v ..o./ v w * > V ( >.<.,.4.6.<.o./ P H G N H F H H B Z Q C t w q w > ",
"- 2 2 + + : : : : s U ..( / D j : r v V G j > ; > f K n r c H H e * = = > p / ( ( P Z P P H V j y e y v D D p k t w w , , , > = ",
"> - $ : r f 1 $ 3 / ) o...o.o./ t r C / / / v 7 - - , , a j r 4 - o + = ; t H H D N k u t j t a w a e s s e y t q , , > > * - - ",
"> = > v v t = $ 7 / o.) ) -.>.o.W r t C / / / i > = = = > w , > - - - + $ w j e u u y e e e q s k D F P I I P D q > > : & - 2 , ",
"- > t e r 4 = $ t / / W W -.>.-.-.W y i G / / v j > = = = > > * - > : = $ > e t t u k w 4 s v ..*.1.,.,.,.,.,.%.Q k a , , , , : ",
", e e t y y > = t p C W ( ..o.O.>.-. .! t i p c e d : $ o = - 4 w e 4 - # : e c v v j , s P O.3.,.3.2.2.1.3.,.,.*.H s a a , - % ",
"y B  .%.>. .u & 4 V W o.-.O.Q  .-.>.O.o./ V y t e r 7 = # = * e N N t - + + , s j s , a H 1.9.9.4.2.3.2.2.2.4.,...F j a > - % , ",
"A %.6.6.6.4.Q * r W >.q.6.4.>.-. .O.>.-.-.o.V i r w , + = > w C I ( k : = = = - , , q l U 2.0.0.7.2.3.7.7.,.,...F v j , = + , Z ",
"%.6.6.6.6.4.%.4 V >.y.6.6.4.4.>.O. .o.%.>.O.( C y 3 * X = 4 p / ../ k > : ; = ; > , a j n U 2.0.7.3.3.7.1.O.I N k s > = o w Q 4.",
"4.q.q.q.6.6. .y / >.q.6.4.4.4.>.O.O.Q W o.O.o.) W 4 & o = j P ( ( P w 2 2 > - > a : : , a g k P $.1.*.+.P D j s a : = o * Q 4.6.",
"q.q.c.p.q.6.%.p C %.6.6.,.,.4.>.O.o.o.( / ..o.-.W r # X - y D i v y - : , , - , , ; = = = - , , a f e a q , * - % o o & Z 4.6.w.",
"6.q.c.p.p.6.4. .C W -.,.4.4.4.>.O.O.>.>.( Z  .O.Z w . o > t t w w > = - 2 2 - q w > > : % = = - * > > * - = % + o o # p ,.4.q.p.",
"q.q.p.p.p.6.4.O.C C C W -.,.,.>.O.>.<.,...Z o.>.Q 3 X = , w , - - - & % : : + , P H a w > - = o + & = = % % = o o o w O.&.6.p.M.",
"6.p.p.q.4.4.,.O.p p B Z  .%.>.%.>.,.4.>./ / >.>.C , o - : , * * , w e q : : + - ..2.( j , , > * o X o o + + o o o * N O.6.p.a.d.",
"q.q.c.q.,.%.%.A r u B Q Q o.O.-.>.>.>./ H ) >./ w # & = * 4 r t H I / ( k ; = & D L U I H k w w - . o % = & + o + q H &.q.q.v.v.",
"q.p.v.p.,.%. .Z y y p W W  .o.O.../ C G H W C y : & > : s D / ` ..O...#.D = = # j n c J U / U e > % o % % % % + % u ,.e.N.V.N.x.",
"q.q.p.q.4. . .B u 4 w B ( / H H V v G H B t r 3 = 4 w f H ..o...o.o.o.O.` f # % a c l c l f r > , * % o % > t e - t %.7.B.Z.Z.b.",
"-.%.%. . .Z Z B u w w p C G p p v v p i r 4 4 % : , v / ..o.( ( o.O.O.$.` G 7 % > a a , > ; - - * * , e u D I k > , ..%.&.t.B.Z.",
"Q A B B B B B N u t r y y y t t t r w 4 3 3 & * > w ( $.O.o.P ( ..O.O.#.` L v > = - w D X.=.=.@.Z S G P @.%...j > - f 1...+.=.t.",
"Z B B B B Z B y r y t e r r r w 4 , * * * # # 3 > v ..$.$.O.o.( ......( / L D f f P 4.t.t.n.n.t.7.X.=.r.d.8.` v q > > G ` / ` +.",
"B B B B B B p w 4 r y y t t y y y t t > & o * , 4 L $.$.O.o...( ( O...( H D j 4 X.n.m.m.n.t.8.=.*.8.t.n.r.#.H J s , : , v ` / ` ",
"u u p p N y w , 4 r y p p B N p p y r 4 & & = & e ` #.O.o.( ......o...P D k , y 8.B.B.m.8.X.+.*.e.t.t.7.P G J H j w , > f D U ` ",
"u u u u t w w w w w y u N V V p t w 4 , - - = = r / ` ( ( ( ..o.......P k t q Z t.N.n.&.H I 7.t.t.r.$.I I X.X...I k q , , e G U ",
"t r w , * , , , , w 4 4 4 t t w w 4 , # > 7 + = r P ( / P ( ..O.( ....P f , y ( 7.=.I P ( r.m.n.0./ I 4.t.e.e.%.I k q q , > w D ",
"t u u t w , , , > * * * * > 4 , 3 : X * a : = - 4 / ` / P ( ..O.( ....D w , t N P B I O.r.N.N.8.@.` 8.n.n.r.8.&.I k q > > : : w ",
"w y y y y u t , * & * * * * & # o @ $ * 2 > = = > i H H A ( ......( U y * > > q N I 4.d.N.m.r.$.@.8.n.n.q.e.r.8.P k e > : > : : ",
"X , w w e y y * * w t u D D v v t w w , , > - - - , t u k p N N v N u , * w w B 7.t.d.m.n.t.&.@.7.x.n.w.r.t.t.X.S j , > : : - = ",
"# * w e w e w , i C P ( ......( ( ( P D y q - > > * > e y t e e r , * % u  .&.q.m.n.M.n.n.r.@. .e.t.n.x.d.x.&.D t q > - > % + o ",
"o X X , t p B Q O.O.O.O.O.$.O.O.O.O.O.O...( D t a 7 , , , > , q , * & * %.n.v.n.n.n.n.n.n.*.u X.w.N.N.n.x.7.D q > - > - + X X - ",
"r t t , w Z O.%.%.O.%.%.%.%.O.%.%.%.O.O.O.@.P v 4 q e q , > > - * , * , X.t.n.n.n.m.n.t.=.f e X.N.Z.m.w.&.N q > - > % X . . . o ",
"t D G V 1.9.1.1.1.1.2.1.1.1.1.1.1.1.1.*.*.%.#.H ; r P H p j , : , t t , t I 4.d.c.t.r.*.u > t 4.m.m.r.O.D w > - $ o   . X @ X o ",
", y i 5.v.9.2.2.2.3.3.3.9.9.9.3.2.1.2.2.2.*.$.` : y >...P D s : e i y > & 4 y H U ( I i > * k *.8.=.I k e 4 ; o .   o + # $ $ $ ",
", w O.C.s.3.3.7.9.7.9.0.i.i.i.9.3.3.3.7.3.9.*.#.w k ,...P F t * y i p w : : , > : > 3 : ; w s a e e q - = # . . X o $ $ $ $ $ = ",
"> N C.C.u.5.9.3.5.5.9.5.0.i.5.9.9.9.9.5.9.9.3.#.t y %.%.P H t > r i j , w r > = $ $ $ $ = o # + $ o + X     . @ + $ $ $ $ ; : ; ",
"t y.b.b.v.5.3.5.5.5.3.4.5.u.u.5.6.y.5.5.4.1.1.o.k a ` >.` C r , t > t 3 y y > # X X @ O . X X @ X X X .   . $ $ $ = : : 6 6 6 6 ",
"-.b.v.b.v.5.<.5.5.5.5.5.y.5.5.<.5.9.<.2.$.o.O.O.U a v ..o.V 4 3 w , : 3 p y = @ @ $ @ @ # $ $ $ $ $ $ o   $ ; = 5 : 6 6 7 7 7 7 ",
"v.v.v.V.a.u.5.5.5.u.u.s.u.1.-.>.>.1.>.$.O.$.$.O.) j 4 G ` V 4 > w w # $ : = @ # @ $ $ = ; = = ; 1 1 ; X   ; ; ; : 5 6 7 7 7 7 7 ",
"v.v.v.a.u.y.i.5.u.u.s.5.1.1.1.1.1.>.O.O.$.O.O.-.#.v : t H c 4 4 w t ; @ @ # @ @ $ ; ; ; ; 5 3 7 6 6 : o $ ; ; : 3 7 7 6 7 7 9 0 ",
"v.v.a.y.,.4.5.y.u.5.5.1.1.<.1.>.-.$.-.O.$.O.o.../ j = w D d 4 4 t t % @ @ $ ; 1 6 7 7 8 7 7 9 9 9 7 ; @ : 1 : > 6 6 7 7 9 g g g ",
"v.a.y.>.-.-.-.-.>.>.>.O.O.>.$.-.$.O.o.o.` ( / H G t ; ; f d e y w w # @ @ ; 6 7 g g g 9 g 7 9 9 9 9 = ; : : : 6 7 7 9 g g g g h ",
"-...Q ( Q ( W W P H H G H H H H H ~ C H G G v D J b ; $ 4 G H y 3 * . X @ 6 g g h g g g 9 g 9 g 9 6 ; : 1 : > 6 7 7 g g g h b n ",
"Z C P P P H H G D v D D v v v v v v v v v v v G J d = 4 v ` / y > & . . $ 9 g z h h h g g g g 9 9 3 ; : 1 1 6 6 9 g f b M M K ! ",
"H H H H H G D v v G D D v D D v D v v D G v G J c : = c Q o.W t > & . X ; g x x h h h h g g g a 9 1 ; : > 6 7 0 g b M ^ ' _ ^ _ ",
"D v G D D D G G G D D D D D v D D D D v p v v r , $ 4 H -. .p w > # . . 1 Y m m b h h h h h g 9 6 ; : : 6 9 g h b M ~ ' _ ' ' ' ",
"a s f f f j i v D D D D D v D D v D v v j r 4 3 > $ v ( O./ u 4 * # . $ 0 T m m b x x h h h g 9 1 ; 1 3 6 g h b M ~ _ ' ' ' ' ] ",
": > 3 4 d w 7 w j k k v v v v v v j d w 4 r c c r ; P ..o.N r 3 * X . ; Y x m m b b b x h h g 6 ; ; 3 7 g h b M ~ ' ' ' ' _ _ _ ",
"7 j H H / L D y 4 7 > 6 4 a 4 4 > > 7 f c v J v d 4 ` o.W i 4 , =   X 8 Y M m M b m m b T m g 1 ; 6 9 g x b M ~ _ _ ' ' ' ' ' ~ ",
"c F D G N D H H v r > 2 > : = ; = ; * d c v v c 4 r ..o.C t 4 3 @   < 0 m M m T m m m m M T 0 1 6 0 g b M M L ~ ' ' ' _ ' ' _ _ ",
"w y N G H H F i e , , , w > - ; : > 2 , 3 4 , > : t ` ( p 4 3 =   X 8 Y m m m b m m m M ! x 6 : g h m M M ~ ~ ' ' ' ' ' ' ' _ ' ",
"= > e y u y w ; = : : , , 4 q r a a f a r 6 : = ; t H C t 3 3 X   $ Y m m m m m m m m m R 9 ; 6 b M M ! ~ _ ' ' ' _ ' ' ' ' ' [ ",
"- o = * * ; : : 4 f y f j k f s f f l k f , - , 3 a y t w * # . . 5 Y T m m m b m M M ! z 5 : x K ! ! ~ ^ ' ' ' ' ~ ' ' ' ' [ [ ",
"2 = $ = ; < 6 y G H H U H H k f j k k k a > , h 6 a t 4 , % . . $ 0 x m m m b m b T ! ~ 9 1 g { _ ^ ^ ^ _ ' ' ' ' ' _ ' ' ' ] ] ",
", 4 f d 1 4 D ( ( ( / P I P D f j k v f q : g n f r r 3 * X   @ < g m m m m b m m m ~ R 6 2 M ^ _ ^ ^ ' ] ] ' ' ' ' ' ' ' ] ' ^ ",
"7 p H / , j U ( ( ( ( / / / c k v n c f 2 6 l l f w w , # . . @ 5 z m m m m m b b ! ' b 6 0 ! ' ] ] [ [ #.[ _ _ ' ' ' ' ' ' ! T ",
"e D D j > s P / ` ( ( ( ( H j J L S j , 1 T } h 4 7 6 $ . . O $ 8 x m m m m m m M ] ' g < g ^ ' ] ] #.;.;.;.| _ _ ' ' ' ' b 9 6 ",
"q y t , - a ( ....( ( ( P j n P U j 2 = 2 f.j.E ; : @ . . X O $ 0 m M m R m M ! ^ [ ~ 2 1 { ;.;.[ ;.;.;.;.;.;.' ' ' ;.{ 8 6 6 g ",
", , : - = a H ..o.o.( D k k J ..k 2 ; 2 E g.j.U ; # . . . . O $ m M m M m M M M _ [ b 1 6 ] :.;.;.;.;.;.;.;.;.:.:.;.L g g K K ~ ",
", , : % = s f k D G c f n H +.U : + g E g.g.j.K ; = $ X O O O $ m M M m m m m ! [ [ g ; x :.;.;.;.;.;.;.;.;.;.;._ h 8 T U ' ' ' ",
", , , * : j j j l f f k J ` +.a : h E g.f.l.$.: $ o $ = * : @ $ m m M M m m ! ' [ M 5 5 ] :.;.;.;.;.;.;.:.;.! h 8 g K ^ } ' ' _ ",
", , e 4 : q j j k k J L I ` j : b E g.f.k.k.j ; $ o = ; : 4 ; $ m m M M m ^ [ [ ' 9 : 0 h.;.;.;.;.;.:.;.| g 8 9 n ~ } _ _ ' ' [ ",
", , r 4 - > a q s S L L U n > s M ` k.i.z.J 2 = + + > > * r 3 $ 0 m m R ~ [ [ | h : < b ;.;.] ;.;.;._ m 8 5 h ~ { ~ _ ' | _ [ [ ",
"a , w w = - a f q q k S k , f L L } 1.$.U 2 ; + O ; a , : r r @ 6 m ! ' [ [ ~ z 8 ; 2 M ] ;.;.:.] T 0 5 1 g { L _ ' ' ' ' [ [ ' "
};
