/* XPM */
static char *sprite_081714039562[] = {
/* columns rows colors chars-per-pixel */
"64 64 110 2 ",
"   c #030302",
".  c #080605",
"X  c #0A0906",
"o  c #0D0B0A",
"O  c #110E0D",
"+  c #14110E",
"@  c #19140E",
"#  c #161310",
"$  c #1A1612",
"%  c #1D1915",
"&  c #1F1C18",
"*  c #211C17",
"=  c #221E19",
"-  c #281F1B",
";  c #252113",
":  c #26211B",
">  c #2A241E",
",  c #2D291E",
"<  c #31291F",
"1  c #2C2620",
"2  c #2E2921",
"3  c #332C25",
"4  c #382E27",
"5  c #362F28",
"6  c #382F29",
"7  c #373026",
"8  c #3A3226",
"9  c #373128",
"0  c #3B342B",
"q  c #3E382E",
"w  c #3F3A30",
"e  c #40372C",
"r  c #413A2E",
"t  c #443D32",
"y  c #493F33",
"u  c #49402F",
"i  c #474034",
"p  c #4B4236",
"a  c #4D4439",
"s  c #524734",
"d  c #534935",
"f  c #51463B",
"g  c #544B3D",
"h  c #594E3E",
"j  c #57503F",
"k  c #5A503E",
"l  c #61563F",
"z  c #574D40",
"x  c #594F41",
"c  c #575041",
"v  c #5C5244",
"b  c #5F5847",
"n  c #5F5849",
"m  c #615646",
"M  c #645946",
"N  c #6C5E47",
"B  c #625749",
"V  c #645A4A",
"C  c #6A5D4C",
"Z  c #6C5F50",
"A  c #6D614E",
"S  c #72644D",
"D  c #76684D",
"F  c #796B4E",
"G  c #6E6351",
"H  c #726652",
"J  c #756A54",
"K  c #7A6D55",
"L  c #776D58",
"P  c #7B6E58",
"I  c #7E7056",
"U  c #7D7159",
"Y  c #827355",
"T  c #83755C",
"R  c #89775B",
"E  c #85795E",
"W  c #8C7B5D",
"Q  c #907E5E",
"!  c #877760",
"~  c #8A7761",
"^  c #867B60",
"/  c #8B7C62",
"(  c #907E63",
")  c #957F68",
"_  c #92805E",
"`  c #8E8165",
"'  c #938364",
"]  c #998664",
"[  c #9E8B66",
"{  c #938469",
"}  c #998669",
"|  c #9C8B6C",
" . c #A08C67",
".. c #A18E6A",
"X. c #A4926C",
"o. c #A8946E",
"O. c #A59374",
"+. c #AA9473",
"@. c #AD9972",
"#. c #B39E75",
"$. c #B79E7E",
"%. c #B5A077",
"&. c #B6A37B",
"*. c #BAA479",
"=. c #B6A480",
"-. c #C6B485",
";. c #CAB485",
":. c #C9B98C",
">. c #D0BC90",
",. c #D6C296",
/* pixels */
"    % , r e < r 8 < , 8 r r u u 0 e 8 8 e u s u r u , ; , < , 8 8 < e e < < 8 < ; > < 8 8 r u u u u y r u d p u r < < < , ; 8 u ",
"  o g Q ]  . ._ _ Y I D D F F F Y Y d r Y _ _ _ _ _ R d r s N D Y W _ _ _ Y Y Y A l A Y [ _  ._ Q S u s D I Y F Y Y Y Y Y Y Y M ",
"  = 4 F [ _ _ ' _ ] ] ] ] _ ] [  .o._ r F  ._ _  .X._ d M o.o.X.X. . ._  . . ._  .W D A D Y Y Y Y Y Y _ ] ] ] ' _ _ _ _ _  .] N ",
"X > > e I X.' _ [  .o.@.@.@.@.%.*.;.-.k s F Y Y F M r < k *.-.$.o.X.X. . . . . .[  ._ W Y Y Y _ [ o.o. .] ] ] } X. .X.o.*...S r ",
"o 1 2 9 z U U J J I U U I I U U U T | ` l v v v y - > 6 y ( :.@.' ` W T _ U E E ! / / W ! T Y P D F L H H H G U U U J ^ #.A 3 3 ",
"o 2 7 9 i v n n b b V v b b b b n V C L S v f p q < 9 r m P E K H A C V A b b A V V C C B B n n M M n V M M V n V n v b S p 6 3 ",
"X 2 9 q a v n n n n n b n b b b v n n C H C j s r 0 r h S C x g c b b b b b k b v n v v v v B n v b v b b b b v v b n V B p q 3 ",
". 2 3 q a n V V V V V V V V V n V n n C C H I v 4 q h C C x g x b n M b v v b c b v v v B v v v v v v v c b c v v b v V C a q 2 ",
". 1 5 q y B B Z V V V V V B B m n B B V V G L v r x B m x x x x v v v z z g z g z x x x x x v v x x x B v v x v v v v V V a q 2 ",
". 1 3 q z B B B n V B b v v v v v v v B n V A p a B x x x z x x z z z f g f g g g f g g z z v v v B x x v v v v x v v n n a q 6 ",
"X 1 5 e f B B B V B v x v v x v v v v v V C B t g m z z x x z z z z z f g z g g z f f z z z x v x v z x x v v v v v v B v y q 3 ",
". 1 6 q z B B Z G G V v v x x m v v b V n z a q g x x x x x z z z z z v x z x z x x x x z x n B B B Z B B x v x v v v n v y q 2 ",
"  = 9 w f Z Z Z H P J Z v v B B V V V f 9 i c 7 f m x x x x x v v z v x v x x v x x v v v v B Z H Z T T L B x v v v v n z y q 3 ",
"  & 9 w f Z J P P J Y H v z 6 3 0 0 2 & % q 9 $ - y f f y z a y t t t i r t t t t y t t y y t z f f y z J Z v v v v v v z t w 2 ",
"  # 9 t f H T J J J P P Z y % O + o O O $ % % % # $ = & & & & & = & = & % & & & * = = & & = = = & # o O y Z v v v v v v z y q 3 ",
"    3 0 a Z P P P P P ~ Z t $ o X o # $ $ & & : & % % % # # # $ $ % % % * & & & = - = = = & & & & # o o 1 B B z v v v v c p q 3 ",
"    , 6 t f v H P P P ) Z e # o # % & & & - 1 1 1 1 1 1 2 1 - 1 1 1 2 3 2 3 3 5 3 2 1 1 1 1 1 1 1 1 - & - v B x v v x v v a e 5 ",
"    2 4 3 5 t x J L L ~ T y # O = 1 1 1 2 5 6 0 6 3 3 2 6 0 6 6 6 6 6 5 5 3 6 6 5 5 6 5 1 2 1 3 5 5 3 - 5 B B x v v v B B y 0 5 ",
"  X 6 9 2 1 5 y Z Y J ! ~ y # # 1 0 6 3 3 5 0 w q 0 q q t a y t t t t w 5 0 6 0 0 0 w 0 9 9 0 w 6 6 5 1 6 Z Z v v v v v v a w 5 ",
"  % t y e 3 3 r B L L T ) y # % 2 e 0 6 0 w t y t t t e t f z a t z y w w w t t t t t t t w t t i t w 1 w Z Z v v v v v v y w 3 ",
"o = y x h y 4 e x P P T ~ y $ % 3 t q q w t y y y t t t t f g f a a a w 0 a y t a w y t i i i i i t t 5 w L H x v v v v v a w 1 ",
"o * 6 x F S y e x H P H J f * * 3 t e q 0 t t z f a a t y f g g z i t 6 w a a z z z t z p i y t i i t 3 t T L x v v v v c a w 2 ",
"o & 2 y R } v r x Z Z H J z % % 3 y y t e t a z g x x f t f m M z t 6 y z y z z z z z z a a a p a z a 5 t ~ P v x v x v v a w 3 ",
"o * 2 r Y +.Q C B C Z Z J y % $ 5 a a y y z v v C N M x t e v g w 0 w v z z z y z z y z f z a a z x z 5 y ~ ~ x x v v v b a w 2 ",
"o = 3 t D W _ Y S C C G J p & % 3 x g g k V A C A S A M g 0 9 3 w w m v x x x x h f z z f z a g x z z 3 y ( ! v x n z z z y w 6 ",
"O = 3 p H K A A G A A H J p * % 2 g h m M A A N A A A C V a 0 r w g H m v v v v z g g f z f g g x x f 1 0 / ! v z z y 0 : - 3 0 ",
"o = 6 p H H M V G A A G H t * % 2 f v m V A A A C A N N N B g f q z J C B V V v v z z g g g g z v x y = 0 T T x z y 0 5 : 1 2 1 ",
"O - 6 p A A C A A G G H G t * & > s l M V C A A A C S H S C M f 5 y P C C C V V B v x z z g z z v v e = 4 V Z z t t v H C c w & ",
"O 1 9 t V G A G G A G G G t = & > y m V C S H A A C S K K S H v 2 0 P J C C V C V m v v z x x v v c 2 - 3 t y q 7 M W ` U A a 9 ",
"o 1 9 0 v G A A G C G H G q - * 1 q m H H K L D A A A K U H K v 3 e H J Z C C C C B m m v v v m v t 3 2 > 3 9 > a Y _ _ U g 3 7 ",
"O 1 0 w v H H A Z Z A G Z q * = 1 q v T K L K J A A A K P K K v 3 e P K A C C C C V B v m B m B h e t 3 - : , y H I I E J i , : ",
"o 2 9 w j V G Z Z A G G G w = * > w v / K L L H A A S H U R P v - t E P A Z C G C C C m m m V v t 2 0 2 > 3 0 Z S M M J F q 2 : ",
"o 2 6 9 a b n C Z G G G A w & & , q b E U J K K J C S J I T P g = t ~ P Z C G C A C V V v v V f t # : : 3 N R K M m v N S t 2 = ",
"o , 3 9 p g g z v V A g 7 7 = & 2 q c E U J K K K H C J U T H p 3 y Z P H Z C G C A C V b C v t p & = & 0 } ) C m x h m V y 2 * ",
"o > 9 9 p g g g g a i 9 7 3 & = > 0 c E I J K J K J Z J U E c 9 0 q f Z H H Z C A A A A v p 2 2 t 2 > % y R N v m v x m C t , * ",
"X 1 q r c J U U P U L H c 3 % : > 9 j ` ' U J L K L C K T M 9 2 6 t q z C G G H A C A c 0 = # > 9 2 = % f C m m x x v m C t 1 * ",
". 1 0 0 M O.O./ J L L U L q % , > 3 a R O.{ P L K J A P H 9 q 7 9 t q 9 f V B x p p p 7 = # % 0 a 0 $ % h A m m v x v m V t > : ",
"  - 6 6 b E J V C V C A H w & 3 3 3 t M W O.{ K K H H K p 9 q 3 9 y a q 6 q a y t i q 2 : 9 g C v r = = v C m v v h v v M t > : ",
". $ 1 2 j U G A V V C C V w : 8 q 6 r p b U E H A A A h 2 w 0 3 t a t q 9 t p t i i a a c H H V j q & : m V m h v h c c b i > : ",
"  X = 1 a U L H H A C V A q > 8 i 9 q t a f f h f f f 9 6 t 0 6 q 9 t f v V B B b V V A A V C v a q % : M C l h v v j v M i > : ",
"  . * = f ! P J J H G A V w : q s r r t t i a a p a a a t 0 3 3 t x V C V Z V V V V V V V M V v a q % > C N m h x x v x C a > = ",
"  o & * A ' J H H J H J G 0 : r g y r t t i a g z z x v i 9 2 t M C C C A A V V V V V V V V V c a e * , M V h v v v x x C s > = ",
"  o & q W / A H J G H J L q = w h u t t w a c b B B Z V z q y B K J G H H J H G G Z H J A n n c a t * - M V h h h h x x C a > : ",
"  o 5 m X.U G G J G J J L 9 = q f r t a t i g c v V V V v z B P ~ J G H J H J H J L L H C V n z p y $ * M m m x v v h x V p > = ",
"X > q v | L G H H H J L L q & 7 u 8 t j a i f c v V Z V z f V ! ! G G J H J G J L J H A n V n z a t o = C v x x v v z z V p : : ",
"X , 9 s { L G H H J H J I q % , 7 3 q v c c j v v V V V p f G / K H H H G J L L J G V V V M n i q 9 o = C v m x v c f h M i : : ",
"o > 3 i ' L J H J H H L U t & : 3 2 q k N V C V m B V x y x G ^ H J J J L J G G C V V V V v a w q , O : C x v v z z h z M i : : ",
"X > 3 w / L L J L J J L T t : : , 2 8 g m M A S C v B z a b G H G J H H G G C V V B V V V z w t 9 & % 2 C f h z f f f v v r : : ",
"o , 2 t E I L J L J J L ` g & > , 3 3 q g v M C b j v h a v V b v v x x z v h g g g z g z t q q 7 2 : 9 Z x x y x x z z v 4 - - ",
"o > 2 q U I L L J J J U ` n : : > 3 3 9 p j v b v v v h i a f f a a a a a a a f a a a p p p r > , p > 9 Z x x h y z z x v e - - ",
"o , 2 9 I L L L L J J L ` / 9 = > , 2 7 q d f p z g f 9 3 8 0 9 6 9 q t i p i i i i w q 6 2 = o 3 0 : f Y y z h z z z x v 6 > - ",
"o 2 3 9 J J L J J J H L ` | v 2 , , q d d p i q 0 q q 3 y f r 3 r h g f f a a t q q 9 9 7 1 % > i p 0 H ) z x z f x y m B 6 1 = ",
"X > 5 9 G J L L L J J U E { ' U D K Y W ` ` ^ L H J G G U I k k  .&.| / ^ P H H C V A D H K K P Y Y F +.=.x x z f f z v V 6 > = ",
"o , 2 5 V J L J J J J L U U ^ ' { { { ' ' { ` { ' { ` ` ` K c ` >.,.&.O.X.{ E U K I I T Y R R Y Y K R +.~ z x f z h z v M 3 > : ",
"o > 3 6 V L L J J L U U U U U ` ` / / E E E U ^ E E ` ` J c b ' =.O./ T U I S A A S S H H H Z Z C V M m z f z z z z z z c 3 > = ",
"O 1 2 3 b L L I U U U ` ` ` E E ^ W E E E U U U U ` U A a a V _ / H V B V M v v v b V V V m v v x v x g f z f z z z i j v 2 > = ",
"+ > 2 3 b J U T ` ` ^ E ^ ^ ^ ^ ^ ^ ^ ^ ^ ^ U ^ ^ E H j i f A E L n n n V n b x v v v v v x x v v x v v c j j c z i d H j , > & ",
"+ 1 2 9 c G ^ / ` ^ ` ` ^ ` ^ ^ ^ ^ ^ ^ ^ ^ ^ ^ E A j p f A U L C V n V V V b x x x v v v v v x v b v v b b c j w 9 V I v , : % ",
"+ : 7 9 a f A / ` ` ` { ` { ` ` ` ` ` { / ^ U U A g i p J | U C V V V C Z V B v v m v v n x n B v b v v c v j q 1 t H K b > : % ",
"+ : 2 7 f b a M U U U U U U U ` ! ^ ^ U U L L G a q i J X.{ Z v v v b v V V V b B m B m B B B B x z p a a t 3 , i J K H j : & % ",
"o : 2 1 8 m v 0 f p i i g a g b v x f a x x v y > 1 a K J x a p a a p p a z p i a a a a f p a p t 5 1 3 , ; & g A A q q 3 $ % # ",
"+ : : # = ; : = % $ # $ : > : > - - : 1 1 1 2 = # : t f q 3 5 6 6 9 9 5 6 6 5 6 3 4 4 4 4 4 3 3 1 = * $ @ O g J k : + & & $ $ # ",
"+ : 1 % * % = = & = & ; : : = : - - - = = * * % + = , > = % & % * = = * & & & 1 , > - > > - - - - - % * @ 7 k j , $ $ # # # # O ",
"+ $ ; # @ $ + @ @ + + + O O # # @ @ O O O O O o X o O O O .     o X     X o X o + @ % % % % $ * % # + % + ; ; $ o X   X X X o   "
};
