/* XPM */
static char *_a234c97da2040b692fa15c24afe922fFTJ52UFkCj6rZSqN[] = {
/* columns rows colors chars-per-pixel */
"79 79 243 2 ",
"   c #0000FF",
".  c #010000",
"X  c #0A0403",
"o  c #0D0904",
"O  c #0C0A09",
"+  c #08060B",
"@  c #130302",
"#  c #150D04",
"$  c #1A0B04",
"%  c #130D0B",
"&  c #1A0B08",
"*  c #1B0302",
"=  c #15110E",
"-  c #1B130D",
";  c #1A1205",
":  c #1C1512",
">  c #1D1815",
",  c #191718",
"<  c #100F10",
"1  c #270A06",
"2  c #24130E",
"3  c #2B120C",
"4  c #24190B",
"5  c #261907",
"6  c #34160E",
"7  c #231512",
"8  c #261C17",
"9  c #3A1A15",
"0  c #37270C",
"q  c #2B231D",
"w  c #292119",
"e  c #362817",
"r  c #2D2926",
"t  c #342B24",
"y  c #362C27",
"u  c #3C322B",
"i  c #3B3224",
"p  c #3A3635",
"a  c #43130C",
"s  c #451712",
"d  c #561D16",
"f  c #462619",
"g  c #57281B",
"h  c #493515",
"j  c #553916",
"k  c #4A320D",
"l  c #692B1B",
"z  c #742D1D",
"x  c #492924",
"c  c #542723",
"v  c #483829",
"b  c #593629",
"n  c #473C35",
"m  c #563B32",
"M  c #693928",
"N  c #773B27",
"B  c #693D35",
"V  c #6C3128",
"C  c #621D19",
"Z  c #57421A",
"A  c #684919",
"S  c #7B561C",
"D  c #6F4E1A",
"F  c #5A4528",
"G  c #4B4038",
"H  c #53453C",
"J  c #5E4A3C",
"K  c #584537",
"L  c #4E402E",
"P  c #634B27",
"I  c #6D5328",
"U  c #785725",
"Y  c #654738",
"T  c #784337",
"R  c #685238",
"E  c #775C36",
"W  c #76412D",
"Q  c #7F633D",
"!  c #4C4747",
"~  c #5A4C44",
"^  c #554C49",
"/  c #5B5248",
"(  c #5C5755",
")  c #7B4944",
"_  c #665648",
"`  c #735C43",
"'  c #745E4C",
"]  c #6D5C54",
"[  c #6C5D59",
"{  c #645B57",
"}  c #685149",
"|  c #6C6259",
" . c #7A6655",
".. c #7D6955",
"X. c #75635A",
"o. c #79665A",
"O. c #796659",
"+. c #796048",
"@. c #6C6766",
"#. c #726A6A",
"$. c #7A6C62",
"%. c #7B7474",
"&. c #873C28",
"*. c #865B19",
"=. c #89631D",
"-. c #96681B",
";. c #82452C",
":. c #964729",
">. c #874A38",
",. c #8F5837",
"<. c #A9523A",
"1. c #886526",
"2. c #956A27",
"3. c #9E732A",
"4. c #87683A",
"5. c #9C7434",
"6. c #916B33",
"7. c #A7782D",
"8. c #A87C35",
"9. c #AA7729",
"0. c #A9721E",
"q. c #86524D",
"w. c #945248",
"e. c #9B5B54",
"r. c #904D48",
"t. c #A35945",
"y. c #A85B54",
"u. c #B35D56",
"i. c #896B46",
"p. c #987749",
"a. c #836D5B",
"s. c #876B55",
"d. c #8A7259",
"f. c #957857",
"g. c #B86844",
"h. c #A8625B",
"j. c #B7615B",
"k. c #A27E51",
"l. c #8A7568",
"z. c #937C6C",
"x. c #937964",
"c. c #847B79",
"v. c #8B766B",
"b. c #B17868",
"n. c #CC5B4E",
"m. c #FF5849",
"M. c #CB6A58",
"N. c #FC675A",
"B. c #EA6358",
"V. c #DA6E64",
"C. c #FE7869",
"Z. c #ED756A",
"A. c #B98738",
"S. c #BD862F",
"D. c #DD991C",
"F. c #EB9D0D",
"G. c #E19E1D",
"H. c #F5B608",
"J. c #E9A516",
"K. c #F5A61A",
"L. c #F4AE10",
"P. c #C68C28",
"I. c #D49529",
"U. c #C48D36",
"Y. c #CC9334",
"T. c #CB9239",
"R. c #C89835",
"E. c #D39737",
"W. c #E7A738",
"Q. c #EDAE30",
"!. c #DFA32D",
"~. c #FFC411",
"^. c #9E825F",
"/. c #A7824D",
"(. c #B88B45",
"). c #A88556",
"_. c #B99152",
"`. c #9D846A",
"'. c #9A8376",
"]. c #9E937B",
"[. c #A38974",
"{. c #A38A7A",
"}. c #AA8D7D",
"|. c #A88974",
" X c #B7967C",
".X c #AF8E70",
"XX c #DDA754",
"oX c #D7A24C",
"OX c #F4B149",
"+X c #F88578",
"@X c #FF8877",
"#X c #C2975A",
"$X c #FFC74C",
"%X c #958B8B",
"&X c #9D9794",
"*X c #AC8E81",
"=X c #AF9181",
"-X c #B39382",
";X c #BE9B88",
":X c #BB9986",
">X c #A79B9B",
",X c #B08F80",
"<X c #B0A7A7",
"1X c #AFB0B1",
"2X c #B1A180",
"3X c #C49D8B",
"4X c #CF9F83",
"5X c #D69B86",
"6X c #FF9685",
"7X c #FF9D90",
"8X c #CAA38E",
"9X c #C7A488",
"0X c #D4AA8C",
"qX c #CCA390",
"wX c #D8AE94",
"eX c #DAB595",
"rX c #EBBC9D",
"tX c #E4BA9A",
"yX c #F8AE97",
"uX c #C6BCB9",
"iX c #F7BDA4",
"pX c #EAC7A3",
"aX c #FDCCA6",
"sX c #FFCEA9",
"dX c #F8C6A6",
"fX c #FFD3AC",
"gX c #FFD8AE",
"hX c #FED6B1",
"jX c #FFDBB3",
"kX c #EED3B3",
"lX c #FFE2B9",
"zX c #FFEBBD",
"xX c #DECDBA",
"cX c #BAC2D4",
"vX c #D5D5D4",
"bX c #D4CDCB",
"nX c #F2DCD1",
"mX c #FFEEC8",
"MX c #FAEDCF",
"NX c #E7E8E7",
"BX c #FEFFFF",
"VX c #F4F3F4",
"CX c #F7EBE2",
/* pixels */
"                                                                                                                                                              ",
"                                                                                                                                                              ",
"                                                                                                                                                              ",
"                                                                                                                                                              ",
"                                                                                                                                                              ",
"                                                                                                                                                              ",
"                                                                                      . . . . .                                                               ",
"                                                                              . . . . . . . . . . .                                                           ",
"                                                                          . . . . % k *.-.-.-.S 4 . .                                                         ",
"                                                                        . . . 4 *.P.K.H.~.~.L.Q.Y.4 .                                                         ",
"                                                                      . . X D I.K.K.F.H.H.H.H.L.E.` . .                                                       ",
"                                                                  . . . . 7.W.G.F.F.F.L.H.L.J.J.(.x.v . .                                                     ",
"                                                              . . . . X 3.W.Y.D.F.F.F.F.J.G.!.W.8.K e . .                                                     ",
"                                                          . . . X X . 1.oXT.Y.I.D.D.D.D.I.W.Y.A o . ; 5 . .                                                   ",
"                                                        . . . ; - . j E.E.T.T.I.I.I.I.I.W.P.# . Z U U 6.0 . .                                                 ",
"                                                      . . . h Z . 0 A.T.T.T.T.Y.E.E.E.E.P.# + 4.E.f.1XuX.X5 .                                                 ",
"                                                    . . o U 1.. 0 8.U.T.T.E.T.T.U.A.8.7.0 < d.XX4.cXNXvXvXd.. .                                               ",
"                                                  . . 0 2.U X v k.5.U.E.U.A.8.8.5.2.1.h . R .XU.( BXBXvXvXuX= .                                               ",
"                                                . . m /.U e ` x.f.6.8.8.5.2.U j # . . . 8 d..XS.%.BXBXVXbXvX^ .                                               ",
"                                              . . n f.f.+.s.l.a.4.3.5.U h # . . 0 U S.1.L f.).A.$.BXBXBXNXbXc.. .                                             ",
"                                              . = ..f.a.a.a.l.f.5.I - . 5 S R.OXOXOXOX6.n d.f.(./ BXBXBXVXvX&X. . .                                           ",
"                                              . > a.a.a.a.x.d.b 5 o Z R.$X$XXX).f.p._.8.Y s.f.#XF 1XBXBXBXNX<XX . .                                           ",
"                                              . = ..d.l.a.H 5 k 2.W.$XXX/. .X.X. . .f./.F ' s.).E { BXBXBXNX&X. w o .                                         ",
"                                              . = s.a.~ v =.!.OXoX/...] [ X.O..... .s.).E v ` ' i.v %.VXBXNX@.. J f . .                                       ",
"                                            . . o 8 w P A.XX)...[ [ X.X.O.O.O.O... .s.f._.F 7 v R R e ^ &X#.o e E v # . . . .                                 ",
"                                            . . . F f.).a.[ [ X.X.X.O.O.O.X.O.X. . .f.)._.(.w . = q w o . . . & e 5 5 5 = = o . . . .                         ",
"                                            . . n ^.a.X.| X.X.X.X.X.O.O.o.$.a.a.f.f.p.Q I I j 0 ; $ ; 5 k D *.=.-.3.-.2.E L v u u t : X .                     ",
"                                            . > a...X.X.X.X.X.X.O.o.o. ._ R I A Z P A P I S 2.7.9.3.2.-.2.=.A j k 0 5 # o o = q t q = . .                     ",
"                                          . . v l.o.X.o.o.o.X.[ ] _ J R F P E p.p.p.p.4.4.U j 0 5 # X . . . . . . . . + > q 8 = + . .                         ",
"                                          . . _ f.a. .] / ~ _ _ ` i.p.p./.p.4.I v e = . . . . . . . . X . . . . + O : = O . . .                               ",
"                                        . . . e 5 4 t L ` i.f./.p.4.P 0 # . . . . . . . : u p H ] a.x.|.K 1 & H t . . . .                                     ",
"                                      . . o 4 8 n } s.).).p.E e - O . . + , r n u & 1 e a.eXwXeXpXaXjXgXY a 6 tXa.. .                                         ",
"                                    . . > J +.a.`.`.f.R e O . . . : n ~ o.`.[.9X}.V &.a } hXjXgXfXfXjXeXl z 3 eX[..                                           ",
"                                  . . w ' x.z.x.R q % . . . f 8 . n wXpXfXjXgXzX9Xz n.a 9 tXjXsXsXsXjXtXc l 3 `.|.. .                                         ",
"                                . . r a.z.a.H 8 . . . 3 g >.M.,.. ~ zXjXfXfXfXlX Xs <.s * 4XjXsXsXfXlXtXe & # o . . .                                         ",
"                                . y  ._ y O . . . . 6 g g T g.<.. v jXfXsXsXsXjX8X* d 6 X 9XlXaXjXjXx.- @ 9 d C s * . .                                       ",
"                              . > H q . . . & c 9 . X f g W t.g.6 > gXfXsXsXsXjXrXX @ 1 1 tXjXgXdXY @ g n.C.6X6X7X+Xt.@ .                                     ",
"                            . . > > = = . x Z.iXdXu.. 6 M M ,.g.g . tXjXsXsXsXfXjXK . . x hXgXfXv 1 w.C.C.6XdXmXMXdX7XV.o .                                   ",
"                              . . . . . X h.u.>.5XyX9 X M M ,.g.;.. |.jXsXsXsXsXjXtX8 @ .XjXjX`.1 q.Z.N.N.6XyXfXsX6XC.@Xc .                                   ",
"                                    . . 7 y.s 3 @ >.T . M M ,.g.g.$ _ hXgXfXfXfXfXjXdXtXjXgXhXK 9 h.B.m.N.C.6X@X@XC.m.N.9 .                                   ",
"                                      . 7 r.g w.7 . b X M ;.>.>.;.. r tXrXdXaXaXaXaXfXfXaXsXgXH 9 e.j.B.m.m.m.m.m.m.B.y.. .                                   ",
"                                      . . T w.V.B . . . 3 9 $ % 7 8 l.qX3X8XwXwXtXrXrXtXrXrXdXa.X ) e.h.j.n.n.n.M.M.e.: .                                     ",
"                                      . . 7 e.Z.V.. . . 7 & t $.'.-X:X-X:X;X;X3X3X8X8XqX8X8X3X3XG & x B ) q.q.) ) x . .                                       ",
"                                        . . 7 r.+Xj.Y B V B z.-X}.}.}.}.,X-X:X:X:X;X;X;X3X3X3X8X*X| r o . X X . . . .                                         ",
"                                          . . . B +X7Xb.g m o.z.{.}.{.{.}.,X-X-X-X-X-X-X:X;X3X8X,X'.{.v.{ ~ _ X.n . .                                         ",
"                                            . . . 9 T b 3 % n ] a.'.{.[.{.}.}.}.,X-X-X,X-X:X3XqX:Xv.v.'.'.v.z.'.G . .                                         ",
"                                              . . . . . . . . r ~ o.z.{.{.{.}.}.}.}.}.,X,X-X3X8X] 8 - 8 q : : X . .                                           ",
"                                                  . . .   . . . o u _ $.v.z.'.{.}.}.}.}.}.{.{.'.l.] _ H y = . .                                               ",
"                                                                . . O r n ~ ] a.l.z.z.z.v.l.o.X.X.] ~ r . . .                                                 ",
"                                                                . . . o o o : y n ~ ~ ~ ~ H G n q = . . .                                                     ",
"                                                              . . X h j 0 ; . . X X . . . . . o . . . .                                                       ",
"                                                            . . ; h 4 . . . . . . . . i `.d.- 5 P.0 . .                                                       ",
"                                                            . o e . . H [. X|.x.G X . d.MXkXE . P.j . . .                                                     ",
"                                                            . - . % |.jXgXsXsXfXfXd.. e nXCX2X. S A . X . .                                                   ",
"                                                          . . . % b.jXgXsXaXjXMXjXjXK . vXBXkX. k 0.X = 7 . .                                                 ",
"                                                          . . . J dXgXsXfXsXlXBXMXzX|.. { ].e . . S 0 + v o .                                                 ",
"                                                          . . o .XjXfXsXsXsXfXpX9XeXd.X . v | _ - X - . o . . .   . . .                                       ",
"                                                          . . = 0XjXsXsXsXsXgXrX_ > % . p xXxXnX .. . X . . . . . . . . .                                     ",
"                                                          . . % 0XjXsXsXsXsXsXgXdX0Xu . t _ t | ~ . . 7 x T f . % ( { O .                                     ",
"                                                            . .  XlXsXsXsXsXsXaXfXmX' . r / u t 7 X 6 b t.T X @.bXbXuX^ .                                     ",
"                                                              . J jXfXaXfXfXdXeXdXaXu . . . @ 1 9 c B w.T . #.nX&X#.%X^ .                                     ",
"                                                              . . |.rX0XrXhXdX' m q . f z l N N M b B >.$ p CXc.{ #.%., .                                     ",
"                                                              . . : s.Y v s..X_ . . f :.:.W M f 9 f b b O &X>X| #.%.{ . .                                     ",
"                                                              . . . . + . . . . # g :.;.Y x % o 9 g f & p %X@.#.%.%., .                                       ",
"                                                            . . w O . 2 2 3 3 f &.:.N b 7 . . . o % 7 # p c.c.c.#.8 . .                                       ",
"                                                            . . p ( . 6 M N N N &.M b 2 . . . . . . . X . y ^ p . . .                                         ",
"                                                              . + %.^ X 9 ;.>.;.B b - . .           . . . . . . .                                             ",
"                                                              . . ! >X#., . @ 8 2 o . .                   .                                                   ",
"                                                                . . @.>X>X@.n p < . .                                                                         ",
"                                                                  . + ( %X<X<X%Xp . .                                                                         ",
"                                                                    . . > r r r + .                                                                           ",
"                                                                      . . . . . .                                                                             ",
"                                                                                                                                                              ",
"                                                                                                                                                              ",
"                                                                                                                                                              ",
"                                                                                                                                                              ",
"                                                                                                                                                              ",
"                                                                                                                                                              ",
"                                                                                                                                                              "
};
