/* XPM */
static char *c724ea4feaec4e4ccefd5ba8062c43e1y1AIXHKo6shFwngK[] = {
/* columns rows colors chars-per-pixel */
"79 79 249 2 ",
"   c #0000FF",
".  c #000000",
"X  c #0B0503",
"o  c #0C0906",
"O  c #0C0B0A",
"+  c #00000B",
"@  c #130201",
"#  c #130D04",
"$  c #1C0C03",
"%  c #130D0B",
"&  c #1A0907",
"*  c #1B1306",
"=  c #15110D",
"-  c #1C130D",
";  c #181304",
":  c #161313",
">  c #1A1512",
",  c #1D1A17",
"<  c #0D1010",
"1  c #260906",
"2  c #23130B",
"3  c #281808",
"4  c #34120E",
"5  c #221612",
"6  c #241B14",
"7  c #2A1B13",
"8  c #2A1E1A",
"9  c #241C19",
"0  c #361A13",
"q  c #2B210B",
"w  c #332409",
"e  c #2C221D",
"r  c #2B2117",
"t  c #32241D",
"y  c #3B2C1C",
"u  c #382716",
"i  c #3E3218",
"p  c #2A2523",
"a  c #342B24",
"s  c #342A26",
"d  c #3C332B",
"f  c #383433",
"g  c #291F21",
"h  c #48140D",
"j  c #4A1A14",
"k  c #581C17",
"l  c #452C0A",
"z  c #47330C",
"x  c #48251A",
"c  c #572C1D",
"v  c #473515",
"b  c #553817",
"n  c #6C2A1C",
"m  c #4A2922",
"M  c #572722",
"N  c #433325",
"B  c #45352A",
"V  c #4B352C",
"C  c #4B392C",
"Z  c #4B3926",
"A  c #583427",
"S  c #473B34",
"D  c #523C32",
"F  c #5C3E37",
"G  c #633323",
"H  c #6C3523",
"J  c #6A392A",
"K  c #773B27",
"L  c #693A35",
"P  c #6C332C",
"I  c #621E19",
"U  c #57411B",
"Y  c #68491B",
"T  c #78551C",
"R  c #704D18",
"E  c #5B462B",
"W  c #4C443B",
"Q  c #5C4C3C",
"!  c #554438",
"~  c #644927",
"^  c #6C5227",
"/  c #775825",
"(  c #664939",
")  c #774739",
"_  c #6A5438",
"`  c #74593A",
"'  c #7C442C",
"]  c #7F643D",
"[  c #494544",
"{  c #5C4C44",
"}  c #554843",
"|  c #59554B",
" . c #644E42",
".. c #7A4B44",
"X. c #63544B",
"o. c #695746",
"O. c #765846",
"+. c #6C5B54",
"@. c #685E59",
"#. c #705E57",
"$. c #786348",
"%. c #7B6655",
"&. c #74635A",
"*. c #79665A",
"=. c #7C6A5E",
"-. c #786655",
";. c #6C6056",
":. c #796C64",
">. c #75716E",
",. c #8A3B2A",
"<. c #865A19",
"1. c #976819",
"2. c #86611E",
"3. c #A9731D",
"4. c #8B492E",
"5. c #86452C",
"6. c #835E27",
"7. c #8F5138",
"8. c #8D6829",
"9. c #946A25",
"0. c #9D7529",
"q. c #886938",
"w. c #9C7435",
"e. c #946C30",
"r. c #A8782B",
"t. c #AA7C33",
"y. c #B1752C",
"u. c #A84636",
"i. c #884A44",
"p. c #845A4A",
"a. c #975549",
"s. c #9C5B55",
"d. c #A95A52",
"f. c #886C46",
"g. c #98774A",
"h. c #826B54",
"j. c #836D5C",
"k. c #8A6C55",
"l. c #996C59",
"z. c #8A735A",
"x. c #967957",
"c. c #B76743",
"v. c #BA645C",
"b. c #A56F54",
"n. c #8E786C",
"m. c #8A7567",
"M. c #967B67",
"N. c #8B7970",
"B. c #AA7964",
"V. c #CB5A4D",
"C. c #FF5949",
"Z. c #FD5D51",
"A. c #C86B4F",
"S. c #FA685B",
"D. c #E66157",
"F. c #D27067",
"G. c #FD7869",
"H. c #E8756C",
"J. c #B78636",
"K. c #B58528",
"L. c #DD991C",
"P. c #EB9D0D",
"I. c #E19E1C",
"U. c #F1A90D",
"Y. c #F5B507",
"T. c #F1AA15",
"R. c #D49529",
"E. c #C38D37",
"W. c #CC9238",
"Q. c #CB9235",
"!. c #D49837",
"~. c #C58D28",
"^. c #E5A83A",
"/. c #F1AE2E",
"(. c #DDA22D",
"). c #FFC311",
"_. c #A9834A",
"`. c #A88556",
"'. c #B68E50",
"]. c #998268",
"[. c #9A8676",
"{. c #A78568",
"}. c #A2897A",
"|. c #AA8D7D",
" X c #A38976",
".X c #B88D73",
"XX c #AE926C",
"oX c #C6944A",
"OX c #DDA44F",
"+X c #FAB547",
"@X c #EBAD4A",
"#X c #C48A74",
"$X c #C99278",
"%X c #D59779",
"&X c #D08D71",
"*X c #FA8777",
"=X c #F0937A",
"-X c #EAA37B",
";X c #FFC549",
":X c #FFD251",
">X c #FFEE52",
",X c #938B89",
"<X c #B39282",
"1X c #BE9B88",
"2X c #BA9985",
"3X c #AC9489",
"4X c #ABA6A4",
"5X c #B4B1B0",
"6X c #A2A4A4",
"7X c #C49D8A",
"8X c #CF9680",
"9X c #D79A83",
"0X c #FF9685",
"qX c #F59886",
"wX c #CAA38E",
"eX c #C8A38B",
"rX c #CAA291",
"tX c #D6AE94",
"yX c #D9B396",
"uX c #D2AE8E",
"iX c #E8A68A",
"pX c #FDB48C",
"aX c #E7B99C",
"sX c #FABA9C",
"dX c #F7A88B",
"fX c #C5B8AC",
"gX c #FFB9A5",
"hX c #E8C29E",
"jX c #EBC2A1",
"kX c #FDCCA6",
"lX c #FECEA9",
"zX c #F9C7A6",
"xX c #FFD3AC",
"cX c #FFD8AF",
"vX c #FFDBB2",
"bX c #FFD3B1",
"nX c #EFD1B3",
"mX c #FFE4BA",
"MX c #D8C5B3",
"NX c #ACB3C3",
"BX c #D5D5D4",
"VX c #CDCBCA",
"CX c #FCEBC8",
"ZX c #FDF4D7",
"AX c #E9E9E9",
"SX c #FFFFFF",
"DX c #F6F7F8",
"FX c #EEF1F3",
"GX c #F2DBC5",
/* pixels */
"                                                                                                                                                              ",
"                                                                                                                                                              ",
"                                                                                                                                                              ",
"                                                                                                                                                              ",
"                                                                                                                                                              ",
"                                                                                                                                                              ",
"                                                                                                . . . . . .                                                   ",
"                                                                                        . . . . . . . . . . .                                                 ",
"                                                                                      . . . % z <.1.1.1.T 3 . .                                               ",
"                                                                                  . . . - T ~.T.Y.).).Y./.!.r .                                               ",
"                                                                                . . . Y R.T.T.U.Y.Y.Y.Y.U.!.$.X .                                             ",
"                                                                            . . . . 9.^.I.P.P.P.U.Y.Y.U.T.J.M.C . .                                           ",
"                                                                        . . . . . e.^.!.L.P.P.P.P.P.I.(.^.t.Q a . .                                           ",
"                                                                    . . . X X . T @XW.Q.R.L.L.L.L.R.^.!.R # . ; 3 . .                                         ",
"                                                                  . . . # 2 . v W.!.W.Q.R.R.R.R.!.^.Q.3 . b / / 8.z . .                                       ",
"                                                                . . . v Y . 3 J.W.W.W.W.Q.Q.W.!.!.Q.3 + ` OXx.5XfX$Xq .                                       ",
"                                                              . . X ^ 8.X 3 r.E.W.W.!.W.W.E.J.t.K.z O h.OXq.NXFXBXBX].. .                                     ",
"                                                            . . 3 8.6.X y g.g.E.!.E.J.t.t.w.e.6.b . Q {.E.| SXSXBXVXVXe .                                     ",
"                                                          . . B g.6.u _ M.x.e.t.t.w.e./ b * . . . 6 k.{.J.:.SXSXDXBXBX@.. .                                   ",
"                                                        . . B x.x.$.h.m.j.f.0.w.6.v # . . w T K.9.Z x.`.oX&.SXSXSXAXBX,X. .                                   ",
"                                                        . O -.x.j.j.j.j.x.w./ 3 . * R E./.@X+X+Xw.C z.x.oXQ FXSXSXDXBX4X. . .                                 ",
"                                                        . = %.j.j.j.m.x.E 3 X v J.;X:XOX'.x.g.'._.( k.z.oX~ 6XSXSXSXAX5X% . .                                 ",
"                                                        . O -.z.m.j.Q 7 z 9.^.;XOX`.%.&.-.-.-.x._.~ O.k.`.q.| DXSXSXAX6X. 7 # .                               ",
"                                                        . % %.j.{ Z 2.(.+XOX`.h.+.#.*.-.%.h.%.k.`.] N o.O.f.Z >.AXSXFX>.. E Z . .                             ",
"                                                      . . X 7 9 E t.OX'.h.@.#.&.*.*.*.*.*.%.-.h.g.'.~ , B _ ` u [ ,X>.O r ` Z $ . . . .                       ",
"                                                      . . . E g.`.j.#.+.&.*.*.*.*.*.*.*.*.*.*.z.x.'.'.y . = e r o . . . # r q 3 3 - = o . . . . .             ",
"                                                      . . B ].z.&.#.&.&.*.*.*.*.*.:.:.j.j.z.x.g.q.^ ^ U u - ; * 3 l R <.<.1.0.1.9.` ! C d d a > X .           ",
"                                                      . = %.j.&.&.&.&.&.&.&.&.*.-.o._ / Y U ~ ~ Y ^ T 9.r.r.r.9.9.9.2.R b l w 3 * o X = e a e = . .           ",
"                                                    . . d j.*.&.*.*.&.&.#.+.o.Q ( E E ` q.g.g.g.q.q./ b w 3 $ X . . . . . . . . o > e 9 = o . . .             ",
"                                                    . . Q x.h.-.+.X.{ X.o.` f.g.g._.g.q.^ Z u = . . . . . . . . . . . X . o O > = O . . .                     ",
"                                                  . . . u 7 6 t ! ` f.x.`.g.q.~ u ; X . . . . . . > d f W +.=.m. X .2 $ D d . . . .                           ",
"                                                . . X 3 7 C  .k.`.`.g.` v - O . . o > p S d - 1 0 %.tXyXyXjXzXvXvX` h 4 uX].. .                               ",
"                                              . . > Q O.j.M.].x._ y = . . . > S } *.M. X1X2XP ,.h F xXmXcXcXxXvXyXH n 1 eX2X. .                               ",
"                                            . . 6 o.M.M.M. .t % . . . y t . d uXjXlXvXcXmXyXn V.h 4 yXvXlXlXlXcXhXA n 4 z..X. .                               ",
"                                          . . e j.M.j.{ r . . . 2 x ' A.7.. W mXvXcXxXxXvXeX0 u.j @ $XmXlXkXlXmXhXN & # o X . . .                             ",
"                                          . s -.o.d % . . . . 4 c c ' c.c.@ p cXxXlXlXlXvXyX1 j 4 . $XmXkXcXvX{.5 @ 4 k I j & . .                             ",
"                                        . > ! p . . . % M j . . x c J a.c.x % kXcXlXlXlXcXzX% X 1 @ uXvXcXkXo.@ j V.G.0X0X0X=Xd.& .                           ",
"                                        . > , : = . u H.gXzXv.. 2 G J 7.c.G . tXvXlXlXlXxXmXo.. . 0 zXcXvX! 1 i.G.*X0XgXCXZXzX0XH.& .                         ",
"                                        . . . . . . s.v.7.$XgXM . G J 7.y.4.. M.vXxXlXlXlXvXjXp X {.vXvX.X1 ..H.S.S.0XsXbXbX0XG.*XP .                         ",
"                                                . = s.x 2 @ L ... G J 7.c.A.2 W xXcXxXxXxXxXvXzXaXvXcXvX .4 s.H.C.Z.G.0X*X*XG.Z.S.m .                         ",
"                                                . = i.M a.0 . G # c 5.7.4.4.@ , aXjXzXkXkXkXkXxXxXkXkXvXX.4 s.v.D.C.C.C.Z.C.C.D.v.o .                         ",
"                                                . . L a.F.i.. . . 2 0 $ o 5 9 =.rX7XwXtXtXaXaXaXaXaXaXzXM.X ) s.d.v.V.V.V.A.F.s.6 .                           ",
"                                                . . = a.H.H.. . . 5 & t *.[.<X2X<X2X1X1X7XeXwXwXrXwXeX7XrX} & m L ..p.p.....A X .                             ",
"                                                  . . - i.H.v.( L P L n.<X|.|.|.|.|.<X2X1X1X1X1X1X7X7X7XeX3X&.s X . X X . . . .                               ",
"                                                    . . . J H.dXF.M A &.n.}.|.}.}.|.|.<X<X<X<X<X<X2X1X7XwX<X[.[.N.+.{ X.&.S . .                               ",
"                                                      . . . 7 ) A 4 % S +.:.[.}. X}.|.|.|.<X<X<X<X<X2X7XwX1Xn.m.[.[.n.n.[.} . .                               ",
"                                                        . . . . . . . . e { :.n.[.}.}.|.|.|.|.|.<X<X<X1XrX*.8 - 8 e 5 > X . .                                 ",
"                                                            . . . . . . . O p X.=.m.n.[.}.|.|.|.|.|.}.}.}.m.+.X.} d : . . .                                   ",
"                                                                          . . X p D { +.j.m.n.n.n.n.m.*.&.*.+.{ s . . . . .                                   ",
"                                                                            . . . . . O g f ! { { { W D S e = . . o D D X . . .                               ",
"                                                                          . . v R q * w 3 # . . . . . . o . . . - B.%X$XB V V .                               ",
"                                                              . . . . . . * r.!.!.^.J.0.!./.K.. 9 z.k.6 $ ~.b . ( .X.X8X( p.iXC .                             ",
"                                                          . . . 8 D D S - w J.+X!.;X+XJ.8.~./.3 $.CXnXf.. K.T . B D l.9XC ( $XO..                             ",
"                                                        . . y B.9XsXsXsXiX .3 ^.:X+X+XJ.r.3.1.X $.CXZXuX. R <.. 9 e ! M.6 t a 6 . .                           ",
"                                                      . . ( %XdXzXcXxXCXZXmX} z >X@Xe./ / y.(.3 o.SXSXCXX l y.# : V > 8 F l.B.( . .                           ",
"                                                      . N ( l.iXcXxXkXZXSXmXaX. y.oX^ t u 3.R.l O [.[.i . . R 3 % ( V N .X9X$X... .                           ",
"                                                    . . . C 9XiXxXxXkXxXcXcXxX9 z J.u . u Y w . % y N +.o., . X % O.V N C D C 9 .                             ",
"                                                    . . 7 -XiX#XzXcXlXkXkXcXkX8 # ~ . . 7 m . . [.SXnXMXGXm.. . % V t k.O.O.B . .                             ",
"                                                    . . l.pXb.l.iXkXxXxXxXcXdX- . . . . 0 ~ . . X.fXQ s ;.X.. . . . = l.%XB.8 .                               ",
"                                                    . . _ _ e &X-XiXsXkXzXpX&X. . . o % u J 7 % < W W d p % . . . . . % t X .                                 ",
"                                                      . o . O.-X-X9X#X#X%XdXO.. . 5 m m A G G m 7 X . . . X X . . . . . . .                                   ",
"                                                      . . % -XpX%X( X t b.&X5 . 4 m x x G 5.4.4.4.H 0 . = 6 - . .                                             ",
"                                                        . X p.l.8 . y p.p.a . . 0 H x x H K 4.4.5.K H 2 o 6 % . .                                             ",
"                                                          . . . . . = o . . . . . x G c A K 5.4.4.' H x . = o .                                               ",
"                                                              . . . . .       X . . 7 G G H K 4.4.4.5.c . . . . .                                             ",
"                                                                                  . . 2 x G K 5.4.7.c $ . : s s X .                                           ",
"                                                                                  . . X 2 4 G 5.,.3 . , @.,X6X4Xf .                                           ",
"                                                                                  . . o c x c c 5 f N.4X4X,X@.f . .                                           ",
"                                                                                    . . j H A p [ ,X,X>.[ p X . .                                             ",
"                                                                                    . . o 0 e [ >.} p : . . . .                                               ",
"                                                                                      . . . . : : X . . . .                                                   ",
"                                                                                          . . . . . .                                                         ",
"                                                                                                                                                              ",
"                                                                                                                                                              ",
"                                                                                                                                                              ",
"                                                                                                                                                              ",
"                                                                                                                                                              ",
"                                                                                                                                                              ",
"                                                                                                                                                              "
};
