/* XPM */
static char *cb20f83de6e1426ddd0edf3f87722908gl7rJPgOa9jtZi3Z[] = {
/* columns rows colors chars-per-pixel */
"79 79 240 2 ",
"   c #0000FF",
".  c #000000",
"X  c #0A0502",
"o  c #0D0904",
"O  c #0B0A0A",
"+  c #080609",
"@  c #130402",
"#  c #140B04",
"$  c #1B0C04",
"%  c #130D0B",
"&  c #1B0C09",
"*  c #1D0402",
"=  c #14110D",
"-  c #1C130C",
";  c #1B1304",
":  c #151211",
">  c #1B1512",
",  c #1D1B1B",
"<  c #1D1815",
"1  c #270A07",
"2  c #370C09",
"3  c #2C140D",
"4  c #251809",
"5  c #38150C",
"6  c #231D1A",
"7  c #261914",
"8  c #391B13",
"9  c #31220D",
"0  c #3A270C",
"q  c #2C231D",
"w  c #2B2217",
"e  c #33241D",
"r  c #382819",
"t  c #252208",
"y  c #2B2724",
"u  c #332A25",
"i  c #3C2C23",
"p  c #322623",
"a  c #3D322A",
"s  c #3B3128",
"d  c #383535",
"f  c #42190E",
"g  c #451E15",
"h  c #501A14",
"j  c #462E0E",
"k  c #4B2315",
"l  c #452118",
"z  c #5D2C1B",
"x  c #542719",
"c  c #493516",
"v  c #553B14",
"b  c #47330D",
"n  c #622E1D",
"m  c #66261C",
"M  c #66311F",
"N  c #73271B",
"B  c #422C25",
"V  c #473729",
"C  c #543B2A",
"Z  c #473B35",
"A  c #593C35",
"S  c #5E2822",
"D  c #6C3421",
"F  c #683726",
"G  c #763A24",
"H  c #7A3B25",
"J  c #753926",
"K  c #693B34",
"L  c #78362E",
"P  c #5B4419",
"I  c #674917",
"U  c #78551B",
"Y  c #6F4F16",
"T  c #5A4629",
"R  c #4B423B",
"E  c #574537",
"W  c #654B27",
"Q  c #6B512A",
"!  c #7A5926",
"~  c #67493B",
"^  c #7D463B",
"/  c #6A5335",
"(  c #745939",
")  c #72432C",
"_  c #7D6037",
"`  c #4B4644",
"'  c #584C46",
"]  c #645243",
"[  c #63544B",
"{  c #6A584A",
"}  c #745C47",
"|  c #695C56",
" . c #735D53",
".. c #7D4641",
"X. c #7A624B",
"o. c #7B6242",
"O. c #746254",
"+. c #7A6655",
"@. c #75635A",
"#. c #79655A",
"$. c #7C695C",
"%. c #7D6954",
"&. c #6D6056",
"*. c #6B6666",
"=. c #786A64",
"-. c #78736C",
";. c #757473",
":. c #5F655F",
">. c #803F29",
",. c #865D1C",
"<. c #90651D",
"1. c #AC751F",
"2. c #844129",
"3. c #975A3C",
"4. c #865431",
"5. c #AA523B",
"6. c #886227",
"7. c #956A27",
"8. c #9A712A",
"9. c #856738",
"0. c #9A7437",
"q. c #916B34",
"w. c #A87624",
"e. c #B47C22",
"r. c #A67833",
"t. c #B4643F",
"y. c #874B45",
"u. c #935B55",
"i. c #925549",
"p. c #A95E55",
"a. c #A95B4A",
"s. c #876945",
"d. c #997847",
"f. c #856E5C",
"g. c #856753",
"h. c #8C735E",
"j. c #8A7257",
"k. c #96795C",
"l. c #977856",
"z. c #916E53",
"x. c #B96946",
"c. c #BA6259",
"v. c #A57252",
"b. c #897465",
"n. c #947B67",
"m. c #947E73",
"M. c #847C7C",
"N. c #AE7164",
"B. c #D6584B",
"V. c #FF5A4A",
"C. c #F65F53",
"Z. c #CF655C",
"A. c #FD6759",
"S. c #E66A5F",
"D. c #D06B63",
"F. c #FD7A6B",
"G. c #F16E63",
"H. c #B68128",
"J. c #B58434",
"K. c #AF832D",
"L. c #ED9D0B",
"P. c #E49B17",
"I. c #F6B707",
"U. c #EAA814",
"Y. c #F6AC12",
"T. c #D69728",
"R. c #C58E37",
"E. c #CB9238",
"W. c #CB9236",
"Q. c #D39837",
"!. c #C98F2C",
"~. c #DAA23A",
"^. c #E5A53A",
"/. c #EFAA2C",
"(. c #DB961E",
"). c #FFC115",
"_. c #A58355",
"`. c #B58C4D",
"'. c #9B8578",
"]. c #A98668",
"[. c #B38569",
"{. c #A58A7A",
"}. c #AB8D7D",
"|. c #A18778",
" X c #B28B76",
".X c #B4967E",
"XX c #AF9372",
"oX c #9F825E",
"OX c #C79752",
"+X c #D3A959",
"@X c #ECAB49",
"#X c #F9B74B",
"$X c #FFBF56",
"%X c #C28F78",
"&X c #FD8477",
"*X c #FCC74D",
"=X c #96928F",
"-X c #AB8E81",
";X c #AD9181",
":X c #A69083",
">X c #B39383",
",X c #BC9B89",
"<X c #BA9985",
"1X c #A79C98",
"2X c #B1ADAF",
"3X c #BBAD9B",
"4X c #C29D8A",
"5X c #C09C86",
"6X c #D49781",
"7X c #FF9987",
"8X c #CBA38D",
"9X c #C9A588",
"0X c #D5A78A",
"qX c #CEA591",
"wX c #D3A992",
"eX c #D8B393",
"rX c #E5A78D",
"tX c #FDA896",
"yX c #E9B899",
"uX c #F8BB9D",
"iX c #C3BBB8",
"pX c #F8BDA4",
"aX c #FECBA6",
"sX c #FFCEA9",
"dX c #F7C6A4",
"fX c #FFD3AC",
"gX c #FFD9AF",
"hX c #FFDBB3",
"jX c #FFDAB6",
"kX c #E9C9AB",
"lX c #FFE4BA",
"zX c #FFE1B6",
"xX c #F9C39F",
"cX c #D2D3D4",
"vX c #CECECC",
"bX c #E0DEDD",
"nX c #F5E7CD",
"mX c #E9EAEA",
"MX c #FFFFFF",
"NX c #F6F5F4",
/* pixels */
"                                                                                                                                                              ",
"                                                                                                                                                              ",
"                                                                                                                                                              ",
"                                                                                                                                                              ",
"                                                                                                                                                              ",
"                                                                                                                                                              ",
"                                                                                                                                                              ",
"                                                                                        . . . . .                                                             ",
"                                                                                  . . . . . . . . . .                                                         ",
"                                                                              . . . . 4 v I I Y c o . .                                                       ",
"                                                                          . . . o I 1.P.Y.).).Y./.K.o .                                                       ",
"                                                                        . . . c H./.Y.Y.I.I.I.I.U.~.E . .                                                     ",
"                                                                    . . . . 6.^./.L.L.L.Y.I.I.U.U.`.h.e .                                                     ",
"                                                                . . . . . 6.^.Q.(.L.L.L.L.U.U.T.^.J.} B . .                                                   ",
"                                                              . . X X . I ^.E.!.T.P.P.P.P.T./.~.7.4 . # o . .                                                 ",
"                                                          . . . o - . 0 Q.Q.E.W.T.T.T.T.T.^.Q.0 . 9 I I U 4 .                                                 ",
"                                                        . . . 9 v . 4 J.Q.E.E.E.E.W.W.Q.Q.Q.9 . W Q.l.1X3X_.o .                                               ",
"                                                      . . . P 7.# ; 8.R.E.E.E.Q.E.E.R.J.J.v + X.+X0.2XmXcXvX} .                                               ",
"                                                    . . ; ! 6.# w d.0.R.Q.W.J.J.r.r.8.7.I X E ].R.| MXNXvXcX2Xo .                                             ",
"                                                  . . i d.6.0 E k.k.q.J.J.r.0.6.Q 9 % X . 7 j.[.w.;.MXMXNXvXcXR .                                             ",
"                                                . . s k.l.( X.n.f.s.8.0.7.I 9 . . o 0 ,.Y C k.[.J.-.MXMXMXbXvX-.. .                                           ",
"                                                . % %.k.f.f.h.f.z.r.6.r X X b 8.W.@X#X$Xq.R k.oX`.[ MXMXMXmXcX=X. .                                           ",
"                                                . 6 f.f.f.f.b.k.( 0 . t 7.^.*X#XOX_.d.`.0.E j.k.OXT vXMXMXMXbX1X. . .                                         ",
"                                                . > %.f.h.h.{ e 4 I !.*X*XOXj.%.O.+.%._._.T g.j.[.Q ;.MXMXMXmX1X. 4 . .                                       ",
"                                                . : h.b.{ V I K.#X@XOXl.O.| O.+.%.%.+.j._./ E X.X.s.V 1XMXMXmX-.. E r . .                                     ",
"                                              . . % i p C r.@X+Xl.O.| | @.@.#.#.+.+.+.g.l.`.c e E } W w *.iX=X: 9 ( C # . . .                                 ",
"                                              . . . r o._.k.O.| @.@.#.#.#.#.#.#.@.O.@.j.l.`.d.- O w V r - X . . - r 4 $ # X + . . . . .                       ",
"                                              . . s _.h.@.&.@.@.#.@.@.#.#.#.$.$.f.h.k.l.s.9.9.v 4 X . X o 4 j I Y U <.<.6.( E V i q 6 + . .                   ",
"                                              . : g.f. .@.@.@.@.@.#.#.$.#.O.o._ Q W Q W P P I 6.8.8.7.7.7.w.w.,.Y I v j 9 4 = > q s u > + .                   ",
"                                            . . a b.@.@.#.#.#.@.@. .{ ] / C V Q 9.9.0.d.d.0.7.U P c 0 4 $ X . . . . . . . = w 6 : = . . .                     ",
"                                            . . ] k.f.$.@.| [ [ ] / o.s.d._._.d.9./ C w = o . . . . . . . . . . . + O < < = + . . . .                         ",
"                                          . . . V c r i Z ~ } z.l.d.d._ T 9 ; X . . . . . + 6 y V E [  .f.V $ # u 6 X X . . .                                 ",
"                                        . . . # - e Z } l._._.s.T r - . . . + > q 6 X @ 7  .>X.X<XwXyXsXfX~ 5 3 0X .. .                                       ",
"                                      . . % E ] +.n.]._.s.C w . . . % u Z [ $.b.}.'.S N f  .hXzXhXhXfXhXeXm N 3 yXn.. .                                       ",
"                                    . . > ] h.n.n.X.V 6 . . . > : . Z <XeXdXfXfXlX9XJ B.2 r dXhXsXsXsXgXeXz N 3 .X.X. .                                       ",
"                                    . < O.n.n. .a + . . & 0 ) x.^ . [ lXhXfXfXfXzX}.h 5.f 1 0XhXsXsXsXlXdXi 3 # 6 6 . .                                       ",
"                                  . q O.+.E 6 . . . . 5 z M 4.x.5.. R zXfXsXsXsXhX5X1 m 5 X 6XhXsXfXzX<XB @ * 5 2 1 . . .                                     ",
"                                . = ' s . . . . 1 @ . & x x ) a.x.1 y hXfXsXsXsXhXeXX * 3 * eXhXfXgXg.@ 2 5.S.F.F.&XD.L . .                                   ",
"                                . w q = % . 7 D.tX7XK . 8 z J i.x.k O dXgXsXsXsXfXfXi . X 8 sXfXjX{ 1 L G.&X7XpXjXnXaX7Xa.. .                                 ",
"                                . . . . + + p.D.c.pXtX3 # F F 3.t.G . <XhXsXsXsXsXzX8XX . n.hXhX X* ..S.A.F.7XpXjXjX7XF.&Xl .                                 ",
"                                      . . 7 p.g * 1 p.K . F F 3.x.t.# @.hXfXfXfXsXfXhXwX9XfXfXhXE 8 p.G.V.A.&X7X7X7XF.V.A.l .                                 ",
"                                        . 7 y.g y.% & K o F 4.3.3.5.X s dXdXsXfXsXfXsXhXhXsXfXfXZ g p.Z.C.V.V.A.A.V.V.A.c.+ .                                 ",
"                                        . X ^ y.D.A . @ . 8 x 3 & 4 O O.qX8XwXeXyXyXpXyXyXyXdXaXO.@ i.u.p.Z.B.B.B.B.Z.p.8 .                                   ",
"                                        . . e p.F.c.. . . & X > [ b.{.<X<X,X5X4X4X8X8XqXqXwXqXqX<Xy 1 K y.u.u.u.u.u.~ & .                                     ",
"                                          . . B c.&X4.e B F A b.>X}.}.}.}.>X>X<X,X4X,X4X4X4X4X4X8X'.` > X @ 1 & X . . . .                                     ",
"                                            . . % i.&XtXN.S K -.m.{.{.{.{.}.;X>X>X>X>X>X>X<X4X4X8X}.'.m.&.Z s Z R y . .                                       ",
"                                              . . . A p.K 5 7 E @.b.{.|.'.{.}.}.}.;X>X>X}.>X<X4X8X4Xm.'.:X:X'.'.:X' . .                                       ",
"                                                . . . . . . . + p [ b.'.|.{.{.{.}.}.-X}.}.-X>X4XqX$.e q a a q p < . .                                         ",
"                                                    . . . . . . . % Z @.b.m.'.|.{.;X<X,X,X<X;X}.}.=.' R Z u : . . .                                           ",
"                                                                . . . > V ] | $.b.#.E E ' ] | -.=.=.#.{ V % . . .                                             ",
"                                                                  . . . . . > u y $ $ . . . . r E V w + . . .                                                 ",
"                                                                  . . 9 P ; . . V %X~ e } g.C . % . . . .                                                     ",
"                                                                . . j w.!.v . B 0XyX XrXaXjXg.. - ; % . .                                                     ",
"                                                              . . 4 1.H.e.o + N.rXyXfXhXzXkXy } ~ o - . .                                                     ",
"                                                              . . Y e.!.<.. B 6X6XdXfXdXXX:.=XhXg.X w o .                                                     ",
"                                                              . ; ,.w.!.! . A 6XrXdXfXdX0XyXnXdX6 . r = .                                                     ",
"                                                              . o ,.e.e.V . A 6XyXxXsXfXhXzXfXE . + r e . .                                                   ",
"                                                              . . s s.( V . E 6XyXdXdXsXdXwX&.q A X w V . .                                                   ",
"                                                              . . + E  .{ . e [.rXdXsXsXyX X[.rX~ . % 6 . .                                                   ",
"                                                                . . o a ] 6 . ~ 6XuXaXsXfXaXtXz.. . . . . .                                                   ",
"                                                                  . . . O % . . i g.[.%X%Xk.V . . 4 3 & . .                                                   ",
"                                                                    . . . . . . . . . + . . . @ k z n n l . .                                                 ",
"                                                                  . . . . 3 z g % + . . . + # l n M M n M 8 .                                                 ",
"                                                                . . % . & G 2.2.G F k 8 8 8 g z z D H G D z .                                                 ",
"                                                                . : ` o n >.G G H 2.G f 5 g k z z D H H H M o .                                               ",
"                                                                . d ` X M >.H H H H D 5 k k l x z D D D H x . . . . .                                         ",
"                                                                . ` ` # k H H H H G x g k 3 8 z z M D J 8 . . u ` , . .                                       ",
"                                                                . d =.5 1 g x x x g f 3 @ . 3 z z n n 3 . ' 1X2XiX| . .                                       ",
"                                                                . < -.u . $ 1 5 5 1 # . . . + l f 8 q d *.1X=X*.` , . .                                       ",
"                                                                . . ` *.6 : = % % O . .   . . X 6 d *.M.-.' d , . . .                                         ",
"                                                                  . . ` ` ` ` Z Z y .       . . < y y , O . . . . .                                           ",
"                                                                    . . . O : : . . .       . . . . . . . . . .                                               ",
"                                                                          . . .                                                                               ",
"                                                                                                                                                              ",
"                                                                                                                                                              ",
"                                                                                                                                                              ",
"                                                                                                                                                              ",
"                                                                                                                                                              ",
"                                                                                                                                                              "
};
