/* XPM */
static char *_332c5ca01ad4f4aae0c7e859924ff5cDy8diW35G073nUxo[] = {
/* columns rows colors chars-per-pixel */
"79 79 246 2 ",
"   c #0000FF",
".  c #000000",
"X  c #0A0503",
"o  c #0D0904",
"O  c #0D0B0A",
"+  c #07050A",
"@  c #130402",
"#  c #120A05",
"$  c #1B0B05",
"%  c #130C0A",
"&  c #1B0705",
"*  c #15110E",
"=  c #1B130C",
"-  c #1A1204",
";  c #151211",
":  c #1C1512",
">  c #1E1915",
",  c #1D1A1B",
"<  c #100F11",
"1  c #270B09",
"2  c #241A0C",
"3  c #2A1B0B",
"4  c #27160A",
"5  c #241C15",
"6  c #2C1C13",
"7  c #261916",
"8  c #361913",
"9  c #320A06",
"0  c #2B200B",
"q  c #34230C",
"w  c #38270A",
"e  c #2B221D",
"r  c #282119",
"t  c #3B231A",
"y  c #342718",
"u  c #292726",
"i  c #332B23",
"p  c #3B2B23",
"a  c #352623",
"s  c #39312B",
"d  c #383432",
"f  c #1B2022",
"g  c #461C16",
"h  c #4F1914",
"j  c #6C1F16",
"k  c #46310E",
"l  c #4C291D",
"z  c #462717",
"x  c #542B1D",
"c  c #59291B",
"v  c #493618",
"b  c #553B13",
"n  c #573505",
"m  c #643112",
"M  c #492925",
"N  c #572C23",
"B  c #473729",
"V  c #5C3222",
"C  c #5A362C",
"Z  c #463B35",
"A  c #533B31",
"S  c #693727",
"D  c #763B27",
"F  c #683A34",
"G  c #783D37",
"H  c #5B451B",
"J  c #66481A",
"K  c #7A561B",
"L  c #6D4E16",
"P  c #584429",
"I  c #4A433B",
"U  c #52453A",
"Y  c #5A493B",
"T  c #654B24",
"R  c #774529",
"E  c #6E552C",
"W  c #6C5222",
"Q  c #785925",
"!  c #654938",
"~  c #784539",
"^  c #68533D",
"/  c #745937",
"(  c #7F6235",
")  c #5A4B43",
"_  c #5C5248",
"`  c #5B5656",
"'  c #494745",
"]  c #654D43",
"[  c #774943",
"{  c #64544C",
"}  c #6B594D",
"|  c #685444",
" . c #735B46",
".. c #6B5C56",
"X. c #745F55",
"o. c #7B6248",
"O. c #6E625B",
"+. c #7C6655",
"@. c #75635A",
"#. c #79665A",
"$. c #796658",
"%. c #776B66",
"&. c #777070",
"*. c #893528",
"=. c #885F1B",
"-. c #986819",
";. c #8D621D",
":. c #84452C",
">. c #8A482D",
",. c #8A4C35",
"<. c #964B33",
"1. c #9B5537",
"2. c #87562F",
"3. c #AC5839",
"4. c #8B6628",
"5. c #996C27",
"6. c #886736",
"7. c #9C7438",
"8. c #947032",
"9. c #A77B2A",
"0. c #A77B33",
"q. c #B06E2F",
"w. c #AE731E",
"e. c #C2583D",
"r. c #83574A",
"t. c #9C5D55",
"y. c #894E49",
"u. c #AB574F",
"i. c #896949",
"p. c #987749",
"a. c #866A56",
"s. c #8B725C",
"d. c #8A7256",
"f. c #977858",
"g. c #936A50",
"h. c #A27E4E",
"j. c #A47A58",
"k. c #AE6450",
"l. c #897568",
"z. c #937964",
"x. c #957C6A",
"c. c #937D72",
"v. c #847875",
"b. c #B37665",
"n. c #CA5D53",
"m. c #D15F58",
"M. c #FD594A",
"N. c #FF5F52",
"B. c #D2675D",
"V. c #C56A50",
"C. c #FF6658",
"Z. c #CD6E65",
"A. c #D76C62",
"S. c #D07066",
"D. c #FE7C6C",
"F. c #F17267",
"G. c #B88735",
"H. c #B98E26",
"J. c #DE991C",
"K. c #EC9C0C",
"L. c #E59B15",
"P. c #F4B508",
"I. c #FFB717",
"U. c #EDA511",
"Y. c #D59729",
"T. c #CD9334",
"R. c #CB9238",
"E. c #C59436",
"W. c #D69939",
"Q. c #C58E30",
"!. c #E29C28",
"~. c #DCA239",
"^. c #E8AA38",
"/. c #ECAB2E",
"(. c #FFC410",
"). c #A98449",
"_. c #A88457",
"`. c #B48C56",
"'. c #BE9250",
"]. c #9B8376",
"[. c #928271",
"{. c #A48A7B",
"}. c #AB8D7D",
"|. c #A38775",
" X c #B6947D",
".X c #B58B72",
"XX c #C39856",
"oX c #D29E56",
"OX c #D69B49",
"+X c #F9B747",
"@X c #F3B44F",
"#X c #D69576",
"$X c #C8926F",
"%X c #FF8879",
"&X c #ECA47E",
"*X c #FFD148",
"=X c #7D7D80",
"-X c #98928C",
";X c #AB9584",
":X c #B39382",
">X c #BC9A88",
",X c #BB9985",
"<X c #AE948A",
"1X c #B3A68E",
"2X c #BBBBBA",
"3X c #AAAEB5",
"4X c #C39D8A",
"5X c #C69E89",
"6X c #DC9A81",
"7X c #FD9687",
"8X c #EE9E83",
"9X c #CAA28D",
"0X c #C6A38D",
"qX c #CCA792",
"wX c #D4AC93",
"eX c #DAB797",
"rX c #CCAE91",
"tX c #F1A987",
"yX c #FCB389",
"uX c #FCAB94",
"iX c #E9B89A",
"pX c #FDBA9A",
"aX c #E7A388",
"sX c #C3B7A6",
"dX c #F8BFA1",
"fX c #E9C29F",
"gX c #FDCBA5",
"hX c #FFCFA9",
"jX c #F7C5A5",
"kX c #FFD3AB",
"lX c #FFD8AF",
"zX c #FFDCB3",
"xX c #FDD9B6",
"cX c #F0C9AE",
"vX c #FFE3B9",
"bX c #FFE8BD",
"nX c #DDC79B",
"mX c #BDC4CC",
"MX c #D5D5D5",
"NX c #CECDCD",
"BX c #E6D9D2",
"VX c #FAECC8",
"CX c #FFFFFF",
"ZX c #F9F9F7",
"AX c #EBE9E6",
"SX c #CED6E2",
/* pixels */
"                                                                                                                                                              ",
"                                                                                                                                                              ",
"                                                                                                                                                              ",
"                                                                                                                                                              ",
"                                                                                                                                                              ",
"                                                                                                                                                              ",
"                                                                                                  . . . . . .                                                 ",
"                                                                                            . . . . . . . . . . .                                             ",
"                                                                                        . . . + q L -.-.-.;.b . .                                             ",
"                                                                                      . . X b w.!.I.(.(.I.I./.W . .                                           ",
"                                                                                  . . . w 9./.U.U.P.P.P.P.P.!._.e .                                           ",
"                                                                                . . . b W.!.L.K.K.U.P.P.U.U.Y.f. .X .                                         ",
"                                                                            . . . . b ~.W.Y.L.K.K.K.U.L.Y.^.W./ B % . .                                       ",
"                                                                        . . . # . q W.W.T.Y.J.J.J.J.Y.!.^.5.0 . X 4 X .                                       ",
"                                                                    . . . . 3 . o 0.W.R.R.T.Y.Y.Y.Y.~.^.J . = =.W 6.L . .                                     ",
"                                                                  . . . 2 T - . 4.R.R.R.R.R.T.T.T.T.W.J . B OX).-X2XrXE . .                                   ",
"                                                                . . . k 7.w . Q G.R.R.R.R.R.E.G.G.0.K . U $XE.=XZXMXMXsX0 .                                   ",
"                                                              . . o J 8.w % i.p.0.W.R.G.G.0.0.8.4.W $ e s.oXW mXCXAXNXMXO.. .                                 ",
"                                                            . . 5 i.0.k P d.z.i.8.G.0.7.4.J q . . . . ^ z.oXE SXCXCXBXMX1X. .                                 ",
"                                                            . : a.j.i.o.z.s.i.8.0.4.J 2 . . - H 5.Q.v a.f.oXQ NXCXCXZXNX2X, . .                               ",
"                                                          . . U z.d.a.s.a.s.7.4.k . X b 9.^.+X@X@XOXB o.d.XXQ 3XCXCXCXMXNXd . .                               ",
"                                                            . ) s.a.s.s.z./ q o 0 5.^.*X@XXXp.d.).XXE o.a.`.8.` CXCXCXAXMX' . . .                             ",
"                                                          . . U l.l.l.} i q L T.*X@X'.d.@.@.$.$.d.`.( Y a.f.).B mXCXCXZXMXd X 6 . .                           ",
"                                                          . . Y z.} Z J H.+X@X'.d.X...@.$.+.+.+.a.f.p.B !  .i.E I 2XCXCX2X; y ! # . .                         ",
"                                                          . . 2 5 B 8.OXXXd.O...O.#.#.#.#.$.$.+.+.d.`.8.5 i Y / v i [.-Xs o ! ! 3 . . . .                     ",
"                                                          . . y i._.f.@.....@.#.#.#.#.#.#.#.#.#.a.f._.XXE . o 5 y = . . . X 2 y 4 4 = * % . . . . .           ",
"                                                          . * d.f.#.O.@.#.@.@.#.#.#.#.#.a.a.s.f.p.i./ E J k 3 $ - 2 w J K =.;.5.5.;.6.! A B s s e O .         ",
"                                                        . . Y s.@.@.@.@.@.@.@.#.#.#.X.^ E W H P T T W K 4.9.9.9.5.5.-.4.K b k w 3 - % X O 5 i i > X .         ",
"                                                        . ; @.#.#.#.#.#.@.X...} ^ ! ! P / 6.p.p.p.8.6.4.J w 3 - X . . . . . . . . X ; r e ; % . . .           ",
"                                                      . . i d.d.+...{ ) { } | o.p.p.h.h.i./ P t 5 X . . . . . . . . + . X . X o ; ; * X . . . .               ",
"                                                    . . . 2 y 4 e B ^ o.g.h.h.i./ v 4 o . . . . . . X i d I { $.l.|.s.6 $ y U O . . . .                       ",
"                                                    . . = 2 p Y o._._.h.i.P 2 % . . . ; r s Z 5 & 1 Y :XeXwXiXjXkXbX.Xh 9 a.fXX .                             ",
"                                                  . X B  .+.z.[.f.o.B : . . . X i U } z.|. XrX[ *.j 8 9XbXlXlXlXkXzXr.j h  .lX* .                             ",
"                                                . o U d.z.x.a.B : . . . 2 M . O |.fXcXlXzXzXvX! e.*.1 s.zXkXhXhXkXzXa.c h B eXi .                             ",
"                                              . O | x.z.} s O . . & 8 S k.V.4 . iXbXlXkXhXlXlXB *.D @ ! zXkXhXgXzXvX+.@ $ o X . . .                           ",
"                                            . O { @.Z 5 . . . . $ x c D 1.V.x . qXzXhXhXhXkXzXA 9 h X ! vXhXkXvXeXB X 1 h j h 9 . . .                         ",
"                                          . . Z Z X . . . g h @ . 8 x V ,.k.>.. .XvXhXhXhXhXvX^ . 9 @ r.bXhXzX|.1 1 <.F.%X7X7X7XB.M . .                       ",
"                                          . O 5 ; * O % u.uXhX7X8 . x S ,.k.1.. #.vXhXhXhXhXzX4X. . @  XzXzX.X& S A.D.%XuXxXVXxXuX%XC .                       ",
"                                          . . . . . . C S.y.k.hXk.. z S ~ 3.3.$ Z hXkXhXhXhXkXzX+.. ! hXzXjX8 N Z.C.C.%XuXgXxXpXD.D.m.. .                     ",
"                                                  . . [ G 1 & g t.= 8 R R k.V.D < eXzXkXkXkXkXlXzXeXkXlXzX X& y.Z.N.M.F.%X7X%X%XC.C.u..                       ",
"                                                  . . F S G ~ . M 6 3 :.,.,.,.z . }.jXjXgXgXgXgXhXkXgXgXzX,X% y.t.B.M.M.M.N.M.M.M.A.M .                       ",
"                                                  . . t y.u.S.. . . # g 4 X : : U >X5X5XqXwXiXiXiXiXiXiXdXwX: l t.t.k.n.n.n.n.B.k.C . .                       ",
"                                                    . . F Z.%XM . . % 1 = _ c.{.,X:X:X>X>X4X4X0X9X9X9X9X0X9Xl.* 8 F [ y.r.r.[ F 2 . .                         ",
"                                                    . . . F Z.F.~ F F S X.;X}.}.}.}.}.:X:X,X>X>X>X>X4X4X4X5X>Xv.I ; . . X . . . . .                           ",
"                                                      . . . 6 V.7X7X~ c { l.].}.{.|.{.}.:X:X:X:X:X:X:X>X4X9X4X].{.].%.) _ ..{ % .                             ",
"                                                        . . . o F F g $ r { @.c.{.|.|.{.}.}.}.:X:X:X}.:X>X0X9X].l.c.].c.l.c.%.; .                             ",
"                                                          . . . . . . . . * Z ..l.].|.{.{.}.}.}.}.:X:X:X,X9X|.s = 5 e 5 : % . .                               ",
"                                                              . . . . . . . . 5 Y @.l.c.].].{.}.}.}.}.{.{.{.c.#.{ ] Z > . . .                                 ",
"                                                                            . . . > B ) ..#.l.l.c.c.c.l.%.@.@.@.{ Z O . .                                     ",
"                                                                              . . . . . + : u Z ) ] ) I Z Z a ; X . .                                         ",
"                                                                            . . J T.Q w w k k 3 . . . o . . 3 - . .                                           ",
"                                                                        . . - v W G.+X+XE.9.^.*XL + ,XeXi.. -.Q.. . . .                                       ",
"                                                                    . . % ] j..X.X .T E.W.J =.H.n r xXVXnX= w w.$ % O . .                                     ",
"                                                                  . . ! #XdXhXhXVXbX Xv G.W K Y.n = VXCXCXP @ w.3 7 i.a . .                                   ",
"                                                                . . / &XuXkXkXkXZXZXVXz.b 0 b !.-.. 1XAX1Xy . J q + f.a.; .                                   ",
"                                                                . B i.b.iXlXkXgXzXxXlXfXy . - w 3 . 2 q 0 i = X o O | g.p . .                                 ",
"                                                                . 5 p #XaXlXkXhXgXgXlXhXa . X . . 5 <XsXcXBXrX* . o ! a.y . .                                 ",
"                                                              . . . j.tX.XiXlXkXkXkXlXpXa . t t . > ' i I _ _ . . . p B : . .                                 ",
"                                                              . . B yX#Xg.#XpXjXgXgXpX8X6 . l V . O U I i u . . . . p ! B . .                                 ",
"                                                                . p #Xp g.&X6XuXtXaX&X#XX . t C O # = 5 2 6 S S = . ] a.: .                                   ",
"                                                                . . 5 . $X&XaXj.a ! $Xj.. = S :.,.<.<.<.<.<.1.S % . 5 ; .                                     ",
"                                                                  . . p yXyXg.X = r.i.5 . 6 S D R :.>.:.:.D S 2 . . . .                                       ",
"                                                                    . = g.! . . B B : . X 6 V N x N V V x x t X . . .                                         ",
"                                                                      . . . . . . . . . o 2 x x x l l l l l 6 . .                                             ",
"                                                                            . X u O % % X = l x N D R :.>.D 6 .                                               ",
"                                                                              ; ..r = : X # t V D >.>.:.>.>.t .                                               ",
"                                                                            . O %.d # 2 % . 2 N D :.>.3.3.e.D .                                               ",
"                                                                              . ` %.r o # . 6 z S <.1.<.S z $ . .                                             ",
"                                                                              . , &.%.Z O . N D :.D z , f u f . . .                                           ",
"                                                                                . u ` ` ; . N S z u ' &.1XNXBX-X: .                                           ",
"                                                                                  . . . . . 6 e u ` &.&.v.v.v.%.u .                                           ",
"                                                                                          . . . . . . . . . . . . .                                           ",
"                                                                                                                                                              ",
"                                                                                                                                                              ",
"                                                                                                                                                              ",
"                                                                                                                                                              ",
"                                                                                                                                                              ",
"                                                                                                                                                              ",
"                                                                                                                                                              "
};
