/* XPM */
static char *b2b83b6068124002e9bd275664bd1bfap2c9xZXIPgVB19se[] = {
/* columns rows colors chars-per-pixel */
"79 79 247 2 ",
"   c #0000FF",
".  c #010000",
"X  c #0A0403",
"o  c #0C0904",
"O  c #0D0B09",
"+  c #060708",
"@  c #1B0403",
"#  c #140B04",
"$  c #130D0B",
"%  c #170A06",
"&  c #1C1206",
"*  c #15110C",
"=  c #1C130C",
"-  c #161007",
";  c #151313",
":  c #1B1513",
">  c #1E1915",
",  c #1B1A1A",
"<  c #130D11",
"1  c #260B08",
"2  c #22130D",
"3  c #281909",
"4  c #35150C",
"5  c #251B15",
"6  c #2A1C15",
"7  c #221D1A",
"8  c #281814",
"9  c #341A15",
"0  c #330D07",
"q  c #36260A",
"w  c #2D231C",
"e  c #2B2117",
"r  c #32251D",
"t  c #38291A",
"y  c #2E210B",
"u  c #2B2624",
"i  c #282626",
"p  c #382B24",
"a  c #3B322A",
"s  c #3A3636",
"d  c #481C16",
"f  c #501D12",
"g  c #442B0C",
"h  c #4A330D",
"j  c #472718",
"k  c #55281B",
"l  c #483517",
"z  c #543B14",
"x  c #5B3908",
"c  c #65231B",
"v  c #6D2C1D",
"b  c #472A23",
"n  c #542B24",
"m  c #463729",
"M  c #563727",
"N  c #453A34",
"B  c #573C31",
"V  c #673726",
"C  c #7C3E29",
"Z  c #743A27",
"A  c #773B37",
"S  c #6C3B34",
"D  c #6C1D13",
"F  c #5D4418",
"G  c #4F4013",
"H  c #674818",
"J  c #734F18",
"K  c #78551B",
"L  c #6E5214",
"P  c #574428",
"I  c #4D4138",
"U  c #53443C",
"Y  c #594636",
"T  c #674A29",
"R  c #6B532B",
"E  c #745627",
"W  c #664A39",
"Q  c #76443B",
"!  c #6B5538",
"~  c #785C37",
"^  c #7B442C",
"/  c #7D6330",
"(  c #7E611C",
")  c #494545",
"_  c #5C4D43",
"`  c #554C47",
"'  c #5A5655",
"]  c #5E5344",
"[  c #68564A",
"{  c #775B49",
"}  c #6C5B53",
"|  c #665B58",
" . c #725C55",
".. c #6C4D43",
"X. c #7B644A",
"o. c #756254",
"O. c #75645A",
"+. c #79665B",
"@. c #7C6857",
"#. c #6F605C",
"$. c #676161",
"%. c #7A716E",
"&. c #853D25",
"*. c #87591A",
"=. c #96681D",
"-. c #AD751B",
";. c #8A462C",
":. c #88462D",
">. c #835E24",
",. c #8B5239",
"<. c #96573B",
"1. c #844838",
"2. c #8A6626",
"3. c #956A27",
"4. c #9C742A",
"5. c #866738",
"6. c #9C7331",
"7. c #9A773C",
"8. c #A67A2C",
"9. c #B47C23",
"0. c #A97C34",
"q. c #A46F23",
"w. c #C3513F",
"e. c #8A5749",
"r. c #995B54",
"t. c #915248",
"y. c #B2544C",
"u. c #876B47",
"i. c #99774A",
"p. c #836D5B",
"a. c #856C53",
"s. c #996C55",
"d. c #8C725B",
"f. c #887157",
"g. c #967958",
"h. c #8F6B4D",
"j. c #B96844",
"k. c #A4625C",
"l. c #A37957",
"z. c #AC6C4D",
"x. c #816E64",
"c. c #897566",
"v. c #957C66",
"b. c #937E71",
"n. c #837E7E",
"m. c #A47562",
"M. c #D3594D",
"N. c #E75647",
"B. c #FF5B4B",
"V. c #FF5C50",
"C. c #D86258",
"Z. c #FE6759",
"A. c #E2695F",
"S. c #CB6F65",
"D. c #FF7566",
"F. c #E5736A",
"G. c #B98735",
"H. c #AD832E",
"J. c #EC9D0B",
"K. c #E49C15",
"L. c #F7B808",
"P. c #EAA417",
"I. c #F4AB14",
"U. c #D79727",
"Y. c #C48E37",
"T. c #CC9333",
"R. c #CC9338",
"E. c #C99539",
"W. c #D69939",
"Q. c #CE9125",
"!. c #D9A636",
"~. c #EBA42A",
"^. c #E6A936",
"/. c #EBB13D",
"(. c #E09E37",
"). c #FFE23F",
"_. c #AA8449",
"`. c #A78456",
"'. c #B58F55",
"]. c #9C8375",
"[. c #9C867A",
"{. c #98806A",
"}. c #A38361",
"|. c #BA8468",
" X c #A48A7B",
".X c #AB8D7E",
"XX c #A38878",
"oX c #B88A76",
"OX c #B2967C",
"+X c #C9964C",
"@X c #C29655",
"#X c #F5B646",
"$X c #F4B54E",
"%X c #C69278",
"&X c #D39376",
"*X c #FC867A",
"=X c #EE8779",
"-X c #ECA67E",
";X c #D7A351",
":X c #FAC54E",
">X c #938F8F",
",X c #AE8F80",
"<X c #AD9284",
"1X c #B39382",
"2X c #BB9986",
"3X c #AD9994",
"4X c #AEA591",
"5X c #B4B1B1",
"6X c #C29C8A",
"7X c #C59F89",
"8X c #DC9C86",
"9X c #FE9585",
"0X c #C7A58C",
"qX c #CCA891",
"wX c #DAAD94",
"eX c #D5AB92",
"rX c #D9AE92",
"tX c #EAA689",
"yX c #FBA78A",
"uX c #E9BB9C",
"iX c #FAB69A",
"pX c #F6B090",
"aX c #C9BCAE",
"sX c #F5C09D",
"dX c #EBC7A3",
"fX c #FECCA5",
"gX c #FFCEA9",
"hX c #F7C5A3",
"jX c #FFD2AB",
"kX c #FFD8AE",
"lX c #FFC8B1",
"zX c #FFDCB3",
"xX c #FCD9B3",
"cX c #E7DBBF",
"vX c #FFE1B7",
"bX c #FFE2B8",
"nX c #D1D1CF",
"mX c #D6D6D8",
"MX c #CFCCC8",
"NX c #FADDC5",
"BX c #FBE6C5",
"VX c #F3E8CF",
"CX c #D6DDE7",
"ZX c #FDFBE9",
"AX c #FFFEFF",
"SX c #F5F5F7",
"DX c #E8E9EA",
/* pixels */
"                                                                                                                                                              ",
"                                                                                                                                                              ",
"                                                                                                                                                              ",
"                                                                                                                                                              ",
"                                                                                                                                                              ",
"                                                                                              . . . . .                                                       ",
"                                                                                          . . . . . . . . .                                                   ",
"                                                                                    . . . . X 3 g g h q . . .                                                 ",
"                                                                                  . . . 3 J 9.P.I.I.I.~.8.- .                                                 ",
"                                                                              . . . - K U.I.I.L.L.L.L.I.^.~ . .                                               ",
"                                                                            . . . q Y.~.P.J.J.I.L.L.L.I.Y.g.m . .                                             ",
"                                                                        . . . . t R.(.U.K.J.J.J.J.P.P.~.E.h.Y . .                                             ",
"                                                                    . . . O . 3 R.W.T.U.K.K.K.K.K.U.^.Y.H = O X . .                                           ",
"                                                                . . . . - . X H.W.R.T.U.U.U.U.U.!.^.2.. . t z H 3 . .                                         ",
"                                                              . . . X l & . E W.R.R.R.T.T.T.W.W.^.K . : G.H.v.OX_.# .                                         ",
"                                                            . . . 3 2.l . J G.R.R.R.R.R.R.R.G.G.2.. N '.E.n.CXmXMXu.. .                                       ",
"                                                          . . . l 6.h . ~ i.G.W.R.Y.G.H.0.0.6.3.3 w g.;XR CXAXnXmXaX5 .                                       ",
"                                                        . . O ~ 6.h e X.}.u.H.Y.0.0.6.2.H t 3 . . { }.Y.] AXAXSXnXnX| .                                       ",
"                                                        . * X.`.~ W d.c.a.3.6.6.>.F 2 . . o q F t d.}.+Xo.SXAXAXDXnX>X. .                                     ",
"                                                      . . Y v.d.p.c.p.p.7.6.E 3 . o G 3.G.#X$XE.m d.g.+XW DXAXAXSXnX5XO . .                                   ",
"                                                      . O o.d.p.p.p.v.i.H & . g H.#X:X$X+X'.@X_.P a.f.@XR 5XAXAXAXCX5X7 . .                                   ",
"                                                      . + [ d.p.c.p.Y = y ( ^.:X$X'.d.@.o.@.`.'.R X.a.'.5.' AXAXAXDX5X, O + .                                 ",
"                                                      . + { v.p._ l L T.#X$X@Xh.}  .o.@.@.+.f.`.~ B X.X.i.M >XAXAXSX3XX t l . .                               ",
"                                                      . X B N a E W.:X@Xf.o.} O.O.+.@.+.@.@.a.i._.M p Y X.! t %.DXMX) # ! T - . . .                           ",
"                                                      . . = P i.`.d.} | O.O.O.+.+.+.+.O.+.O.a.g.'._.6 $ r Y m 5 7 $ . $ m r % X . . . . . . .                 ",
"                                                    . . = u.}.p.#.} O.+.O.O.+.+.+.O.+.+.p.d.g.g.i.7.T - . . + . . 1 g h F J J J T P a w 5 > X . .             ",
"                                                    . . ..d.O.O.O.O.O.O.O.+.+.+.+.a.u.~ ! ~ R F z z J >.>.K *.*.4.9.q.=.*.K J z l 5 5 u a a w X .             ",
"                                                    . 7 p.+.O.O.+.O.O.O.O.} [ ! P l F E E 5.5.7.7.6.3.>.J H z q 3 & o . . . . . . : 7 7 > O . .               ",
"                                                  . . m d.x.+.+. .} } [ Y ! ~ u.i.g.l.i.u.~ P t 5 & . . . . . . . . . . . + * > 7 : O . . .                   ",
"                                                  . . m R M N N U W X.h.i.i.i./ P l y o . . . . . + * e p N N U m # # * > + O . . . .                         ",
"                                                . . X # = w I u.l.`.l.5.P r - . . . + ; * . . - U v.b.{.2XqXuXjXd.4 1 v.v.. .                                 ",
"                                              . . r Y W p.v.}.l.~ B 2 . . + : u N _ } c.b.n c d ..gXzXzXzXjXzXjXQ D 0 OX0X. .                                 ",
"                                            . . m a.c.{.v.[ m * . . . + . 7 x.OX0XsXhXgXdXZ M.f 0 rXzXgXgXgXjXdXT v 0 v.dX. .                                 ",
"                                          . . I c.v.d...5 . . . 2 k t.,.. p gXbXzXkXjXzXuXj w.k @ oXzXgXgXgXzXzXW 4 2 t U + .                                 ",
"                                        . X _ d.o.N * . . . 2 k k 1.j.j.# , jXjXgXgXgXkXdX9 c d . m.bXgXgXzXhXa.2 X @ @ X . . .                               ",
"                                      . . I _ > . . . . . . % k k V <.j.j + sXzXgXgXgXjXgX8 @ 4 X |.vXgXvXeXp . k y.C.C.C.y.n . .                             ",
"                                      . 7 a : X . X A =X=XA . 4 k V <.j.Z . 0XzXgXgXgXjXvXY . @ @ wXzXzXOX1 d y.D.9XiXlXNXlX9Xy.. .                           ",
"                                      . . . O O . Q F.=XlXlXd . k V ,.j.;.. c.zXgXgXgXgXzXwXX . B kXzXuX4 n S.D.D.*XiXBXBXiX*X*XA .                           ",
"                                        . . . . X r.A @ 4 S.t.. k V ,.j.j.2 U jXkXjXjXjXjXzX7Xp.uXzXbXv.1 e.A.B.Z.*XyXyXyX*XZ.Z.1..                           ",
"                                              . $ t.j S 6 X Q % k ^ ,.z.j.d < uXjXgXjXjXjXjXzXvXkXgXvXo.1 r.S.Z.B.V.Z.D.Z.B.B.A.r .                           ",
"                                              . . Q Q y.Q . 2 X 9 V k 4 4 . p qXeXwXuXuXuXhXhXuXuXhXjXv.X e.r.k.C.N.N.N.N.C.S.Q . .                           ",
"                                              . . 9 r.F.S.. . . X X . p [ x.,X2X6X6X6X7XqXeXwXwXwXwXwX6Xu 1 ..t.r.k.k.k.k.r.b . .                             ",
"                                                . . b k.*Xt.$ : n n } .X<X1X.X.X1X2X2X2X6X6X2X6X6X6X6X0X,XI $ % 2 9 9 2 % X . .                               ",
"                                                  . . * t.*X9XS.S V x.].XXXXXXXX X,X1X1X2X2X2X2X2X6X0X0X1X[.c.` u ; 7 u : . .                                 ",
"                                                    . . . S S.r.k 9 ` O.c. XXX].XX.X.X.X1X,X.X.X1X2X6X0X0X[. X<X<X[.[.<Xx.. .                                 ",
"                                                      . . . X % O . O N [ x.].XXXXXXXX.X.X,X,X,X,X2X2XqX].I a I U m N N $ .                                   ",
"                                                        . . . . . . . . 7 _ O.c.b.].XX X.X.X.X.X.X.X,X2Xx.N p p p : . . .                                     ",
"                                                                      . . . 7 U } +.x.b.].].].].].b.c.x.c.x.+._ w + . .                                       ",
"                                                                          . . . O > p U [  .+.+.O. .[ _ U m 7 . . . .                                         ",
"                                                                        . . . q . . X . + < , > $ O $ : . . . . . + . .                                       ",
"                                                                . . . . . H 8.Y.8.2.( 4.4.h . . e r . X H y . 9 W W w . .                                     ",
"                                                            . . . . $ $ O z H.!.W.W.G.8./.).q m xXdXX.X Q.=.. ..%Xl.Y $ . .                                   ",
"                                                          . . O W m.oX%X%X{ < K !.Y.Y.4.=.-.1 Y BXNX0X. H *.. r W %XW 7 m .                                   ",
"                                                        . . r |.yXpXgXgXkXbXwXw H.E.2.2.9.Q.3 P ZXAXZX- g 9.2 . B 8XN p h.= .                                 ",
"                                                        . t h.|.tXjXjXgXZXAXBXXXy H.E P q.~.x e VXZX2X- . =.H . s.oXw { s.8 .                                 ",
"                                                      . . 6 p oXtXjXjXgXzXVXzXdX: J T R =.*.3 . 3 3 o o . = g . w r Y |.{ O .                                 ",
"                                                      . . . |.tX8XjXjXgXfXfXjXhX6 h l q # . . O b.aXNXBXv.. . . . r m.m.W . .                                 ",
"                                                        . e.iX%Xm.uXjXjXjXjXzXpX= . . . . O - % , s a ` ] . . . . X W e.b .                                   ",
"                                                        . s.l.B |.tXiXhXgXgXsX&X. . O j V Z C Z d X . + X . . ; $.N . O . .                                   ",
"                                                        . r X B -X&XtXpXpXtXyXs.. . M ;.:.&.C Z Z V B b 8 . $.AXmX3Xi . .                                     ",
"                                                        . . + &XyXtXl.m B |.-Xr . 9 &.&.:.;.:.;.:.:.,.T . N AXn.u ) i . .                                     ",
"                                                          . : &X&XW . $ W s.Q . . n &.&.:.:.:.:.:.;.<.6 . 3X>Xi N ) : .                                       ",
"                                                          . . . + . . p B t . . = 6 n C Z Z C C C :.^ . s 3Xs s ` s $ .                                       ",
"                                                            X . . . . . . , . X 8 2 8 b M M V Z Z C k . ' | i ) ) i + .                                       ",
"                                                                      . . ` i . : $ $ O * 6 p n M Z k O $.s s ` s ; .                                         ",
"                                                                        . ' ) . $ 8 2 $ . . . + $ 9 4 + ` s N s 7 . .                                         ",
"                                                                        . i %.i . $ 6 6 8 $ . . . . . . O i u : . .                                           ",
"                                                                        . . ' %.; . . O 2 $ . . . . . . . O O . .                                             ",
"                                                                          . , ' $.a 8 7 s O . .           . .                                                 ",
"                                                                          . . ; ) | [ | s .                                                                   ",
"                                                                            . . . ; i , . .                                                                   ",
"                                                                                  . . . .                                                                     ",
"                                                                                                                                                              ",
"                                                                                                                                                              ",
"                                                                                                                                                              ",
"                                                                                                                                                              ",
"                                                                                                                                                              ",
"                                                                                                                                                              ",
"                                                                                                                                                              "
};
