/* XPM */
static char *_969b6df1aef4141844791974009ed021vDKScXPPbpBj359[] = {
/* columns rows colors chars-per-pixel */
"79 79 250 2 ",
"   c #0000FF",
".  c #010000",
"X  c #0A0503",
"o  c #0C0905",
"O  c #0C0A0A",
"+  c #07080A",
"@  c #130A04",
"#  c #120D0A",
"$  c #180705",
"%  c #191105",
"&  c #14110D",
"*  c #1A130C",
"=  c #171105",
"-  c #1B1512",
";  c #191615",
":  c #0F1013",
">  c #250B08",
",  c #22130C",
"<  c #241A0A",
"1  c #2B1C0C",
"2  c #291607",
"3  c #33140C",
"4  c #231613",
"5  c #231B15",
"6  c #231C19",
"7  c #2A1B16",
"8  c #391A15",
"9  c #33230B",
"0  c #392809",
"q  c #2B211B",
"w  c #24221F",
"e  c #34241B",
"r  c #382618",
"t  c #3F3117",
"y  c #2E210A",
"u  c #2A2522",
"i  c #342B24",
"p  c #372D27",
"a  c #3D322A",
"s  c #383128",
"d  c #333435",
"f  c #1C2027",
"g  c #461C16",
"h  c #4A180F",
"j  c #432C0C",
"k  c #47251A",
"l  c #57291A",
"z  c #483516",
"x  c #553C15",
"c  c #4F380F",
"v  c #662617",
"b  c #722E1B",
"n  c #4B2B26",
"m  c #5A2C25",
"M  c #42352C",
"N  c #4C3B2C",
"B  c #4A3727",
"V  c #57362A",
"C  c #443A33",
"Z  c #4A3C34",
"A  c #423D3A",
"S  c #573431",
"D  c #693725",
"F  c #763824",
"G  c #673A34",
"H  c #71332D",
"J  c #681F14",
"K  c #5D400B",
"L  c #5A4219",
"P  c #654919",
"I  c #78551A",
"U  c #6F4E15",
"Y  c #57442A",
"T  c #52443B",
"R  c #594838",
"E  c #4C4033",
"W  c #634B2C",
"Q  c #6C5128",
"!  c #795A27",
"~  c #614A38",
"^  c #77473B",
"/  c #69553A",
"(  c #745A38",
")  c #76442C",
"_  c #7C612E",
"`  c #3E3E41",
"'  c #484544",
"]  c #5D4D42",
"[  c #554A46",
"{  c #5C5650",
"}  c #67574A",
"|  c #735444",
" . c #795948",
".. c #6C5C54",
"X. c #675C58",
"o. c #745C54",
"O. c #7F4944",
"+. c #7E654B",
"@. c #6D6155",
"#. c #756356",
"$. c #7B6654",
"%. c #75645A",
"&. c #79665A",
"*. c #7D695D",
"=. c #7E6855",
"-. c #796B66",
";. c #747270",
":. c #685F60",
">. c #893D24",
",. c #903F27",
"<. c #845B1C",
"1. c #835C0D",
"2. c #8E651F",
"3. c #974228",
"4. c #845D24",
"5. c #8D4F38",
"6. c #A85233",
"7. c #896525",
"8. c #946C29",
"9. c #99722B",
"0. c #886736",
"q. c #9C7433",
"w. c #9A763B",
"e. c #916E3C",
"r. c #A57B34",
"t. c #AD742C",
"y. c #8C4D45",
"u. c #84594C",
"i. c #955748",
"p. c #935A53",
"a. c #AC554D",
"s. c #886A47",
"d. c #9A794B",
"f. c #846C53",
"g. c #846D5C",
"h. c #8A6A55",
"j. c #926956",
"k. c #8B725C",
"l. c #897159",
"z. c #987A58",
"x. c #926E41",
"c. c #A66244",
"v. c #B86842",
"b. c #A5625B",
"n. c #A57C56",
"m. c #AD6F54",
"M. c #897567",
"N. c #947A63",
"B. c #947B69",
"V. c #937E72",
"C. c #88766F",
"Z. c #B47962",
"A. c #CC5748",
"S. c #E75548",
"D. c #FF5949",
"F. c #F35E53",
"G. c #D26359",
"H. c #C36858",
"J. c #FF6355",
"K. c #E06158",
"L. c #D27167",
"P. c #FF7466",
"I. c #F4756A",
"U. c #B88736",
"Y. c #B5892D",
"T. c #B58016",
"R. c #D4931E",
"E. c #EC9D0B",
"W. c #E69C14",
"Q. c #F8B908",
"!. c #F6A91A",
"~. c #F1AC12",
"^. c #D69827",
"/. c #C28C36",
"(. c #CB9238",
"). c #CA9235",
"_. c #D49838",
"`. c #C88F29",
"'. c #D9A439",
"]. c #E5A328",
"[. c #F2AC27",
"{. c #E8AB38",
"}. c #E59D25",
"|. c #A68456",
" X c #B58B4F",
".X c #998169",
"XX c #9D8475",
"oX c #998577",
"OX c #B78664",
"+X c #A58A7A",
"@X c #AB8D7E",
"#X c #A58977",
"$X c #B4967D",
"%X c #AC8B71",
"&X c #C49451",
"*X c #D19C43",
"=X c #F9B548",
"-X c #EAB04E",
";X c #CD9477",
":X c #FE8779",
">X c #E5967B",
",X c #DAA16B",
"<X c #FFC64D",
"1X c #919090",
"2X c #AB8F81",
"3X c #AE9384",
"4X c #B39382",
"5X c #BB9985",
"6X c #A79898",
"7X c #B1A89B",
"8X c #B2ADAB",
"9X c #C29D8A",
"0X c #FC9283",
"qX c #C7A289",
"wX c #D8A586",
"eX c #CEA592",
"rX c #DAAD96",
"tX c #D2AA92",
"yX c #D8B595",
"uX c #C4B19D",
"iX c #F6AA86",
"pX c #FFA793",
"aX c #E8BB9A",
"sX c #F9B894",
"dX c #EFA985",
"fX c #CBBBB4",
"gX c #F5BDA1",
"hX c #FAC29D",
"jX c #EAC29E",
"kX c #D0C4B9",
"lX c #F4C4A2",
"zX c #FFCBA6",
"xX c #FFCEA9",
"cX c #F9C8A5",
"vX c #FFD3AC",
"bX c #FFD8AE",
"nX c #FFDCB3",
"mX c #FFD8B8",
"MX c #ECCEAC",
"NX c #FFE0B7",
"BX c #FFE3B9",
"VX c #D1D0CD",
"CX c #D6D7DA",
"ZX c #CFCDCC",
"AX c #F8EBCC",
"SX c #ECEAE9",
"DX c #FFFFFE",
"FX c #F6F8FB",
"GX c #F6F4EF",
"HX c #ECDDD2",
/* pixels */
"                                                                                                                                                              ",
"                                                                                                                                                              ",
"                                                                                                                                                              ",
"                                                                                                                                                              ",
"                                                                                                                                                              ",
"                                                                                                                                                              ",
"                                                                                                                                                              ",
"                                                                                                                                                              ",
"                                                                                                                                                              ",
"                                                                              . . . . . . . . .                                                               ",
"                                                                          . . . . o 9 j j z 1 . . .                                                           ",
"                                                                        . . . 9 <.`.!.!.!.!.].8.. .                                                           ",
"                                                                    . . . < 7.}.!.!.Q.Q.Q.Q.~.'.Y . .                                                         ",
"                                                                  . . . L ).[.W.E.E.Q.Q.Q.~.~.U.k.q .                                                         ",
"                                                              . . . . L '._.R.E.E.E.E.E.W.].].U.f.N . .                                                       ",
"                                                          . . . o . t '._.).^.W.W.W.W.W.].{.U.x # @ X . .                                                     ",
"                                                      . . . . % . * /._.(.).^.^.^.^.^.'.{.U . o j x P @ .                                                     ",
"                                                    . . . @ z o . 8._.).(.(.).).)._._.{.L . q (.w.oX$Xe.. .                                                   ",
"                                                  . . . 0 8.1 . 7.(.(.(.(.(._._.(.U.U.I . R &XU.1XCXCXkX/ .                                                   ",
"                                                . . . L q.9 @ 0.r./._.(.(.U.U.r.r.9.4.@ M |.*X} FXFXVXCX7XX .                                                 ",
"                                              . . * 0.8.0 e h.z.e.U./.r.r.q.7.L 0 2 . o +.OXt.:.DXDXSXZXVXA .                                                 ",
"                                            . . 6 h.|.( / N.M.s.8.q.q.! x % . . @ c c M z.OX/.;.DXDXDXCXVX;.. .                                               ",
"                                            . X ..z.h.g.M.g.h.q.9.P < . % L 8.).=X<Xr.N z.|. X} DXDXDXGXVX1X. .                                               ",
"                                            . - g.l.g.g.k.N.x.L @ . x Y.<X=X-X&X X&Xw.Y l.z.&XY CXDXDXFXCX8XX . .                                             ",
"                                            . & $.l.l.M.f.N % 0 7.{.<X-X|.l.#.$.f.|. XW f.l.OXQ ;.DXDXDXSX7XX = . .                                           ",
"                                            . & g.N.&.T z I '.=X-X Xf.@.o.#.=.=.$.l.|.W R +.f.x.E 8XDXDXSX1X. B e . .                                         ",
"                                          . . # R M M 4.-X-X Xf.#.X.%.%.&.&.$.$.$.h.n.|.z M ~ +.W i 1XSX8Xs < ( V @ . .                                       ",
"                                            . . < R n.|.h.X.X.%.%.&.&.&.&.&.%.#.#.f.z. Xw.* # p R t 5 6 o . 5 B 7 @ X . . . . . .                             ",
"                                          . . q z.z.*.X.X.%.&.&.%.%.&.&.%.*.*.k.k.z.d.d.w.x @ . . X . . 2 j c P U U I W N a q 5 ; X .                         ",
"                                          . X ..k.#.%.%.%.%.%.%.&.*.*.*.f.s.( / ( Q L x x I 4.4.I <.4.t.t.9.2.<.I P x t 5 5 i a a 6 X .                       ",
"                                          . i g.&.%.%.%.%.%.%.%...} / N z P Q ! 0.e.w.w.q.7.! U x c 0 < % o . . . . . X ; 5 6 - X . .                         ",
"                                        . . R N.g.*.%.o.X.X.} ~ ( ( s.d.n.n.d.x.( Y e < % . . . . . . . . . . . X & ; 5 - o . . .                             ",
"                                      . . . Y W N Z Z R / +.d.d.d.x.( Y t 1 X . . . . . + & q p C Z ] i @ @ - - X X . . . .                                   ",
"                                      . . X @ , e R s.|.|.d.( Y e @ . . . + & O . X 4 ] B.B.XX5XtXaXMX| 3 2 $X... .                                           ",
"                                    . X p R } k..X|.d.( N = . . X ; u Z } ..M.M.k v g u.bXnXnXnXbXnXjXD J 3 aX.X. .                                           ",
"                                  . o E f.N..Xk./ B O . . . . . i B.$XtXhXlXbXtXF A.h k jXbXxXxXxXbXyXm b > qXqX. .                                           ",
"                                . O ] N.B.g.R - . . . 2 m c.^ . R nXnXnXbXbXBX5Xl A.h > wXnXxXxXxXNXMXB 8 , a Z . .                                           ",
"                              . # } M...a O . . . 2 l D 5.H.6.. C BXvXxXxXxXnXqX> b 8 X ;XNXxXxXNXjX| @ X $ $ . . .                                           ",
"                            . O ] T # . . . . . . , l l ) c.v.> w nXvXxXxXxXnXyXX > 3 X wXnXlXnX$X7 X H a.G.K.G.i.8 . .                                       ",
"                            . q p & X . # i.>XL.n . 8 l ) i.v.k + lXnXxXxXxXbXvXe . $ 3 MXbXnXB.> m G.P.0XgXxXmXgX0X5.. .                                     ",
"                            . X + O O . y.I.0XmXpX> @ D D 5.t.F . 5XnXxXxXxXxXNX5X. .  .mXbX@X> G L.P.P.0XgXAXAXpX:X:Xg .                                     ",
"                              . . . . # b.m $ g L.G . D D 5.v.6.@ *.nXbXvXvXxXvXnX%XM.lXnXbXN 3 b.I.D.J.:XpXpXpX:XJ.P.m .                                     ",
"                                    . 4 y.g ^ @ , H X D ) 5.c.v.> i cXvXvXvXvXvXvXnXnXbXvXxX5 k b.G.D.D.J.P.P.J.D.J.G.* .                                     ",
"                                    . X ^ H H.S . 4 + k D k 3 1 . [ eXeXrXaXaXgXlXjXaXjXlXxXT > p.p.m.K.S.S.S.S.K.H.S .                                       ",
"                                    . . n b.I.b.. . . @ X X C } M.4X5X9X9X9XqXeXrXrXrXrXrXrX4X& 8 O.p.p.b.b.b.b.y.7 . .                                       ",
"                                      . . S H.:XS # 4 m n &.3X3X4X@X@X4X5X5X9X9X5X5X9X9X9X9XeXV.i # $ 7 r 8 , % . .                                           ",
"                                        . . 4 b.:X0XZ.m G M.XX+X+X+X+X@X4X4X4X4X5X5X5X5X9X9XqX@XoX-.A O X ; u : . .                                           ",
"                                          . . X y.L.i.g 8 ] *.V.@X#XXX+X@X@X@X4X4X@X@X4X5X9XeX9XoX2X3XoXV.+X3X} . .                                           ",
"                                            . . . o @ X . & T ..M.XX#X+X+X+X@X@X2X2X3X4X5X9XeXM.C M T T M Z s . .                                             ",
"                                              . . . . . . . . u ] *.C..XXX#X+X@X@X@X@X@X@X3X4X%.C p i i - . . .                                               ",
"                                                            . . + u T ..*.M.V.XXXXXXXXXXV.M.M.M.-.&.[ 6 . . .                                                 ",
"                                                            . . . . . + ; a [ } #.*.*.%...} ] T a - . . .                                                     ",
"                                                            . X z z P z < X X O : ; - o X # - . . . . .                                                       ",
"                                                            . 1 I Y._./.Y.! 8.9.0 . O R s . % P 9 o .                                                         ",
"                                                          . 2 I `.[.[.[.].8.4.'.'.X C.AXmXa 2 ].c 0 X .                                                       ",
"                                                        . . c 0 0 K 1.T.[.^.P Q e.. { HXHX' X r.j 9 < . .                                                     ",
"                                                        . . 1 | j.h.| e K ].2.x q.2 f GXDX;.. 9.U = = q . .                                                   ",
"                                                      . . B wXNXnXvXvXhX .K U r q.j : SXDX8X. P 9.. * qXl.. .                                                 ",
"                                                    . .  .xXnXzXzXxXxXbXzX~ 0 0 U.L . d ' d . X 7.0 - %XaXs .                                                 ",
"                                                    . N hXhXzXzXxXxXmXvXvXOX@ y 2.1 . . . . . . % 9 6 j.qXN..                                                 ",
"                                                    . ;XwXwXxXzXzXvXvXvXbX;X. X X . @.fX7XfXuX} . . 7 u.h.%X. .                                               ",
"                                                  . # Z.| sXvXvXxXvXvXxXhXZ.. X . . kXSX[ X.6X8X. . # - M j..                                                 ",
"                                                  . O ^ | hXsXcXxXhXsXiXiXj.. . . . X.oXR T @.@.. . 6 M 7 | .                                                 ",
"                                                    . * n.iXj.;XsXs. .>X>XV . . @ . X q i ; 4 , . . 7 h.* o .                                                 ",
"                                                    . . OXdXn OXdXV V dX;X* . e D >.b v v v F F D X ; | . .                                                   ",
"                                                      . q  .& >XiXe 5 OX| + 7 l 3.6.3.>.F V G V B . . . .                                                     ",
"                                                        . . . ~ | X . - O 7 e l >.3.3.V 6 ; V G r . .                                                         ",
"                                                            . . . . . . 7 k m F >.3.F e O r 3.,.l X .                                                         ",
"                                                                    . , k l l k g 3 3 - . % g l h . .                                                         ",
"                                                                    . o 4 4 u ` -.{ : . . u d X.:.; .                                                         ",
"                                                                  . . ; ' [ -.V.fXfXX.. u X.-.6X7X{ .                                                         ",
"                                                                  . . . . . . . . X . . . . . . . . .                                                         ",
"                                                                                                                                                              ",
"                                                                                                                                                              ",
"                                                                                                                                                              ",
"                                                                                                                                                              ",
"                                                                                                                                                              ",
"                                                                                                                                                              ",
"                                                                                                                                                              "
};
