/* XPM */
static char *ab4ce27616fe418cb1320457aaf6c501roA6NBD6DY5igtEc[] = {
/* columns rows colors chars-per-pixel */
"79 79 246 2 ",
"   c #0000FF",
".  c #010000",
"X  c #0B0403",
"o  c #0C0905",
"O  c #0C0B0A",
"+  c #07070A",
"@  c #130A04",
"#  c #1C0A05",
"$  c #120D0A",
"%  c #170805",
"&  c #1D130B",
"*  c #1C1309",
"=  c #151313",
"-  c #1D1613",
";  c #1C1915",
":  c #1A1A1A",
">  c #0E0F11",
",  c #240B07",
"<  c #340A07",
"1  c #24140B",
"2  c #261908",
"3  c #37190E",
"4  c #231B15",
"5  c #231E1A",
"6  c #291B17",
"7  c #331B11",
"8  c #3A1B16",
"9  c #34250B",
"0  c #3C280B",
"q  c #2B221C",
"w  c #28211A",
"e  c #372818",
"r  c #2F230F",
"t  c #2B2725",
"y  c #342B24",
"u  c #372D27",
"i  c #3C332B",
"p  c #3F3326",
"a  c #3A3736",
"s  c #481C15",
"d  c #55180E",
"f  c #442B07",
"g  c #482518",
"h  c #542A1A",
"j  c #5B2C1C",
"k  c #5A201D",
"l  c #4B3617",
"z  c #543B14",
"x  c #543C18",
"c  c #583E0E",
"v  c #632919",
"b  c #6C2D1E",
"n  c #452823",
"m  c #582B28",
"M  c #463627",
"N  c #533A2A",
"B  c #493C34",
"V  c #5B3731",
"C  c #6D3522",
"Z  c #673526",
"A  c #7A3C26",
"S  c #6A3933",
"D  c #6B322D",
"F  c #5B4116",
"G  c #674819",
"H  c #7B571C",
"J  c #704D17",
"K  c #564329",
"L  c #4B4238",
"P  c #53453C",
"I  c #5A4A3C",
"U  c #584535",
"Y  c #684D23",
"T  c #78432C",
"R  c #7A5A28",
"E  c #654C37",
"W  c #6A5539",
"Q  c #775C36",
"!  c #754E2E",
"~  c #7A603E",
"^  c #5B4C42",
"/  c #554C47",
"(  c #5C5244",
")  c #5D5957",
"_  c #4D4742",
"`  c #654D43",
"'  c #645243",
"]  c #62534B",
"[  c #695649",
"{  c #735B48",
"}  c #6C5E59",
"|  c #685C57",
" . c #715E52",
".. c #7A6349",
"X. c #6D6159",
"o. c #756356",
"O. c #7A6655",
"+. c #7D6854",
"@. c #75635A",
"#. c #79655A",
"$. c #7C695F",
"%. c #686363",
"&. c #7A7470",
"*. c #843A27",
"=. c #963D36",
"-. c #875B19",
";. c #A6701D",
":. c #985A3D",
">. c #85452F",
",. c #A94F3B",
"<. c #886328",
"1. c #986B25",
"2. c #9A742A",
"3. c #86683A",
"4. c #9C7434",
"5. c #936F37",
"6. c #A97726",
"7. c #A67A34",
"8. c #BA673F",
"9. c #894C43",
"0. c #895648",
"q. c #985B54",
"w. c #8F5749",
"e. c #AE564D",
"r. c #876B49",
"t. c #9A774B",
"y. c #846D5C",
"u. c #876C54",
"i. c #8C735C",
"p. c #897259",
"a. c #957857",
"s. c #966F41",
"d. c #B66842",
"f. c #AA625B",
"g. c #AD6954",
"h. c #826E63",
"j. c #8C7561",
"k. c #89766A",
"l. c #947B64",
"z. c #957B68",
"x. c #8D7D76",
"c. c #A87465",
"v. c #C05748",
"b. c #FA5849",
"n. c #F65F52",
"m. c #C4655C",
"M. c #CF6A55",
"N. c #FF6B5C",
"B. c #E4685F",
"V. c #D77469",
"C. c #FF7A6B",
"Z. c #F87368",
"A. c #EF756B",
"S. c #B58534",
"D. c #DE991C",
"F. c #EB9C0C",
"G. c #E79D14",
"H. c #F8B809",
"J. c #E6A417",
"K. c #F3A910",
"L. c #DA9824",
"P. c #C48E35",
"I. c #CC9238",
"U. c #CA9236",
"Y. c #D49839",
"T. c #CB8E2B",
"R. c #DBA53A",
"E. c #DFA32E",
"W. c #E4A539",
"Q. c #EEAA30",
"!. c #E19E33",
"~. c #FFC209",
"^. c #9F805B",
"/. c #A7834A",
"(. c #B58A46",
"). c #A58457",
"_. c #BB9054",
"`. c #99826A",
"'. c #9A8376",
"]. c #A68669",
"[. c #B3856A",
"{. c #A58A7A",
"}. c #AC8E7E",
"|. c #A18777",
" X c #B68774",
".X c #B6937A",
"XX c #B89667",
"oX c #C79A52",
"OX c #D59C4F",
"+X c #D4A154",
"@X c #FCBD4A",
"#X c #FDBC51",
"$X c #FC887B",
"%X c #ED897E",
"&X c #C2A77E",
"*X c #FCC74D",
"=X c #7A7D81",
"-X c #95918E",
";X c #AE8F80",
":X c #A99183",
">X c #B29282",
",X c #BC9A87",
"<X c #BA9886",
"1X c #B6A58D",
"2X c #B6B7B7",
"3X c #C39D8A",
"4X c #CA9982",
"5X c #D29B85",
"6X c #FF9989",
"7X c #C7A38B",
"8X c #D8A98B",
"9X c #D9AB93",
"0X c #DDB596",
"qX c #C5AA93",
"wX c #E2A68D",
"eX c #E5AA91",
"rX c #FFAD97",
"tX c #E6B699",
"yX c #F7BA9C",
"uX c #FFBAA5",
"iX c #C3B8B9",
"pX c #F2C09F",
"aX c #ECC4A1",
"sX c #F4C3A1",
"dX c #FECCA6",
"fX c #FFCEA9",
"gX c #F6C8A4",
"hX c #FFD2AB",
"jX c #FDD7AE",
"kX c #FFDBB3",
"lX c #FFDBB5",
"zX c #EFD1AF",
"xX c #FFE1B6",
"cX c #FFE2BA",
"vX c #FFEBBF",
"bX c #DCCCB7",
"nX c #CBCAC9",
"mX c #D4D4D5",
"MX c #D3CED0",
"NX c #FDE8C6",
"BX c #F0EDD8",
"VX c #E6E5E4",
"CX c #FFFFFE",
"ZX c #F7F9F8",
"AX c #F6F4EF",
"SX c #E1DEDD",
/* pixels */
"                                                                                                                                                              ",
"                                                                                                                                                              ",
"                                                                                                                                                              ",
"                                                                                                                                                              ",
"                                                                                                                                                              ",
"                                                                                                                                                              ",
"                                                                                                                                                              ",
"                                                                                      . . . . . . . .                                                         ",
"                                                                                . . . . . $ * & & . . .                                                       ",
"                                                                              . . . 1 G ;.D.J.J.L.T.F . .                                                     ",
"                                                                          . . . * H L.K.K.~.~.H.H.K.Y.q .                                                     ",
"                                                                        . . . l P.Q.G.F.F.H.H.H.H.J.(. .o .                                                   ",
"                                                                    . . . . l W.!.D.F.F.F.K.K.J.J.E.(.u.y . .                                                 ",
"                                                                . . . X . l R.Y.T.L.G.G.G.J.G.L.W.P.G 4 $ . .                                                 ",
"                                                            . . . . % . 2 U.Y.U.T.L.L.L.L.L.E.Q.H . . 2 f f . .                                               ",
"                                                          . . . o 0 X . 2.Y.U.U.I.T.U.U.Y.R.W.G . 6 S.5.l.).G . .                                             ",
"                                                        . . . r <.7 . <.U.U.U.U.I.I.I.U.P.P.J . P +XS.-XmXmXqX9 .                                             ",
"                                                      . . . x 4.0 X <.7.U.Y.I.I.P.S.S.7.7.<.X M ].Y.X.ZXVXMXmXk.. .                                           ",
"                                                    . . & R 1.0 6 u.a.5.U.P.7.7.7.1.Y F g . & u.XX1.=XCXCXSXMX2X; .                                           ",
"                                                  . . 6 u.).Y E l.j.r.1.7.4.<.Y 2 . . . 2 2 K i.XX6.-XCXCXCXmXnX/ . .                                         ",
"                                                  . o ..a.u.u.j.y.u.4.7.R 0 . . 9 F 6.W.@XR I i.XX7.&.CXCXCXVXMX&.. .                                         ",
"                                                  . q i.p.y.y.y.l.s.G 1 . 0 2.W.@X#XOXoX+X<.I p.^.(.( ZXCXCXAXmX-X. . .                                       ",
"                                                  . q y.y.i.j.y.U * 2 G R.*X#XoXt.+.+.u._.4.E u.a._.x 2XCXCXCXSX-X. $ .                                       ",
"                                                  . 5 j.l.y.^ e c S.Q.@XOXa.O. .o.+.+.+.a./.N { u.a.Q ) AXCXCXVX&.. M $ .                                     ",
"                                                . . 4 { P p H R.*XoXa.o.} } @.#.#.+.+.+.u.).3.e U W r.l _ nXCX2Xu 2 { l . . .                                 ",
"                                                . . . 1 K t._.a.o.} X.@.#.#.#.#.#.#.O.O.u.t._.! O w K E e y L ; . e K r @ . . . . . . .                       ",
"                                                . . 6 a.).y.X.} @.#.#.o.#.#.o.#.#.$.y.p.^.)././.e . . + o . . X 2 9 l z z z M p q 5 - $ . .                   ",
"                                                . $ ..i.@.X.@.@.@.o.o.o.#.$.y.y.u.r...3.Q K l z G G G F G J 1.6.6.1.1.1.-.! N e e u i i ; . .                 ",
"                                                . M y.@.@.@.@.@.o.#.#.o. .' N l G G Y R R 5.4.2.2.1.<.H J c l 9 1 @ . . . . . = ; w 5 O . .                   ",
"                                              . . ' j.y.$.#.@.} } ] ' W W ~ r.t.t./.t.3.W K l 9 X . . . . . . . . . . + $ ; 5 ; O . . . .                     ",
"                                            . . O Q Q E I P P I ..r.t.t.t.3.Q K e & o . . . . . O ; 5 t y i - @ o $ $ O O . . . .                             ",
"                                            . . X * % 6 N ..t.).).s.W M 1 . . . . . . . . & P #.o.h.{.,X0X0XU , 7 ].i . .                                     ",
"                                          . . q M U O.i.].).r.E e . . + + - y B ^ o.] 8 s g z.hXfXfXhXhXxX0Xv d 8 hX' .                                       ",
"                                        . X L u.j.`.j...K 4 . . . . . i h.`.3XtXtXjX.X*.,.< ` jXkXhXhXfXkX7Xv b 1 gXj..                                       ",
"                                      . O I j.z.j.[ w . . . # g w.n . o.lXlXkXkXhXvXz.b v.< g tXkXfXfXdXlX0Xg s 1 { I . .                                     ",
"                                    . O [ z.+.P ; . . . 1 g Z :.M.>.. o.cXhXfXfXdXcXz.< *.< # tXlXfXfXxXgXi.@ X X . . . .                                     ",
"                                  . + ^ ( 5 + . . . . . 8 j j ! d.,.. I xXhXfXfXfXxX.X. 3 , , tXkXdXxX7X6 . k =.e.e.,.b X .                                   ",
"                                  . y i $ . . X >.m.e.@ . g j T s.d., t lXhXfXfXfXlX0X. X % n hXhXkX]., s v.C.6XrXuXhXrXA.8 .                                 ",
"                                . . o o $ O + 9.$XuXNXV.. 7 Z T :.8.g + aXkXfXfXfXhXlX[ . . u.lXkX7X, D V.C.C.6XdXNXNXrX$XA.$ .                               ",
"                                  . . . . . 6 f.m < 0.%X8 % Z Z :.d.>.. }.lXhXfXfXfXjXfX{ { gXkXkXV 8 f.N.b.N.6XrXrXrX$XN.Z.8 .                               ",
"                                          . n 9.8 V . m S X A T w.d.d.X [ jXhXhXhXhXhXjXxXxXhXhXgXq m f.B.b.b.N.C.C.N.n.n.m.X .                               ",
"                                          . 6 9.D f.4 . 8 o Z T Z g 3 . ] tX9XtXsXsXgXgXsXpXsXdXfXi s q.f.M.n.b.b.b.b.n.V.V .                                 ",
"                                          . . S f.$XS . . . # X . y _ @.>X3X3X3X7X7X9X0XtX0XtX0XtXh.X D q.q.f.f.f.f.f.q.n . .                                 ",
"                                            . o 9.A.V.& . # n n  .:X>X<X;X}.<X,X,X3X3X3X3X3X3X3X3X7XX.; , 8 n V m n 8 @ . .                                   ",
"                                              . . S V.A.V.q.Z ` '.{.{.{.{.{.}.>X<X<X<X<X<X,X3X3X7X3X{.x.( t + . o O . . .                                     ",
"                                                . . 7 m.%Xw.s M  .h.'.}.|.|.{.}.;X>X>X>X>X>X>X,X3X7X<X'.:X:X'.x.'.:XP . .                                     ",
"                                                  . . . 6 1 o . t ' #.x.|.|.|.{.}.}.}.;X>X>X>X<X3X7Xz.^ '  .[ ^ ] P = .                                       ",
"                                                    . . . . . . . $ B o.k.'.'.|.{.}.}.}.}.;X;X>X<X<X] q 4 6 6 $ . . .                                         ",
"                                                                . . . - B [ $.h.k.'.|.|.|.|.'.'.x.k.k.$.#.^ 5 . . .                                           ",
"                                                                    . . . O 4 u ^ [ @.$.$.h.$.@. .] ^ B q . . .                                               ",
"                                                                    . . @ 9 2 @ o 4 y y i y q 5 q 5 . . . .                                                   ",
"                                                                . . . 9 x 2 @ . . . . . . . - o . , 0 . . .                                                   ",
"                                                                . . e 2 . . 5 t w $ . . . i.zX&X6 f Q.9 . .                                                   ",
"                                                                . - $ . [ .XaXaXtX0Xj.& . `.NXzXW . 6.0 . . .                                                 ",
"                                                              . . o . c.tXdXfXdXdXjXxX.XX w ZXCX>X. -.J . @ . .                                               ",
"                                                              . . . E eXtXhXhXdXNXCXlXkX' . VXCX.X. l ;.. 4 e . .                                             ",
"                                                              . . o c.eXsXhXfXdXxXAXcXyX[.X e e . . . z 2 + q . .                                             ",
"                                                              . . q 4XeXsXdXhXfXhX8Xy. X0.. y 1XbXqXy . . . . .                                               ",
"                                                              . . y 5XeXpXsXhXhXhXaXj.' - . / :Xh.1X( . . . .                                                 ",
"                                                              . . q 4XeXpXyXdXfXdXhXkXtXM . L [ B ^ ; . . .                                                   ",
"                                                                . O  X8XpXtXtXyXwXwXeXyXI . O : + . . * . .                                                   ",
"                                                              . . . 0.wX9X9X5XyXtX[.4Xl.+ . # 1 3 g C g . .                                                   ",
"                                                              . : : o [.wX]. XeXtX' o . 1 g h h C A C j . .                                                   ",
"                                                              . t | O X ` i O B ^ ; # j C C Z g g e Z C . .                                                   ",
"                                                              . u %.t . . @ X @ , s *.*.A C g % 1 g A C X .                                                   ",
"                                                              . t %.a . # h Z A >.>.A C Z 7 . X g T *.C X .                                                   ",
"                                                              . : ) | t . 1 g h h j h 7 @ . @ 7 C A A C . .                                                   ",
"                                                              . . a ) / = . . @ % o . . . * 7 8 A *.A v . . .                                                 ",
"                                                                . . X = . . . . . . . . @ g 3 s C E #.x.a . . .                                               ",
"                                                                    . . .             . . 7 i P } %.&.iXMX) . .                                               ",
"                                                                                      . . + O > : : = ; t 5 . .                                               ",
"                                                                                        . . . . . . . . . . .                                                 ",
"                                                                                                                                                              ",
"                                                                                                                                                              ",
"                                                                                                                                                              ",
"                                                                                                                                                              ",
"                                                                                                                                                              ",
"                                                                                                                                                              ",
"                                                                                                                                                              "
};
