/* XPM */
static char *a78b73dbbe0a4c0b9505dd7b06947832Whu0DE1s5E1eoqNF[] = {
/* columns rows colors chars-per-pixel */
"79 79 248 2 ",
"   c #0000FF",
".  c #000000",
"X  c #0A0503",
"o  c #0C0905",
"O  c #0D0A0A",
"+  c #140C04",
"@  c #130D0B",
"#  c #190905",
"$  c #15110E",
"%  c #1B130C",
"&  c #181105",
"*  c #141211",
"=  c #1B1512",
"-  c #1C1918",
";  c #0E0D11",
":  c #240705",
">  c #261709",
",  c #35180E",
"<  c #241B15",
"1  c #231D19",
"2  c #2A1814",
"3  c #361C14",
"4  c #390E07",
"5  c #37270B",
"6  c #2B221D",
"7  c #292118",
"8  c #3C2C14",
"9  c #3C221B",
"0  c #34261A",
"q  c #2F210A",
"w  c #292727",
"e  c #332A24",
"r  c #372C24",
"t  c #3B322B",
"y  c #3B3225",
"u  c #3A3734",
"i  c #421814",
"p  c #4F190E",
"a  c #43251D",
"s  c #4A271A",
"d  c #552B1B",
"f  c #483519",
"g  c #543A13",
"h  c #54391B",
"j  c #49330E",
"k  c #6F261B",
"l  c #4C2B22",
"z  c #452B24",
"x  c #542D24",
"c  c #473629",
"v  c #553827",
"b  c #453A34",
"n  c #573A32",
"m  c #642E2A",
"M  c #633525",
"N  c #6B3827",
"B  c #773F29",
"V  c #733C37",
"C  c #792E25",
"Z  c #5C4319",
"A  c #674918",
"S  c #7A551B",
"D  c #745114",
"F  c #574429",
"G  c #4C433A",
"H  c #564639",
"J  c #5C523D",
"K  c #674B28",
"L  c #79432C",
"P  c #785828",
"I  c #634C39",
"U  c #784539",
"Y  c #6C533A",
"T  c #65533F",
"R  c #745938",
"E  c #6E5228",
"W  c #7D633A",
"Q  c #7E6328",
"!  c #5B4C44",
"~  c #585353",
"^  c #4E4645",
"/  c #7C4A43",
"(  c #63524A",
")  c #695848",
"_  c #785945",
"`  c #6C5C55",
"'  c #695D58",
"]  c #725E55",
"[  c #705F59",
"{  c #6E4F43",
"}  c #7C6349",
"|  c #7B6655",
" . c #75635A",
".. c #79665A",
"X. c #7B695E",
"o. c #7A6653",
"O. c #786B63",
"+. c #746F6E",
"@. c #873A2F",
"#. c #835918",
"$. c #89661C",
"%. c #9C6B1C",
"&. c #AB731C",
"*. c #88472E",
"=. c #835F26",
"-. c #874C32",
";. c #954D32",
":. c #994F33",
">. c #995235",
",. c #8E4F34",
"<. c #A65737",
"1. c #B04739",
"2. c #886526",
"3. c #966A25",
"4. c #99722A",
"5. c #866637",
"6. c #956E35",
"7. c #997235",
"8. c #A87828",
"9. c #A47932",
"0. c #AE702B",
"q. c #874842",
"w. c #865847",
"e. c #95534C",
"r. c #9B5D58",
"t. c #944641",
"y. c #B1564D",
"u. c #866948",
"i. c #98764A",
"p. c #846C53",
"a. c #836D5C",
"s. c #886954",
"d. c #9E6D57",
"f. c #89715C",
"g. c #8B7254",
"h. c #987A59",
"j. c #94674F",
"k. c #AA6443",
"l. c #A17D4A",
"z. c #AC635C",
"x. c #B6645C",
"c. c #A9775C",
"v. c #B46644",
"b. c #816C62",
"n. c #897566",
"m. c #947B67",
"M. c #837B7A",
"N. c #947E72",
"B. c #B17867",
"V. c #C65D57",
"C. c #F95748",
"Z. c #F15E53",
"A. c #C46D4A",
"S. c #FC6657",
"D. c #E9685C",
"F. c #C96B63",
"G. c #D5776D",
"H. c #FF7868",
"J. c #F8766A",
"K. c #B88635",
"L. c #B28231",
"P. c #EB9C0C",
"I. c #E69C14",
"U. c #F1AB0B",
"Y. c #F7B808",
"T. c #E5A31A",
"R. c #F5AB14",
"E. c #C48D2C",
"W. c #D79727",
"Q. c #CA9234",
"!. c #CC9338",
"~. c #C59532",
"^. c #D39836",
"/. c #C58D36",
"(. c #DBA131",
"). c #E7A328",
"_. c #E7A83A",
"`. c #F8B42C",
"'. c #C7881C",
"]. c #FFC10A",
"[. c #FFD63D",
"{. c #A78558",
"}. c #B38A53",
"|. c #B48B4E",
" X c #9A8577",
".X c #9B8166",
"XX c #A4897A",
"oX c #AB8D7D",
"OX c #A78B76",
"+X c #B18C6D",
"@X c #968158",
"#X c #CE9C54",
"$X c #CB984E",
"%X c #E2A542",
"&X c #F1B44B",
"*X c #D89578",
"=X c #D08870",
"-X c #FE8578",
";X c #E48F76",
":X c #EAA37C",
">X c #CDA162",
",X c #FBC44C",
"<X c #888382",
"1X c #979698",
"2X c #AC8E80",
"3X c #AD9384",
"4X c #B29282",
"5X c #BC9A86",
"6X c #BA9786",
"7X c #B08F80",
"8X c #B9A692",
"9X c #A3A5AA",
"0X c #C29D8A",
"qX c #DC9B86",
"wX c #FF9989",
"eX c #C9A28B",
"rX c #D8AC94",
"tX c #DDB596",
"yX c #CEAD94",
"uX c #E9A587",
"iX c #FAA88C",
"pX c #FFAA95",
"aX c #E4B799",
"sX c #FCB79A",
"dX c #F6B290",
"fX c #F5C5A2",
"gX c #FECCA5",
"hX c #FECEA9",
"jX c #F5C9A4",
"kX c #FFD2AC",
"lX c #F7D7AF",
"zX c #FFC9B3",
"xX c #FFDCB4",
"cX c #FED6B0",
"vX c #E8CDAA",
"bX c #FFE3BA",
"nX c #FEE4B9",
"mX c #DEC3AE",
"MX c #BCC3C9",
"NX c #D2D1CE",
"BX c #D4D4D3",
"VX c #CCCCCE",
"CX c #F9EDD0",
"ZX c #D2D7E4",
"AX c #EAE9E8",
"SX c #FFFFFF",
"DX c #F9F9F7",
"FX c #FAF7E8",
/* pixels */
"                                                                                                                                                              ",
"                                                                                                                                                              ",
"                                                                                                                                                              ",
"                                                                                                                                                              ",
"                                                                                                                                                              ",
"                                                                                                                                                              ",
"                                                                                                                                                              ",
"                                                                                                . . . . . . . . .                                             ",
"                                                                                            . . . . X % % > + . . .                                           ",
"                                                                                        . . . . 8 #.'.T.T.T.W.8.% . .                                         ",
"                                                                                      . . . 8 8.).R.Y.].].Y.Y.`.6.. .                                         ",
"                                                                                    . . X 2.^.R.P.P.U.Y.Y.Y.U.W.h.b . .                                       ",
"                                                                                . . . X 4._.W.I.P.P.P.U.U.T.).^.h._ @ .                                       ",
"                                                                            . . X . . 4.%XQ.W.I.I.I.P.I.W.)._.8.8 = o . .                                     ",
"                                                                        . . . o o . A _.!.Q.W.W.W.W.W.W._.~.8 . & q j > . .                                   ",
"                                                                      . . . > q . 8 !.^.!.Q.Q.Q.W.^.^._.E.+ . E K.u..Xl.> .                                   ",
"                                                                    . . . Z P . q L.!.!.!.!.!.!.!././.K.> * g.%Xg.MXBXVX@X. .                                 ",
"                                                                  . . + P 2.X 8 7.K.^.!.^.Q.K.K.L.9.9.g o } >X4.9XSXBXBXMXc .                                 ",
"                                                                . . f 6.S > c {.i.9.!.K.9.9.7.=.A h > . c h.#XK ZXSXDXNXBXM.. .                               ",
"                                                              . . G {.6.v u.m.f.6.4.9.6.=.h & . . . 5 < } h.#XR ZXSXSXAXNX9XO .                               ",
"                                                            . . r h.h.p.f.n.a.i.9.6.Z > . & j S Q.&X_.f p.h.#XE VXSXSXSXNXVXw . .                             ",
"                                                            . . ! h.a.a.a.f.h.2.g . o Z ~.&X,X&X$X#X$XF } g.}.P 1XSXSXSXAXNXu . .                             ",
"                                                              . J f.a.f.n.o.8 & 5 4.&X,X&X}.g.o.o.i.|.R _ g.{.i.G SXSXSXAXBXu . o .                           ",
"                                                            . . H m.n. .b 8 $.^.&X&X|.p.] ] | o.o.p.{.5.c p.p.l.F 1XSXSXDXVXw & f . .                         ",
"                                                            . . G ) b f 8.,X&X}.p.` '  ...| | o.o.p.i.{.F c I } R 0 +.AXAX<Xo v Y > . .                       ",
"                                                            . . + 0 R |.}.p.[ '  . ...........| o.| g.{.|.0 $ y I F 7 u u . o v c > X . . . . . . .           ",
"                                                            . . H {.h...' [  ... ....... .....X.a.h.{.{.|.Q @ . . O X . . & > 8 g g g h c r 7 < = X . .       ",
"                                                          . . r h.p.[  . . . . . .....X.a.p.u.} u.W K h g Z A A Z Z A S 8.8.8.3.3.$.S K y 0 e t c e O . .     ",
"                                                          . X ) a. . . . . . ... . .) I c Z A K E P 5.6.4.4.4.3.#.D A g j , & X . . . . O = - 6 = X . .       ",
"                                                          . 1 p.n.X.X... .` ` ( T Y Y u.u.i.l.{.i.W K v j > . . . . . . . . . . . O * 1 1 = X . . .           ",
"                                                        . . r } Y J H H H ) } u.i.i.i.5.E h q + X . . . . . * - 6 e t e + + o $ O @ X . . . .                 ",
"                                                      . . . + & % r I u.h.{.i.W F 0 + . . . . . . . X 6 )  ...m.oXeXfXOX3 : I m.o . .                         ",
"                                                    . . @ y c ) a..X}.i.R v % . . X O 1 t G ( X.c i i H rXxXhXkXkXkXbXd.p 4 s.jXX .                           ",
"                                                  . . 1 ) f.m..Xg.R z O . . . . O ( n.XXrXaXaXlX/ 1.C : oXbXkXkXhXkXcX_ k p Y xX- .                           ",
"                                                . . 6 o.m.m.p.G @ . . . 2 N w.o O yXbXxXxXxXxXxXv 1.@.: s.xXkXhXhXkXbXf.i , 0 a.1 .                           ",
"                                                . e a.n.) t O . . o 3 d L k.A., . aXxXhXhXhXkXcXz k k X I bXkXhXkXbXrXc . o X . . . .                         ",
"                                              . 6 ) b $ . . . . . o d d M ,.A.N . eXxXhXhXhXkXxXn X i X Y bXhXkXkXp.. : C 1.y.y.@.i . .                       ",
"                                            . O b 7 X . . 3 z.V.m . > d M ,.v.,..  XbXhXhXhXhXbX} . # # m.bXkXjXn : V D.-XpXsXzXzXwXy.X .                     ",
"                                            . X O O @ . 3 F.wXzXzXm . d N -.k.<.. ` xXkXhXhXhXxXaX@ . # tXxXxX) : e.H.H.-XpXbXCXhXwX-Xt..                     ",
"                                              . . . . . U y., i =Xx.. a N L k.0.3 e jXkXhXhXhXhXxXeXG oXcXxXyX: V F.S.C.-XiXpXsXiXH.S.V.. .                   ",
"                                                    . . / m s 9 X q.2 3 L -.k.A.B . eXkXkXkXkXkXkXxXxXxXkXxXOX# w.F.S.C.S.H.H.H.S.C.S.U .                     ",
"                                                    . . n U t.e.. 2 % > L B d d # . 4XtXaXaXfXfXjXfXfXfXfXkX5Xo / r.x.D.C.C.C.C.C.D.x.= .                     ",
"                                                    . . % e.F.J.O . . . # . $ b ! m.5X5X0X0XeXrXtXtXtXaXaXtXyXu : q.r.r.z.z.z.x.z./ @ .                       ",
"                                                      . . 9 x.-Xq.. . 3 z c m.3X4X4XoX4X6X5X0X0X0X0X0X0X0X0X0X3Xb @ 2 a x n z 3 2 . .                         ",
"                                                        . . 2 e.-XG.F.U m .. XXXXXXXXXoX7X4X6X6X6X6X6X5X0XeXeX6X XO.b * . X O X . .                           ",
"                                                          . . . V G.G.m i H ..N.XXXX XXXoX2X2X4X4X7X7X4X6X0XeXeXXX X3X2X X XXXN.= .                           ",
"                                                            . . . % 2 % . O b ` b. XXXXXXXXXoXoX2X7X7X7X4X5XeX5X] ! ( ` ( ! ( t X .                           ",
"                                                              . . . . . . . . e ! O.N. XXXXXoXoXoXoXoX2X2X4X0X Xb 1 < 6 < o . . .                             ",
"                                                                    .     . . . X 6 b ( b.n.N. XXXXXXXXX XN.n.n.b.X.] c O . .                                 ",
"                                                                              . . . . O e b ! ` ..b.b.b.X. .) ( H t * . .                                     ",
"                                                                              . . q g + . . . ; - w t 1 - < 6 ; . . . .                                       ",
"                                                                          . . & A #.L.!.9.Q 2.8.$.o . r F = . A A . .                                         ",
"                                                                          . + Z K K 8 j L._.9.E.[.D < lXnX+XX #.E.. .                                         ",
"                                                                        . . Y +XaXjXtXa.q 3.L.%.&.5 7 vXCXCX< > &.+ . .                                       ",
"                                                                      . . c.sXkXbXSXFXnXm.+ K &.).D % CXSXSXH . %.f * .                                       ",
"                                                                    . . d.sXkXkXkXFXCXkXxXc X S &.#.. J  Xc . . 5 v s.@ .                                     ",
"                                                                    . z :XuXcXkXhXgXgXkXbXd.. X . . O ) ) n. X) . . _ c .                                     ",
"                                                                  . . u.c.qXgXcXkXhXkXkXhX*XO @ @ . 7  X1X8XyX8XO . = 1 .                                     ",
"                                                                  . 2 z { qXuXgXkXkXhXhXdX*X$ 9 l . - G 6 r u - . a d . .                                     ",
"                                                                  . X . c.uXB.*XsXsXsXiX*X:X1 2 v . . w u - ; O v ;.<.v . .                                   ",
"                                                                  . . o :X:X_ *X*XuXB.c w.c.@ 3 L 9 d d d d N L L ;.<.>.& .                                   ",
"                                                                    . . +Xw.1 :XuX*X% $ j.c . N ;.<.<.<.<.<.B s x >.:.;.3 . .                                 ",
"                                                                      . % % 1 iXdXY . v 0 . 9 *.>.;.;.:.<.N 2 2 l L *.*.> . .                                 ",
"                                                                      . . . % =Xd.. . . . 9 B :.:.;.>.;.M 2 O 0 a x M x o .                                   ",
"                                                                          . . X . . . @ l M *.:.;.:.;.M 2 o . 2 a a 9 % . .                                   ",
"                                                                            . . . . . 3 a x *.;.;.*.N 9 @ . . . . X . . .                                     ",
"                                                                                  . . a l B <.<.<.*.l % . w ^ t w X . .                                       ",
"                                                                                . . @ N ;.;.*.*.*.M 2 . . u ~ t @ . .                                         ",
"                                                                                . . X a , X @ * X . . . . * w . .                                             ",
"                                                                                . . . * w ^ ~ +.<XM.<X[ w O . .                                               ",
"                                                                                . . X t ~ ~ ~ ' +.+.M.+.~ w . .                                               ",
"                                                                                  . . . . . . . . . . . . . .                                                 ",
"                                                                                                                                                              ",
"                                                                                                                                                              ",
"                                                                                                                                                              ",
"                                                                                                                                                              ",
"                                                                                                                                                              ",
"                                                                                                                                                              ",
"                                                                                                                                                              "
};
