/* XPM */
static char *d3220919a8bc476ee6ff2b92c5645c6cimf0lCfyoL6uh4oF[] = {
/* columns rows colors chars-per-pixel */
"79 79 242 2 ",
"   c #0000FF",
".  c #010000",
"X  c #0A0503",
"o  c #0C0904",
"O  c #0C0B0A",
"+  c #070B0D",
"@  c #120201",
"#  c #120A05",
"$  c #120C0B",
"%  c #1A0905",
"&  c #14110E",
"*  c #1C130C",
"=  c #1A1304",
"-  c #161312",
";  c #1B1512",
":  c #1D1A16",
">  c #0F0D13",
",  c #250905",
"<  c #330C07",
"1  c #23130D",
"2  c #271809",
"3  c #341B0C",
"4  c #221A14",
"5  c #251D19",
"6  c #2A1914",
"7  c #381B16",
"8  c #37260C",
"9  c #2A221B",
"0  c #2A2217",
"q  c #32241C",
"w  c #3A2619",
"e  c #372B0E",
"r  c #2D2622",
"t  c #292523",
"y  c #322A24",
"u  c #382C29",
"i  c #3B322A",
"p  c #561E16",
"a  c #4A150E",
"s  c #432B09",
"d  c #472617",
"f  c #56291C",
"g  c #483416",
"h  c #563919",
"j  c #55360D",
"k  c #71251A",
"l  c #482823",
"z  c #552A23",
"x  c #473827",
"c  c #563627",
"v  c #473B35",
"b  c #5D3732",
"n  c #632D28",
"m  c #683926",
"M  c #743928",
"N  c #663934",
"B  c #753B34",
"V  c #594218",
"C  c #5D430D",
"Z  c #674A17",
"A  c #6E4D14",
"S  c #594728",
"D  c #4D4236",
"F  c #584738",
"G  c #664A28",
"H  c #79432C",
"J  c #6D512A",
"K  c #785925",
"L  c #664A39",
"P  c #695438",
"I  c #745839",
"U  c #7C463E",
"Y  c #4D4745",
"T  c #594B44",
"R  c #5D5855",
"E  c #5C5143",
"W  c #754842",
"Q  c #675749",
"!  c #765948",
"~  c #6D5C53",
"^  c #6B5D59",
"/  c #6B5952",
"(  c #7C6246",
")  c #746254",
"_  c #7B6654",
"`  c #75635A",
"'  c #79665A",
"]  c #7D695C",
"[  c #7E6955",
"{  c #6D624B",
"}  c #796C67",
"|  c #76716C",
" . c #8B352D",
".. c #83581B",
"X. c #96681B",
"o. c #A77219",
"O. c #88442C",
"+. c #93573B",
"@. c #894F30",
"#. c #A85739",
"$. c #B35339",
"%. c #8B6728",
"&. c #986B26",
"*. c #9D732A",
"=. c #886736",
"-. c #9D7432",
";. c #A67729",
":. c #A57A33",
">. c #B4742B",
",. c #88584A",
"<. c #97554B",
"1. c #94534D",
"2. c #B85F56",
"3. c #AB5A53",
"4. c #876A47",
"5. c #8C714D",
"6. c #987749",
"7. c #856C53",
"8. c #846D5B",
"9. c #8A6654",
"0. c #8C725B",
"q. c #8A7255",
"w. c #987959",
"e. c #986951",
"r. c #B86744",
"t. c #A7615A",
"y. c #B7625A",
"u. c #A7785A",
"i. c #B57D5F",
"p. c #816D63",
"a. c #8A756A",
"s. c #897363",
"d. c #937A67",
"f. c #8E7B71",
"g. c #947E71",
"h. c #A47863",
"j. c #B87261",
"k. c #D35B4B",
"l. c #FC5849",
"z. c #C36946",
"x. c #D26C47",
"c. c #CD6B52",
"v. c #FD6658",
"b. c #E57250",
"n. c #DD7268",
"m. c #D47168",
"M. c #FF7768",
"N. c #F47468",
"B. c #BB8728",
"V. c #B98635",
"C. c #AD8234",
"Z. c #CE901C",
"A. c #EC9D0C",
"S. c #E79D15",
"D. c #F1AC0B",
"F. c #F8B809",
"G. c #E8A213",
"H. c #FAB118",
"J. c #D99827",
"K. c #C18C36",
"L. c #CC9238",
"P. c #CC9335",
"I. c #D29736",
"U. c #C28B2F",
"Y. c #DBA737",
"T. c #E4A327",
"R. c #E7A839",
"E. c #F5A621",
"W. c #E69D28",
"Q. c #FFC20E",
"!. c #FFD93B",
"~. c #B58745",
"^. c #A78455",
"/. c #B18B53",
"(. c #998069",
"). c #9D8576",
"_. c #9A8477",
"`. c #918A7C",
"'. c #A58A7A",
"]. c #AA8D7E",
"[. c #A58975",
"{. c #B8947C",
"}. c #AF8968",
"|. c #C89753",
" X c #CE9647",
".X c #DCA650",
"XX c #FBBC4A",
"oX c #E9AE4D",
"OX c #D79979",
"+X c #C1987C",
"@X c #FF8678",
"#X c #FBC64F",
"$X c #AA8E81",
"%X c #B29282",
"&X c #BC9986",
"*X c #BC9887",
"=X c #AF9283",
"-X c #B5A998",
";X c #B8B7B8",
":X c #A9ABB0",
">X c #C49E8A",
",X c #FF9B8B",
"<X c #C8A28C",
"1X c #D4AA93",
"2X c #DBB697",
"3X c #CAA391",
"4X c #E9AA87",
"5X c #F9A789",
"6X c #FCB38C",
"7X c #F2B28F",
"8X c #FFAA96",
"9X c #E4B59A",
"0X c #EABB9D",
"qX c #FCB692",
"wX c #FDBB95",
"eX c #F8B198",
"rX c #C7BDAC",
"tX c #F6B9A0",
"yX c #FFC39C",
"uX c #E5C19F",
"iX c #D2C7BB",
"pX c #EAC5A4",
"aX c #FDCBA5",
"sX c #FECEA9",
"dX c #F5C6A4",
"fX c #FFD3AC",
"gX c #FFD6AC",
"hX c #FFDBB3",
"jX c #FCD9B5",
"kX c #E8D2A8",
"lX c #FFE2B9",
"zX c #FFE1B5",
"xX c #D5C29D",
"cX c #C8C9CC",
"vX c #D6D6D7",
"bX c #D1D0CE",
"nX c #EBD6C4",
"mX c #F8EBCB",
"MX c #EAE9E8",
"NX c #FFFFFF",
"BX c #F7F8F7",
"VX c #EBF0F9",
/* pixels */
"                                                                                                                                                              ",
"                                                                                                                                                              ",
"                                                                                                                                                              ",
"                                                                                                                                                              ",
"                                                                                                                                                              ",
"                                                                                                                                                              ",
"                                                                                                                                                              ",
"                                                                                                                                                              ",
"                                                                                          . . . . . . .                                                       ",
"                                                                                    . . . . . X X X . . .                                                     ",
"                                                                                . . . . 2 Z o.Z.Z.Z.>.Z . .                                                   ",
"                                                                              . . . 3 X.J.E.F.Q.Q.F.H.R.S . .                                                 ",
"                                                                            . . X K J.E.A.A.D.F.F.F.D.I.w.4 .                                                 ",
"                                                                        . . . X *.R.J.S.A.A.D.D.D.G.T.K.w.L . .                                               ",
"                                                                    . . X . . *.R.P.J.S.A.A.A.G.S.T.R.:.c 9 . . .                                             ",
"                                                                . . . X X . K R.L.P.J.J.J.J.J.J.R.I.h . X 2 8 X .                                             ",
"                                                              . . . * 2 . g I.I.L.L.P.J.P.P.I.R.B.= . G *.=.6.K . .                                           ",
"                                                            . . . h Z . 8 C.L.L.L.L.L.I.I.L.P.U.2 + 4..Xq.;XcXrXS .                                           ",
"                                                          . . # K %.X e :.V.L.L.I.L.K.K.V.:.:.g O _ .X%.:XNXbXvX-X# .                                         ",
"                                                        . . w &.K # x ^.6.V.I.V.:.:.:.%.K J s . F (. XF VXNXMXbXbXY .                                         ",
"                                                      . . x ^.=.g ( d.0.=.-.:.-.&.G 8 X . . o : 7.^. X{ BXNXNXvXbX`.. .                                       ",
"                                                    . . i w.w.7.8.s.8.4.:.-.J 8 . X = V ;.I.U.x 0.w. XP VXNXNXBXbX:Xo .                                       ",
"                                                    . . ~ w.8.8.8.8.w.&.Z # . e *.R.XXoX.XoX~.x 7.0.|.G cXNXNXNXvX;X: . .                                     ",
"                                                    . o ~ 0.8.0.s.7.x = = A Y.#X#X|.6.7.5.^.~.G 7.q.}.K | NXNXNXMXiXt . . .                                   ",
"                                                    . . Q d.s.] D 2 Z B.XXXX|.5.) ) ) _ _ q./.J F 7.q.6.D vXNXNXMX;XO 4 6 . .                                 ",
"                                                    . X Q _ D x *.oXXX|.w.) ^ ^ ' ' [ [ [ 7.w.6.x F Q 4.G v ;XNXMX| X F G o . .                               ",
"                                                    . . * 5 J ~.|.w.) ^ ^ ` ' ' ' ' ' _ _ [ 5./.=.* q F I g u ` R . * L x 1 . . . . .                         ",
"                                                    . . F w.d.] ^ ^ ` ' ' ' ' ' ' ' ' ' ] w.^././.S . . & ; o . . X % 8 e 8 8 0 9 ; O X . . .                 ",
"                                                  . . x w.8.^ ` ` ` ` ' ' ' ' ] 8.8.7.5.5.4.I S V V h s 8 8 g Z X.&.&.&.;.X.%.I x x u i i 5 X .               ",
"                                                  . $ _ 8.` ` ` ` ` ' ' ' ' ) P S G Z V G J K %.%.*.;.;.&.X...A Z j 8 2 = o X . X & 5 y 4 O . .               ",
"                                                . . y 8.] ' ' ' ' ` ^ Q Q F P I I 4.6.^.6.4.I J V e = o . . . . . . . . . . & 4 9 : . . . .                   ",
"                                                . . D 5.( Q E T F Q ! ( 5.6.6.6.=.J g 0 * X . . . . . O & ; : & X o X O O - & X . . .                         ",
"                                              . . . 2 2 * q F ( 5.u.^.6.I c 2 . . . . . . . . 5 D F Q ] (.'.<X7.1 % F E . . .                                 ",
"                                            . . O q w F ) w.}.^.4.G 0 o . . . - t i F E 6 < 7 ~ 9XpX0XdXfXhXzX4.a < {.<X. .                                   ",
"                                          . . 4 Q 7.s.(.w.4.c 4 . . . . - F ) d.&X<X2X2XB $.p 7 0XzXgXgXfXgXpXH k < (.uX. .                                   ",
"                                        . . 5 ~ d.d.s.F 4 . . . % c c . r 1XfXgXhXgXzXpXz k.f , {.hXsXsXsXgXgXQ p 3 F ].O .                                   ",
"                                      . . y 8.d._ v ; . . X 3 f O.z.r.X 9 gXhXfXfXsXhX0X7  .f @ w.lXsXaXfXlX2Xx X # X . . . .                                 ",
"                                      . y ) F 4 . . . . . 1 f f H <.r.3 + dXhXsXsXsXgXsX6 < a X h.lXsXgXhX0.X % f  . . .p X . .                               ",
"                                    . ; D 9 . . . 1 B M % . 7 f m +.r.m . 2XhXsXsXsXfXhXw . , @ +XhXgXaXL @ n k.@X,X,XeX8XN.z . .                             ",
"                                    . O - & & . w n.8XjX5X, @ f m +.r.O.. [.lXsXsXsXsXlX[.. . 3 dXgXgXF , <.M.M.@XtXmXmXsX,X@Xl .                             ",
"                                    . . . . . . 1.3.f ,.8X,.. f m @.#.#.X Q gXfXsXsXsXfXhX) 5 [.hXhX{., W n.v.v.@X8XtXaX5Xv.M.<..                             ",
"                                            . O 1.z 7 % 7 ,.X f H @.r.x.d t dXgXfXfXfXfXgXhXfXhXfXlX[ , 1.m.l.l.M.@X@X@XM.l.v.N .                             ",
"                                            . X U n <.b . d $ d H H m m @ + 3X9X0XdXdXaXdXaXaXdXdXhXs.% 1.t.c.l.l.l.l.l.l.v.2.$ .                             ",
"                                            . . l <.m.y.. . . # 2 o O r v s.<X>X>X3X1X1X9X9X9X9X0X0X*X$ l 1.e.t.2.2.2.y.y.,.* .                               ",
"                                              . . B n.@X7 . . 6 6 i s.'.%X%X%X*X&X&X>X>X>X>X3X<X>X>X3X} ; 1 z N W W N b l . .                                 ",
"                                                . . c m.N.t.1.B N a.].].'.'.'.].%X%X*X&X&X&X&X>X>X>X<X=Xf.T : . . . . . . .                                   ",
"                                                  . . 6 y.,Xm.n l / p._.].'.).'.].=X%X%X%X%X%X%X&X>X3X&X).$X$Xf.} } f.^ . .                                   ",
"                                                    . . X l l 6 X 9 E ' g.'.[.[.'.].].].=X%X%X{.%X&X3X&Xp.` s.s.' ' p.v . .                                   ",
"                                                      . . . . . . . $ v ~ a.).).'.'.].].].].=X=X%X*X3Xp.r * 4 5 ; $ . . .                                     ",
"                                                          . .     . . . : v ~ p.a.g.).'.'.'.'.'.)._.g.a.} ' Q x $ . . .                                       ",
"                                                                    . . . . + r v T ~ } s.a.a.a.p.' ~ ~ Q v & . . .                                           ",
"                                                                    . . 2 C s o . # ; t u v v u r y u - . . .                                                 ",
"                                                                  . . . s A X.X.%.%.;.;.Z . . i x O X A s .                                                   ",
"                                                                . . . L 9.9.! c s &.:.Y.!.8 i jXkX5.. B.;.. . .                                               ",
"                                                              . . q }.sXaXyXfXaXh.s ..X.o., S mXmXxX. j X.$ # . .                                             ",
"                                                            . . F yXyXqXqXyXaXfXhX! 3 ;.T.s x NXNXNX4 2 >.s ; 4 . .                                           ",
"                                                            . 9 qXyX6X6XwXaXjXfXgXOX# ..W.C X '.-XP . . A A . W # .                                           ",
"                                                          . . w.7XOXqX6XwXaXfXfXgX4X$ s j o O x g E ~ 9 . = . 9.w .                                           ",
"                                                          . . u.! 4XwXqX6XyXaXaXyXOXO . . . y rXnXiXnX).. . . 9.u .                                           ",
"                                                          . X I L wXqX7XqXqX7X7X5Xi.X 1 f O.M 1 . : Q ~ X . . ,.q .                                           ",
"                                                          . . o ,.6Xw.}.yXh.L OX5X! . M z.b.x.$.d $ q 1 * X . l X .                                           ",
"                                                            . . 4.6Xb e.6XW w OX4Xq # +.r.x.x.x.#.6 o l c o X X .                                             ",
"                                                            . . 4 u.$ i.wXL o u.e.X f #.#.z.b.b.$.d $ H m # . . .                                             ",
"                                                              . . . . L ,.* . ; X w H O.#.#.r.$.O.d * m z . .                                                 ",
"                                                                . . . . . . . . X c M M O.@.@.O.m 6 w m 1 .                                                   ",
"                                                                        . . - . X l c m M M M m 7 * z z X .                                                   ",
"                                                                        . . Y Y . # w c c c z 6 . 7 m 7 .                                                     ",
"                                                                          . - | R O . 1 7 1 X . X d f X .                                                     ",
"                                                                          . . : | | - . . . . ; y v ; .                                                       ",
"                                                                            . . X u y : . . u R ^ R - .                                                       ",
"                                                                                . . . . . . . . . . . .                                                       ",
"                                                                                                                                                              ",
"                                                                                                                                                              ",
"                                                                                                                                                              ",
"                                                                                                                                                              ",
"                                                                                                                                                              ",
"                                                                                                                                                              ",
"                                                                                                                                                              ",
"                                                                                                                                                              "
};
