/* XPM */
static char *sprite_1311714039428[] = {
/* columns rows colors chars-per-pixel */
"64 64 110 2 ",
"   c #0C0602",
".  c #0E0803",
"X  c #170B06",
"o  c #1A0D05",
"O  c #1C0F08",
"+  c #1D1005",
"@  c #1D1109",
"#  c #231206",
"$  c #281505",
"%  c #24140B",
"&  c #29160A",
"*  c #27180D",
"=  c #2C1A0C",
"-  c #311B06",
";  c #331C0C",
":  c #391D0C",
">  c #321D10",
",  c #36200E",
"<  c #3C220D",
"1  c #3F280F",
"2  c #372110",
"3  c #3C2511",
"4  c #43250D",
"5  c #49250E",
"6  c #45280F",
"7  c #4B2A0E",
"8  c #532D0E",
"9  c #592E0D",
"0  c #56310F",
"q  c #5B320E",
"w  c #412711",
"e  c #4A2510",
"r  c #442911",
"t  c #4C2D12",
"y  c #532E11",
"u  c #592E11",
"i  c #532F18",
"p  c #4F3114",
"a  c #543314",
"s  c #5A3614",
"d  c #5C3916",
"f  c #563219",
"g  c #5B3519",
"h  c #5D3A18",
"j  c #653406",
"k  c #61340D",
"l  c #6A350D",
"z  c #65380F",
"x  c #6B390E",
"c  c #753D06",
"v  c #723C0D",
"b  c #7B3F0D",
"n  c #632F10",
"m  c #633611",
"M  c #6B3311",
"N  c #633A15",
"B  c #6A3C14",
"V  c #60361B",
"C  c #643D18",
"Z  c #693F18",
"A  c #713311",
"S  c #723D12",
"D  c #7A3C12",
"F  c #703F1A",
"G  c #77410B",
"H  c #7B420F",
"J  c #6C4017",
"K  c #6C4219",
"L  c #744213",
"P  c #7B4412",
"I  c #7E4914",
"U  c #734519",
"Y  c #794619",
"T  c #76491A",
"R  c #7C4B1A",
"E  c #813E12",
"W  c #86480F",
"Q  c #814612",
"!  c #8B4412",
"~  c #854A13",
"^  c #8C4D14",
"/  c #814718",
"(  c #834E1A",
")  c #8B4E18",
"_  c #924E13",
"`  c #994D13",
"'  c #914E18",
"]  c #8D5216",
"[  c #86511B",
"{  c #8C521A",
"}  c #935316",
"|  c #995516",
" . c #9C5917",
".. c #935519",
"X. c #9C5518",
"o. c #975818",
"O. c #9A5919",
"+. c #A25513",
"@. c #A35B15",
"#. c #AA5C15",
"$. c #A15618",
"%. c #A35A18",
"&. c #AA5D18",
"*. c #B25D14",
"=. c #AF6015",
"-. c #A96018",
";. c #B56014",
":. c #B16318",
">. c #C56816",
",. c #C86818",
/* pixels */
"e ; = ; % % e g u 4 : w ; > i Z U F C e : * @ o : y g f r B ~ ^ ! ^ ^ S 8 : N ! +.=.-.#.#.:.#.+.@. .^ W P P } @.@.@.+. .] S S m ",
": & ; ; % % w y i e = = = = = e e < ; % @ + O % r y f g e B ^ ^ / P B 5 ; 7 H ] +.#.#.-.#.@.| ^ W P B P P Q } +.#.#.#.^ B 9 8 5 ",
"& = : & @ @ = w e 3 > e g : % = % @ @ # @ + @ & r f V V 7 s ~ ~ S q 4 = ; z L } | X.@.@. .! L B B M z B B B B M G P x 8 4 : < : ",
"& > ; O O & = * = e S / / P m y = 4 s B N y : % : t V g e 8 B x 5 ; $ # ; q H H Q S S S v B z s 7 5 y q m k q 9 7 5 < : : : ; & ",
"; = % * 6 t = @ : d P I Q ^ ~ G 7 6 B J L B h < & % < : < 8 6 < = o @ % * 7 B M M m q 9 8 8 e 4 4 4 e r 5 e 7 y : : : ; ; - % & ",
"e 4 , p s 7 % @ < z L I P ^ } ~ G 6 7 x P P B q : % % % ; 4 : : = = # @ @ 4 0 7 y 9 8 5 4 e 4 5 u M M S D P S l e ; ; = $ & : : ",
"a f p < ; : % @ < 0 z G H ^ _ ] ^ G 8 8 N G J z y ; % $ & ; 4 7 8 4 : @ @ ; 7 6 8 9 y e : e u / ..X.| ` | | | _ D u w : : : : & ",
"T K C a = : ; # < 4 a G P Q ~ ^ } } Q B 8 8 q a e r * * & < y Z Z N s r : : 7 y u s y : e S ) $.X.X.X.X.X.X.X.| ' M e w e : & # ",
"( ( U K r > 3 * & < q Q ^ ^ Q W ^ } _ ~ P z 8 7 7 6 w 4 t y B U B N s g r < 4 5 y e : w M X.%.%.X.X.X.X.X.X.$.| / M y e : % % : ",
"( [ R U f = > > * : x @.#.+.| ^ W ^ _ ) ^ ~ z 0 4 4 e 8 m m U U U Z N d a w 3 = ; : w y F ..&.&.$.$.X.%.+.X.| Q M s y : @ O - k ",
"( [ [ R C 3 % % * 7 Y } X.+.| _ ! ~ ~ ^ } ^ H x 0 < y s Z U Y Y Y Y U U Z y w * % = 4 y g U ..&.%.$.$.%.X.^ D M u e : # + : v W ",
"[ ( [ R K a % @ $ a Y [ ) | +.| ^ ~ Q P ~ ^ ~ Q v 6 y s Z Y R R R T I I Y Z w * % % & : w r u L ) ` ' / S u 8 e 3 = % X - v ! _ ",
"[ [ [ R K a : @ % r K [ [ ] | | ^ ! ~ P P Q ~ ~ P 0 7 a C U R R R R R R Y Z 3 % % % % % % & : < e e e r 4 : & % # o o $ x ` +.*.",
"[ [ [ R J s 1 @ % 3 K T ( [ { _ ^ ^ ^ ~ S v / Q x t r t e s N Z F Y Y T F a 2 e e i r 2 ; % % & & = = ; = # # O o o o 9 _ #.*.*.",
"[ [ R R C s r * % > h U T R ] ) ^ ^ Q S S B Q P e 3 4 3 > 3 3 < 3 y g m t 3 r s Z Z g a t t r , % # $ % + # % + o o 4 W #.*.;.*.",
"[ [ R R N a r = * = f Z K U ( ) ) ~ N 8 8 x P s = * ; = = > ; * % & > 3 ; % t C K K K h p f h a e # o o O O o + o $ l +.#.*.*.#.",
"[ R R T V a r 2 % * p h K K U R I B 6 7 8 J q * % * > 1 t r r r < , = % % % r N K U K K K C K K K p + $ $ $ + O o 4 W #.#.*.#.#.",
"[ [ R U g t 1 r % % 2 p h K C K C t < 7 q 0 * % % > 1 1 1 1 r < < 3 < , * * ; h K U F U K K U U K h = + $ & & # % 5 H _ +.#.*.+.",
"[ [ T K a r 3 1 @ % % * 3 a a a a < < 7 4 * % % * 1 p r r t t t < 1 < 1 3 ; * r K U U U U K U K K C < * 6 8 7 < - : k v W +.*.*.",
"[ R T V t < 3 r < 1 < = % * , , ; * = = % % % % = r p a h C C N a t t t r 3 = , f Z T T U K K U K d 1 7 N B q 7 4 = 5 9 j b _ _ ",
"[ R J s 4 < 6 s B N d s 7 1 = % % > r 1 > % % % > p K K K K K T J h a t t 6 < , r N U R T T U K K s 1 h Z C s 8 5 - < 7 8 k l v ",
"[ T J 7 < < s J J J J B B N a 6 , r t t 3 % @ = t K K K U T I ~ ~ L N a p t < , > a U R T T U K K a 1 h Z C 0 9 8 5 - 5 9 9 k l ",
"[ J a < < t J T ( [ R T J B B N h 7 r p t = * 2 s K J T I [ ] ] ] ] B d p 7 < , * w C U T T T U C 1 r d Z N 7 8 8 5 < - 9 q 9 k ",
"R d 6 , < 0 J ( [ [ [ R R J J J C a t r r * * t J J T [ } ] ] ] ^ ] Q z a r 4 , ; ; s U U T T K a > p K C N 0 8 9 8 5 4 8 9 q q ",
"B t < < 1 0 T [ [ [ [ I ( R T J J q p 6 2 % = p C T ^ ] ..] ] ] ] ] ^ J a 6 6 , ; * r h J K T K 3 * a K Z Z B 8 8 7 8 5 4 9 9 9 ",
"s < < 1 0 s J R [ [ ( [ [ [ ( I J N p 1 = @ = a J [ ] } ] ] ..] ] ] ] P q 6 < < - & , p h J h r & > h K Z B z 8 7 7 7 4 < - 4 7 ",
"p < < 7 d J d T ~ ( [ ( [ [ [ R U N a , % * > f L ~ ..] ] ..] ..] } ] ~ s 7 < , , ; * < 3 < , * * = s K B B m 7 4 5 4 4 : $ < 7 ",
"t < 1 a d N d J I ( [ [ [ [ R T U s 6 * * = 3 h I [ ] } ..] ..] } } } ] J 7 , : , < ; ; = * % % % > a N Z C 8 < - - $ $ # $ $ $ ",
"6 1 1 s d J J d J R [ ( [ ( I T d t : % = 2 r K [ ] ] ] } ] ....} } | } I 7 , , , < - = * % % * % * r d N a < - ; $ $ $ # + .   ",
"6 6 p d d s N d d K T T J J J d 7 , * = 2 3 t K ( } ] ] ] } } } } o.o.o.P 6 , , < 4 : * * 2 r r * * : 6 e : ; $ - : - ; $ & $ + ",
"6 t a d s d s 0 a 0 a s z d s 7 , , 1 r 1 3 p U R } | } } ] } } } o.o.| G 7 , , 4 < * % , s h d p = = & & # # # # # % & ; ; = & ",
"t p 1 1 0 s a p p t 6 6 6 6 , , r a J J p 1 g T R [ } +.| o.} } o.o.o.} z 7 < - < 4 * % a C K U C e 5 : : e e e e u u e 4 w 4 4 ",
"r > * * 2 1 1 3 1 , = % $ * 4 a N Z R Y h t h K R R R } @.@.| | o.|  .} z 6 < < 4 < - = s K K T U J N s B S / ) X.@.$.X./ m 5 < ",
"= * * * * * @ @ @ % % * : 7 s U Y I Y U a p h K R R T R } #.@.@.|  .| ] d 7 < 1 4 4 $ = p C K K R o.@.X.$.$.+.%.%.%.&.&.| b M 5 ",
"* * * * * % @ % % * * * r a Z R I Y Y K a t h C T R R T I o.#.#.#.+._ H 0 6 7 7 6 < % * r d K K R O.@.%.%.%.%.%.%.%.+.^ D D S 7 ",
"> 2 2 3 3 3 3 2 = ; ; = 5 d U T U U T U s p s h T [ R I R I ] X.@._ W z 8 8 8 8 5 < @ % = 2 , 3 s O.$.%.%.%.%.%.&.@.Q S M A l < ",
"t p p t t p p p t r 1 3 1 a Z Y Y Y I U d p a h K T R [ ( R ( ..] W G s 0 0 q 0 4 ; @ % 3 < % % ; ..%.%.%.-.#.@.~ z s u M M 8 : ",
"p p a p a a p a p p p r r r a C U R R Y d p a h K K R R ( ] ..) L J s s d q j 8 < % % % 6 a % % * L @.-.:.#.^ B 8 5 5 e n u : 5 ",
"a a a f a a a a a a p t t r 1 t s U I U h p a h K K K T ( ( ( U J z s d J z z t , 3 3 2 r s , * * 6  .#.@.P y r 5 r e 7 5 : : N ",
"K K L T T J K N h a h f p p t 1 < g V g p p a h C K K K J T T B s a s J G x q 6 r t a s a m a < * ; ~ } P y 5 e 5 7 7 e : $ 7 @.",
"R R [ ( [ ^ ( R K C d h h s p r < e t t p f f h h K K K K C h p 0 a B J L N 8 6 d C J K N N g t < = y B 0 e 5 e r 5 e : = : D ,.",
"{ { { ..o.} ] ) Q Y J d s h a p r r 1 r r t p h h h h d C s 7 p p s z J B s r a U K R R U N s e w * : 7 7 7 e e 4 : : ; = e ` >.",
"{ { { ..O.o.....[ ( T J s s h h s t 3 3 1 r f h h s h s a p p r t d J B s r t U R R [ ] ( U Z a t = * w e 4 4 ; = ; = > ; 9 ! +.",
"{ { { { { ..O. .o.[ R K C s a h h h t 2 3 r p h h h s s p t r p t s q s t t N R ( [ o. .} I U g t 2 % : < ; = = = ; = & : l E E ",
"{ { [ { { { ..o. ...[ I K h p h h h f 3 = 1 p g h h h a r r r r t s a 7 t s R ( ] O.o. .@.[ Z y t 3 % > ; % * = = = & & e A E D ",
"[ [ [ [ [ { { .. . .o.] U h d s h h h 3 > 2 p f h s t 6 6 1 r p p 0 p t a U ( [ O. .o. .@.| U a t 1 & = = % & * - = ; = 4 M D A ",
"U T R [ [ { { ..-.@. .] T J h s h a f 3 > 2 r p s p 6 1 6 p p p p r p s J ( [ o. .%.O. . .o.I a t r * & & : 8 z M M s 4 * 4 8 e ",
"C C F T T [ { O. .-.-.o.[ J h h h f h 1 > 2 i 3 1 6 p a s s f f 6 p s J [ ] }  .@. . . .@.O.R a t w % & 7 x P P P S P m = & 4 : ",
"C C h C K R [ X.@.-.@.o.{ U d d h s s t 2 3 f 1 2 2 r p f p 1 3 t d K I }  .@. .@. . .|  . .R s r 3 % w z Q ~ I I I P L = * < < ",
"C V h g h K R ..@.@.%.O.{ U d d J J d p 2 p h 3 > > 3 3 3 1 1 r s K R ] o.@. . . . .o.o.@.X.( s r 3 % 8 H ~ ~ W W G H z = % * , ",
"K C h h s C U .. .@.%.O.] T K d U R U a 1 h K t 2 2 3 3 1 1 p h T I ]  . .#. .|  . .o.|  . .( a t 3 % y v P ! Q H L H 0 - < : * ",
"K K h C h g U ..%.&.-.O.o.K J d T I Y d r K K t 3 2 3 r p h K T T R ] @.@. .| | o.o.o. . .@.) s t 3 & 8 P S G P P W G < < L d = ",
"T C h h h h K ..%.-.%.O.{ U h s U I T N r K K t 3 3 r C K T T T R R ..-. . .o.o.o.o.|  .%. .[ s e 2 * e S n 8 n x x 7 ; q P N 4 ",
"T U h h a a Z ..%.@.-.O.{ K a a J R R C p K h 1 1 3 p K T T T T R R .. . .@.| | | o.o.o. .@.] s t * * : 4 : : = : ; - = q B s y ",
"T U h a t a d ]  .-.%.o.R J a s J I T d t p t ; 2 2 1 K T T T T T T ~  .+.#.| | o.o.o.|  . .( t 1 % * % % # @ % @ * * $ = 2 r e ",
"T U h f t t a ( %.@.-.o.R d 0 N Y ( J p r 1 > * * > 1 h K T T T R T R o.#.#. .| | o. . . . .I p 3 % @ @ + # = : 6 < = * % % = = ",
"T K h a a t a Y o.%. .O.[ a a z J J a 6 , = * * * , r a T R T T T U U } -.-.+.o.o.o. . . .o.U e ; % * * & 4 s B B z 0 : , = = ; ",
"U d h h a 7 7 N [ o.o.} R a 7 8 s 8 6 ; % % @ @ * , p a K T R T T U T {  .-.@.| o.o.o. . .} K t * * 5 6 s B P S S P L z 7 < : , ",
"K h h s a t 6 a N I [ ( J 6 < 0 0 4 - $ + + @ % , , p h K T T R T K K R } #.@. .|  .O. . .~ N 3 % < L G H P Q W Q W ^ W z < : : ",
"K C h h a 7 6 a t 0 h N a < 1 7 6 = $ + + % % % , , p h K K T R T K K R ] @.#. .o.O. . . .Y a , % a W ^ Q ~ ~ P I ^ ] W H 7 = ; ",
"C h h s a a 7 t 6 6 t 7 < ; , , & & $ - 4 7 1 - * , p h C K T T T T K R I o.@. . . . . .] J 7 , % z ~ ~ ~ Q I L Q ] } W W x < = ",
"C h h h s 0 8 7 < < 6 < ; & , - $ - 7 q j j 9 6 * , r h K K K T T K T R [ } @.@. . . . .( h < = < P ~ Q Q Q H P ^ _ | } } W 8 , ",
"C h s N d 0 t 6 1 < < - ; - - - - 9 c G j q q 8 = * r d C K K T T T T R I [  .#. . . .] J 6 = = 0 W ~ W ~ ~ P W _ | | | o.^ B 7 ",
"d d d C d t 0 0 6 < < , ; = = & 8 j G G G G j 8 * # 1 p h h K K T T R R [ [ o.@. . .] T s , * , H +.^ ~ ~ ~ P ^ | | | o.^ ) P x "
};
