/* XPM */
static char *sprite_1301714039428[] = {
/* columns rows colors chars-per-pixel */
"64 64 115 2 ",
"   c #150B04",
".  c #1B0E06",
"X  c #1B0F09",
"o  c #1E1106",
"O  c #1D1109",
"+  c #2D1806",
"@  c #24150B",
"#  c #29160B",
"$  c #27180D",
"%  c #2C1A0D",
"&  c #331C0C",
"*  c #391E0C",
"=  c #2F1C10",
"-  c #321E10",
";  c #2F200F",
":  c #35200E",
">  c #3C220E",
",  c #352211",
"<  c #3C2511",
"1  c #3E2812",
"2  c #43240D",
"3  c #49260E",
"4  c #44280E",
"5  c #4C2A0D",
"6  c #532D0D",
"7  c #582F0E",
"8  c #5C320E",
"9  c #422511",
"0  c #4A2712",
"q  c #442A12",
"w  c #4B2D13",
"e  c #412719",
"r  c #4C2D1A",
"t  c #532E11",
"y  c #5A2F12",
"u  c #532F18",
"i  c #4E3114",
"p  c #4F311C",
"a  c #543415",
"s  c #5A3514",
"d  c #5B3916",
"f  c #54331C",
"g  c #59351D",
"h  c #563819",
"j  c #5C3A19",
"k  c #63360E",
"l  c #68370E",
"z  c #65380F",
"x  c #6B390E",
"c  c #723C0E",
"v  c #793F0F",
"b  c #633612",
"n  c #633A14",
"m  c #6B3B13",
"M  c #63371A",
"N  c #643D19",
"B  c #6A3E19",
"V  c #723E12",
"C  c #563420",
"Z  c #593620",
"A  c #5D3821",
"S  c #623B20",
"D  c #693F21",
"F  c #77430F",
"G  c #7B420F",
"H  c #6D4016",
"J  c #65401B",
"K  c #6B421A",
"L  c #754213",
"P  c #7B4413",
"I  c #7E4811",
"U  c #73451A",
"Y  c #7B4719",
"T  c #76491B",
"R  c #7B4C1C",
"E  c #6C4121",
"W  c #724421",
"Q  c #7B4B21",
"!  c #83450F",
"~  c #814613",
"^  c #854A14",
"/  c #8C4D13",
"(  c #834E1B",
")  c #8B4F1A",
"_  c #924E14",
"`  c #914F18",
"'  c #8D5113",
"]  c #86511C",
"[  c #8C521C",
"{  c #935215",
"}  c #9B5514",
"|  c #9D5816",
" . c #93531B",
".. c #9A551A",
"X. c #975919",
"o. c #9E5819",
"O. c #A25513",
"+. c #A45A16",
"@. c #AB5C15",
"#. c #A25618",
"$. c #A35A19",
"%. c #AA5C19",
"&. c #B25D14",
"*. c #B15E19",
"=. c #A66015",
"-. c #AB6116",
";. c #A86018",
":. c #B46114",
">. c #BB6414",
",. c #BA6916",
"<. c #B36319",
"1. c #804E21",
"2. c #C46D16",
"3. c #CC7016",
"4. c #C97019",
/* pixels */
"0 & + & @ # t M y 9 * 9 - - u B B B B 0 * + @ . & u f f q V ^ / ^ / / V t * b ^ +.@.@.@.-.-.@.+.+.| / ^ L L { | } } } } ' L V b ",
"* # * & @ # 0 b M t % # % # % 0 w > + @ O O X @ 9 t f b 0 m / / ^ P l 5 * 0 P ' O.@.%.@.%.+.{ / ! P F L P ^ { } } | } ^ m t t 3 ",
"# % - # X @ - 0 u 9 * 0 y 9 @ % # O o @ O X X @ 9 f M M 5 s ~ / V y 2 + & k P ' } | @.O.| / L V m b k m l m l l x c z 5 2 * 2 & ",
"@ - & X X % % % % 3 V ~ P v b 6 % > k z n t * # * w M f 9 6 m x 3 + # # & 8 G P P V V V c m k y 5 3 6 s b b y y 5 4 2 * * * & @ ",
"& + @ # 3 w % X & H ^ ~ ~ ^ ^ L 5 4 z H V L d > + @ * * 2 t 2 : + . o @ @ 5 m l b 8 8 7 5 t 3 9 2 2 9 0 3 3 t 5 2 * * & * + # # ",
"& @ & s s 5 # . 4 L ^ I ~ / ' / F 5 5 H L L m s * @ @ @ & 2 * & # # # . @ > t 0 6 k y 3 3 2 9 3 y b l V V m y t * + + % & * 0 0 ",
"# + 6 3 2 * @ . 5 L F F F ^ / { / L 6 6 m m m 5 4 * O @ # & & % & & & @ @ & 3 2 9 0 9 * * > 5 m b y t 9 * * % % # # % q i a a s ",
"* 3 3 5 6 6 & @ 5 k x L F L L ~ ' ' ^ k 5 5 2 2 2 4 > $ . + > 3 > 2 3 * > > 2 > * * - # % * : % & % # @ # @ @ @ % - a a N K T R ",
"6 l ! _ } ! 7 + > k F ! ' ! F 8 m P m 5 4 1 q u f f f 0 9 9 < 2 6 7 2 & 2 * * & & & = & > > : * : , % $ @ @ @ + 9 g N T R ( ( ( ",
"G _ @.&.O.O.v + 4 F } @.@.O./ 8 w 2 > > w a Z A N N S A u u u t y 5 * 2 > $ $ : > < q q q 1 q q < > < % = : 1 i s K R ( ( ] ] ] ",
"_ O.&.O.O.&._ * k { @.@.O.O.O.~ 0 - % - f g g f f u u C N E g 3 3 > 5 > : : > 1 q q q q 4 w w q q q 1 > < i h J T ( [ ] ] ] ] ] ",
"O.&.&.&.&.O.! 6 c } -.@.O.| O.{ v 0 9 r f Z A A Z Z C S E D 9 * * > < < q w w w w q q a a a i i q q > q a d T R ( [ [ ] ] ] ] ] ",
">.&.>.>.&.&./ k x _ +.@.O.| _ _ ~ y 9 r f A C A Z C S D j r & & * < q q i i w i a w a a d d a i q > 1 d K R ] ] ]  .] ] ] 1.] ] ",
"&.&.>.>.>.@.O.G c G / } O.O._ _ ^ y - e f C A Z Z C D W f < # % q q q i i i i a a a a d h a i q & : a T ] ] ] [  .] ] ] ] ] R ] ",
"O.>.>.2.>.@.O./ l l x F _ | _ _ ^ u = < u C C C C A Q D e % % 1 w i a a a a a a a a h d a i q % @ a U R ] ] ] ] ] ] ] ] ] ] ] ] ",
"&.&.>.>.O.O.} / 8 8 m c ~ _ / _ / f = < f C C u C D Q N % % 1 i a a d j a a a w a a a a i q & @ , T R ] ] ] ] ] ] ] ] ] ] ] ] ] ",
"&.>.>.>._ _ _ v 5 6 l F G ! / / / d - - f C g f C E 1.f $ < w i d d d d a w w i f a a a q < # @ d R ] ] [ ] ] ] ] ] ] ] ] ] ] ] ",
"&.>.2.>.O._ ! c 6 6 8 F I ! ^ ~ P t - - r C g C S Q Q < % q a a d d d d i i i a a a a a q - @ > T ] ] ] [ ] ] ] ] 1.1.R ] ] ] ] ",
"&.>.>.>.O.! ! l 7 2 2 l P L c m k 4 & $ 1 f C C E Q u $ - w a h d J d h i 5 i i a a a i 1 # @ d R ( ] [ ] ] ] ] ] ] ] ] ] ] ] ] ",
"_ ! ! ! ! v c l 6 2 2 8 b s 8 0 q 2 % $ < f g C W W = @ * w h j d d d h a a 6 s h a h i - @ , T ( ] ] [ ] ] ] ] ] ] ] ] ] ] ] ] ",
"v v l l l l l k 6 5 5 6 2 2 2 > * * % % , r C C E J $ @ % 4 a d n d d d h h s h s s a w % $ j R ] ] [ ] ] 1.] ] ] ] ] ] ] ] ] ] ",
"c c l l l c l 6 5 5 5 2 2 > * * * * + % - 1 p C C < @ @ $ 1 i h d d h h h a h h g h i q & < K R ] [ [ [ ] ] ] ] ] ] ] ] ]  .[ [ ",
"l l l l l l 8 2 > 5 6 6 3 3 5 5 0 5 2 % @ = - e < $ $ O $ ; 1 i i a a a i a s h a a w > > i T R ] ] [ [ ] ] ] ] ] ] [ [  .] [ ] ",
"7 7 8 8 8 7 2 * > 4 6 8 8 l k k 8 6 3 = @ O @ = % : : % $ $ + : 1 1 w i i i i i a i < : > i T R ] [ [ [ [ [ [ [ [ [ [  .]  .] [ ",
"7 7 7 6 5 2 2 3 2 3 6 7 k k k 8 5 2 > + $ + ; : 4 q q q 1 ; $ $ ; : 1 q i i q q q < : & : i K R [ [ [ [ [ [ [ [ [ [  .[ [ [ [ R ",
"5 3 2 * * + + * * 2 2 * 2 3 3 2 2 > + @ + < 4 i q w i i i 1 ; $ O + % ; & : % ; & : $ % & 4 a U ] [ [ [ [ X.[ [ X.[ ]  .[ [ ] K ",
"6 6 7 6 2 2 * * + + + + + & * * % + . @ < w i i i a h a i q : ; ; ; ; : : < 1 : : : % ; : > w s U ] [ [ [ [ [ [ [ [ [ ] ] R K d ",
"2 5 6 6 6 6 5 * + + + + % + # O @ O @ + w a s h h h a h a q : : , 1 4 w i i q i i 4 : : : : w w i H ( ] ] ] ] [ [ ] Q T H z d s ",
"  * 2 2 3 6 6 + & > 6 y k b 6 9 : % # % a a h s d a a a a 4 1 q q w h d h d d d d h 4 > : > 1 5 5 i z T R R R R K H z z d d 8 8 ",
". + 2 3 2 2 2 * 7 l V P ~ ~ ~ P P 6 & < a a d d d a a a i q q 1 i a h j J J N N J h w 1 < > > 4 w w 4 s H K H 8 s s d d 8 d s h ",
".     * 6 8 l ! / / / / / / / / / V 2 9 a h d d d a i i 1 q q i i a a a d J N J N d i w 4 q 1 1 4 4 4 4 4 s 8 i 6 i 8 d d 8 8 w ",
"3 5 5 > 2 c ! _ _ / ` / ` _ / ` _ ^ t * w s d d a i i 1 i q i h a i q 4 a a d d J J h i i i 4 1 1 1 1 1 < 4 4 5 5 6 i d z d s w ",
"3 b m z ..#. ..._ ....{  ...{ X.{  .m > q a d j a w q < e w a h h i q i a a a d N H K K j d i q 1 : : : : > 1 4 4 4 5 d n d s i ",
"* 6 8 +.,.O.X.....| ..o.+.$.O..... .) q : a a a a q : q w a a a d j H K B H L L ) ( R R T J a 5 > : & % : : > > 1 4 i 6 s i 1 ; ",
"& 2 ' 4.<.$.o.O.#.#.+.%.;.;.+.$.O...' > % q w i w : , q i a s B ) o.$. .( Y L U ( [ ( T K H b h i < & + + ; & & : & : ; , = + $ ",
"+ l 2.4.-.$.$.$.O.+.o.%.%.;.%.$.$...[ & @ : < < > : 1 q i h K  .$.$.$.$...~ Y P Y ^ Y L B d d d s q : + $ $ $ @ $ $ % % % % = = ",
"5 +.3.3.2.+.+.+.$.+.$.+.+.-.-.+.%.X.( & @ @ $ = : < 1 w s U  .$.$.$.$.$...^ Y v P Y m m s 5 w q q 1 > : : % $ $ ; % = , , 1 q w ",
"/ 3.3.3.,.+.| +.+.+.+.+.+.+.+.| o.[ U > @ @ $ = : 1 q a U ..#.$.$.$.%.$.#.^ ( V H b s 6 q 1 q q w d J n j a q q 1 < < < 1 i w a ",
",.2.2.3.,.;.+.+.+.-.-.<.+...{ / { ( J 4 @ @ $ - 1 i h K  .$.$.%.%.$.%.$...Y M t w 4 q 4 a s n U ( [  .] T N d d d a w 0 w a a a ",
"3.2.2.,.-.-.-.+.=.-.<.+...{ X...{ T N < @ @ = < q a N ( $.%.%.%.%.%.$...Y p < * > w d n H U ( [ [ { ] R T K T U U K U L T T U K ",
"2.2.,.=.} O.+.=.%.%.+.| { .._ ` ( H s % @ $ , 1 i j Y $.%.%.*.%.%.$. .U i q i j K K R R ( ( ( ( ] R R R R R R R ( ( ( ] ] ( ( ( ",
"2.,.+.{ ' ' / { { _ { / / { / ) U K a $ $ - < q a K [ %.<.%.%.$...( g 9 w j T R ] ( ( ( R R R R T R R Q R 1.R R R R ] ] ] [ [ [ ",
"' ~ P P G L F F m m l m m l m U U n < $ % : < p N Y ..%.%.$. .R d q < i K Y ( ] ] R R R R R R R R Q T T R T T T R R ] ] [ [ [ [ ",
"c m c V V m m m b b d b b s B T K d $ $ , < 1 a U [  ...( K a 1 < 1 a T ( [ ( R R Y R R T R T Y T T T T T U U K K K K R ] [ [ [ ",
"m m m m m b b s b b b b s B T T J < @ = , < e N ( [ ] U a 1 , < q N R [ ) ( R R T R T Y R ( ( ( [ [ [ [ ) ( Y K K K B N K R ] [ ",
"b b b b b b b b b b b b m L Y K q @ $ , < 1 a L ) ] N q , , < a R [  .( Y T T T R ( ) [ [ [  . . . . ... . .) ( R T K K K K U R ",
"9 9 q 0 t t 8 s b b b b n V B 9 @ @ = < < q N Y Y j 1 , < q K  ... .Y T T T Y ( [ [ [ [ [ [ [  . . ... ... . .) ) ( R U K K B K ",
"% & * > 3 < < 3 t t y s s s < @ @ = , , < 0 d K j 1 < 1 j R $.$. .U L K Y ] [ [ ' [ [ ) [ [ [  ... . . . . . . . .` ) R U K N N ",
"* t m V V m b t 9 * - * < < @ @ $ = , 1 < q h h 1 < 1 N ) $.*. .B B T ( [ [ [ ] [ ) [ [ ) [  . . ... . ... . . . . . .) T U B N ",
"y b b n z b m m y 9 & = & # @ @ ; , 1 e e q h 1 , 1 J ] %.*./ M B T ) ]  .[  . . . .[ ) [  . ... . ... . . . . . .[  .1.R U U K ",
"2 y b l m m b t 5 * * * 9 @ @ = ; < 1 w 1 q q , 1 K ] %.%.) t N R )  . . ....... . . ... . ... . . . . ... . .[  . .[ ( R T U K ",
"@ + 3 t 7 t 2 # # # & * * # @ $ ; 1 1 1 ; , < < J ] $.*._ t w U )  . ..... .X. ... . . . . . . . ... . . . . .[  . .[ 1.R Q T T ",
"# . @ + + @ $ - > 0 5 5 9 $ - < q i p w ; = , j R o.<.#.d q b )  . ... . . . . . ... . . . ... . ... . ... . ..... .[ R R T R T ",
"* O X @ $ $ - y b m V m 2 $ : e h h h p < % i R  .%.%.^ 9 w U )  . ........... . . . . . . . .[  . . . ...o.$.$. .] ( R R Q R T ",
"- * t q = < b P P P L z % ; < i j J J j 1 , N ] $.*.+.d < 5 L (  . ...$.$...o.o.....o........... ...$.$.%.<.@...] 1.R R R Q R R ",
"9 s m V * t V v P P L s $ , q h E J J j 1 , K [ *.%.^ 0 > t L )  . . ...o.$.$.+.%.$.$.$.@.%.@.&.%.%.%.%.%.*.o.] ( R R R ] ( R R ",
"3 k k 6 + 6 V P P v 8 4 + < q S E J J h 1 1 T #.*.$.B > * t P [  . . . . .o.$.#.$.$.$.%.>.>.>.,.>.%.%.$.X.[ ] R R R R R ] ] ( Q ",
"2 6 0 * # 2 P ^ P m 4 ; % 1 h J J J J h 1 1 R %.*...s < : t ( [  . . . . . . ...o.o.#.$.%.*.:.:.<.%.o.[ ] Q T R R R R R ] R ] R ",
"* * & @ o 9 m L V t % $ ; , q j J J J h , q [ %.%. .w : > a [  .[  .[ [  . . . . . . .#.+.+.%.:.%.%.[ R T T R T T R ] R ( ( R R ",
"* & # @ @ 0 0 w 3 > # O $ ; 1 h j J J h 1 i ' %.%./ 4 & & w [  .[  . . .[ [  . . . . ...o.o.%.*.+. .R T T T R Q Q R ] ] ] ] ( T ",
"* * * + % 0 0 9 < ; O O O ; 1 p h J j r 9 a  .%.$.) 3 & * q ( ..[  .[  . . . . . .[  .o.o.$.%.%...R R T R R R ] [ [  .[ [ ] R U ",
"* * 0 > % 9 3 9 < : % O O ; 1 1 i j h < q b  .$.$.( s * * 9 m  . . . . . .[  .[  .[  .o.$.%.%.o.( Y T T Q ] [  . . . . .[ 1.T K ",
"* * 3 * # + > 9 2 < < % ; ; ; , 1 q , , q m o.$.#.^ m 4 < < Z [  .[  .[  . . .[ [  .....$.@.$.[ R T T ( [  .X.o.$.o... .[ ( U J ",
"0 * 2 2 o @ 9 0 < * : $ ; ; , ; ; ; $ % w ^ $.$.$.) P a * 9 u Q [ [  . .[ [  . . . .[ X.%.%. .R T T (  .o.o.o.o.%.;.%. .[ R K J "
};
