/* XPM */
static char *sprite_1291714039428[] = {
/* columns rows colors chars-per-pixel */
"64 64 143 2 ",
"   c #0C0602",
".  c #0F0A04",
"X  c #140D05",
"o  c #190E05",
"O  c #140E09",
"+  c #1B0F08",
"@  c #1C1006",
"#  c #16110A",
"$  c #1B110A",
"%  c #1E180E",
"&  c #231206",
"*  c #291606",
"=  c #23140A",
"-  c #2A160A",
";  c #25180E",
":  c #2C190C",
">  c #341C0C",
",  c #391E0C",
"<  c #231710",
"1  c #261910",
"2  c #2B1C11",
"3  c #321E11",
"4  c #36200E",
"5  c #3C210D",
"6  c #2E2014",
"7  c #352214",
"8  c #3B2414",
"9  c #3E2817",
"0  c #372518",
"q  c #3A2618",
"w  c #3E2819",
"e  c #43240D",
"r  c #49260D",
"t  c #46280E",
"y  c #4C2A0E",
"u  c #532C0E",
"i  c #592E0E",
"p  c #57320F",
"a  c #5B320E",
"s  c #432612",
"d  c #482710",
"f  c #452913",
"g  c #4B2A11",
"h  c #442B1A",
"j  c #4B2D1B",
"k  c #532D12",
"l  c #5A2F11",
"z  c #522E19",
"x  c #4E321C",
"c  c #563114",
"v  c #5C3312",
"b  c #54341C",
"n  c #5A351B",
"m  c #56381D",
"M  c #5C3A1D",
"N  c #61340E",
"B  c #6A340F",
"V  c #65380F",
"C  c #6B3A0F",
"Z  c #723C0E",
"A  c #7B3E0F",
"S  c #632F11",
"D  c #633512",
"F  c #6A3411",
"G  c #653813",
"H  c #6B3A13",
"J  c #61351A",
"K  c #623C1D",
"L  c #6A3C1B",
"P  c #713311",
"I  c #733E14",
"U  c #7A3D13",
"Y  c #713E18",
"T  c #563720",
"R  c #603A20",
"E  c #5E401D",
"W  c #7C430F",
"Q  c #66411D",
"!  c #6C441D",
"~  c #6F481D",
"^  c #754114",
"/  c #7C4313",
"(  c #7F4A13",
")  c #73451C",
"_  c #7C4318",
"`  c #754A1D",
"'  c #7C4D1D",
"]  c #7E511D",
"[  c #5E4120",
"{  c #6C4220",
"}  c #724720",
"|  c #7A4C20",
" . c #813E12",
".. c #824614",
"X. c #8A4515",
"o. c #854A14",
"O. c #8C4D15",
"+. c #824518",
"@. c #804F1D",
"#. c #8C4C19",
"$. c #934E14",
"%. c #994E16",
"&. c #934E19",
"*. c #994F19",
"=. c #8D5014",
"-. c #82521D",
";. c #8C561D",
":. c #8C581D",
">. c #935215",
",. c #9B5415",
"<. c #9D5815",
"1. c #955219",
"2. c #9C5418",
"3. c #9D5818",
"4. c #A35513",
"5. c #A45914",
"6. c #AB5C15",
"7. c #A35519",
"8. c #A8531B",
"9. c #A45918",
"0. c #AA5A1A",
"q. c #B35D16",
"w. c #B85E17",
"e. c #B45D18",
"r. c #AF6015",
"t. c #B66016",
"y. c #BB6317",
"u. c #BF6817",
"i. c #B56018",
"p. c #BC6219",
"a. c #BE691B",
"s. c #C26617",
"d. c #C36817",
"f. c #CA6917",
"g. c #C36519",
"h. c #C56A18",
"j. c #CB6A18",
"k. c #D26F19",
"l. c #D5711A",
"z. c #DB751A",
"x. c #DD791B",
"c. c #E47D1A",
"v. c #F58A00",
/* pixels */
"g > > - & + : , , > , , 2 : 3 , 5 s d 5 : : & + , k n b d H o.=.o.O.O.I u 5 G o.5.6.6.6.6.r.r.5.5.<.O.o.^ W >.<.<.5.5.<.=.^ I G ",
"> - , > = + ; = : , 8 2 2 : - 3 > = $ @ $ $ + = t z b v g H o.O.o...C y > y W =.5.6.6.r.r.5.>.=.o.W ^ ^ / o.>.r.r.r.r.o.C u u r ",
"= : , : @ $ = = 1 2 , v v 8 - 2 = $ $ & & $ @ = e n J K y v o.O.I a e - > V ^ >.,.<.5.5.,.o.^ I H V a V H H C B ^ W C y e e 5 , ",
"= , 2 + $ > 4 > , H 2.1.=...F k : 5 G H H c 3 - > g J n t u G C r : * = > a ^ W ..I Z I ^ G v a y y c a D N v i y e 5 5 , , > & ",
", > & : c H v ^ 6.a.a.p.6.%.O.O.^ v ^ #.>.o.H t - - , , s k e 4 = & & = ; y H C D N v i y u d e e e t r r d u y , , , > > > & - ",
": & 4 H / / %.y.y.a.a.h.u.e.q.9.1.....#.,.<.#.Z 4 & = = > e , > - - = + = 5 k y k a u r r d e r l D B I U / I N r > > > * = > , ",
"= , D Z o.9.p.y.a.a.h.d.y.i.w.0.1.o.+...$.,.>.o.G > & = = > > > > - : + $ > y y y i k r 5 d c o.1.1.2.2.,.,.,.$. .u e 3 , , , : ",
", N I $.0.y.p.u.h.h.d.y.e.e.q.7.O.O.I +...( o...H y : $ + & - , e r e = $ - y k l D k , g P #.3.7.2.,.,.3.2.2.2.&.F g e s , - & ",
"N o.,.q.y.u.u.d.j.h.p.w.q.e.0.1.=.#.G H _ ..^ H G t 8 & @ & : y N N y - + = > r k d , e H 1.9.9.,.2.3.2.2.,.7.%...H k d , - & , ",
",.5.w.y.u.s.s.s.y.y.w.w.i.e.7.#.1.o.G c v D G N u t 5 + & > e C  ._ i : = = = - > , e z ) 1.0.6.8.2.3.9.9.7.,...F l k 3 & + > N ",
"q.t.u.p.s.d.u.y.w.i.y.s.y.0.1.#.O._ D k k k c c k e , X & 5 a ^ .._ l 3 : < = = , , e k n ^ 1.0.9.3.3.7.1.O.U S l d , & o , B X.",
"y.s.p.s.s.u.y.i.q.q.s.g.e.3.#.>.#._ F l v l v k d e s & = k Z ^ / I e > , > = , z 3 - , s d v U o.1.&...I a k d , 3 & O * Z O.$.",
"u.s.s.s.y.w.w.e.e.w.f.u.8.1.#.=.+.Y I J v G c g g t 4 : * i N a a u : : , , - e k 2 = = = - , , d y y s e > - - & o o * Z $.4.q.",
"s.s.s.p.y.i.q.e.e.y.j.p.2.&.=.#._ H Y H D v k d y d 4 - : y y r e > & = 3 3 * , r r k s - & = - : : : > - * & & & o o i %.6.t.q.",
"s.d.y.w.y.i.e.e.w.k.j.0.1.;.1.o.U Y L H J l g y g y e : , e , : * * * & 2 : + , P ) G G k - & o + * * = @ & & @ o o e o.4.r.t.6.",
"d.y.i.t.i.e.e.e.h.z.p.&.#.#.=._ I Y Y H D k g d g g s > : , : * , e r e : 2 + - o.&._ L v s > - o . o o o + + o o * C 4.r.q.q.6.",
"y.t.w.i.e.e.e.w.z.l.2.+.+.+._ Y Y U H H v k s d g g t 8 > , t y H _ / / k - - = D L Y _ H l r e -   o * & * & & + 5 o.4.r.q.6.6.",
"w.i.w.w.e.q.e.k.v.g.+.+.@._ U Y Y Y Y D v k d d d d e 4 t G I / o.o.o.#.G = = @ k v n J I / I e > & o & * * & & & r W $.4.6.6.4.",
"h.g.s.w.y.d.f.v.v.2.+.+.U Y Y I U U H J v g d d d g 8 : r ....( o.O.O.o._ y $ & t z n c b z u e , > * > * , 5 , > e N Z ..4.q.q.",
"z.z.z.z.c.x.v.v.k.@.+.U Y Y Y Y Y Y G D v g t f d d e : > ......o.O.#.#._ G 5 & , g k d s , > 5 e y l F e e y r e * r u N W $.$.",
"k.k.k.k.k.l.c.z.*.+.U Y I Y Y Y Y L D D c f t g g g 5 > > H o./ ..O.o..._ L c , - 5 4 > > , r y i N H L y , y u e , 5 y i N B Z ",
"&.*.2.1.*.8.8.1.+.) L Y I I Y Y I D D v k d g t g g 5 : > a X./ ..o.o._ Y H G c y - : : = - e y N C G p 5 > e u y e , e i i N C ",
"Y Y U +.+._ _ ) L P I Y ^ Y Y U L D D c g y f t g d > : > k ..+. .o.o.I H H D G v d > = = - , y u u y e , : r u u y 5 , u a i N ",
") U ) _ ) ^ I _ +.X.O.&.O...Y Y G v G v g g g t d d > - , k ..o...o.o.I F G G G G l s : : , - , e t e 5 > , u u u u r e u a a i ",
"_ _ _ ) I U 2.0.8.&.#.+._ I I H J D D k t d t f t t > ; , v ^ o...o...I D G F G G v k , : > - = , e 5 , > u B i u u u y e u u a ",
"Y _ _ _ +.*.0.8.+.Y Y Y Y Y I D D D l d t t d d d 4 - - , v +.o./ ....I D D D G D D l , & - = - > 5 5 4 y F N u y r y e 5 > e u ",
"U &.&.&.7.&./ G v v l H I Y H v D v d , 4 , , 4 > - = - - y ( o.U ....H D S D l v v u - + - : 5 , , r u v G N y e e e 5 > * 5 r ",
"u X.7.*.O.H k c c c l k G L D J v d > > : > : : - = $ $ @ > F / I ^ Z H D D D l i k , = , v l l e > , u p p u , > , * * * * * * ",
"- y I I v k k c c v v k k v D D g 3 > : - : : : - = o X + = 4 e r y u l u v D l u t - e C / H F u , - e r r , > * > * * & @ .   ",
"+ & 5 g g k k c v c c k k k D k > > - - - * : - & $ @ X + & $ $ - > > 3 > , 8 , s , , N ....I H y * - * : : * > > > > > * * & @ ",
": @ @ : s g k k c v v k g k k s : - = - - - = @ $ @ $ X o X @ @ $ $ & $ = = $ $ ; > u / o.o.X.I y e - & + & & & & & & = > > : - ",
"& = o O : 5 r k i c k k k s , : = - = = $ @ $ # $ # $ : > 3 3 4 : 2 2 2 3 : $ + o & e H / I S r e e , - e s d d u u k k e s e e ",
". X X . $ : 4 t k k k g s > - - = & & $ $ $ $ # = 3 7 w h h h h 0 7 w h h 0 1 $ # O > e t r > - 5 d 5 y v H ( O.,.9.2.1.o.D t 5 ",
"$ # . . X & : 4 8 e 5 4 4 - = $ $ $ % $ % % 1 0 q h j m T x j j 0 2 h x j 0 2 < $ $ 8 v t - o = > - = t k F _ >.9.9.6.6.,.^ C r ",
"; @ $ # X X - > > 5 4 , : = X $ = ; 2 6 2 6 h h h h m M M M n j q 2 q j h 6 6 1 = $ O + $ + $ & & = e c D D H / ,.9.9.O.U A I y ",
"- ; : = $ $ # ; : > 4 : - $ # ; 3 h h x w 0 x h h h M K M M T j q 6 q j h 6 1 % % = = - ; = : , t H #.$.O./ _ I =.5...I B P B e ",
"7 4 q 7 2 1 ; $ o $ & = $ # ; h x x x b x h x h h h x T M M K T q 2 w j w 2 < % $ < : : - $ * u o.8.0.0.8.1.#.Y C G l l S B u , ",
"7 8 h h q 7 0 6 ; @ # # $ < h x x b b M M M M m b b b m M T b j q 2 w h 6 < % % $ = : ; = - 5 ^ 7.0.8.0.0.7.#.D t e r d S l 5 r ",
"9 h h h h f q 7 8 > - % 1 7 j b b m Q Q Q ! ! Q M M M K M j h h q 6 0 0 < < $ $ % & - = = 4 c #.8.0.0.8.8.2.+.z e 5 d y y , > F ",
"h f h h h h h h w 8 3 ; 2 0 x m Q ! ~ ! ! ! ! ! ! ! ! ! ~ Q T j q 6 0 < < < # $ $ $ ; - : p ^ #.7.0.0.0.0.*.Y c r 5 y d , = y 5.",
"h j j j j h h h j h 7 ; 2 h m E Q ! ! ! ! ! ! ! ! Q ! ! ! ! K m h 6 2 < # # # # $ + < : t v ..8.8.8.8.0.7.#.) c t , s e : , A f.",
"b b m m x j h j j q 2 1 6 m E ! ~ ! ! ! ! ! ! ! ! ! ! ! ! ! K b x 0 < # O O # % 1 $ & 3 t c H 1.p.w.w.e.8._ U c e > , , - r %.f.",
"K K M M M b j T h 6 6 2 s T Q ~ ! ! ! ! ! ! ! ! ! ! ! ! ! ! K m j 2 % O O # = 2 2 $ = 7 f t g v +.2.1.&._ _ +.k 8 : : : > i X.%.",
"K K K K ! ! T j 0 6 : > j [ ! ! ! ! ! ! ! ! ! Q Q ! ! { Q ! ! n h % O O # ; 2 3 2 = $ 4 k k t g J G v c D Y ^ k 4 , : ; , P  ...",
"~ ! ! ! ` } M h 6 6 2 7 b ! ~ ! ! ! K ! ! ! ! ! ! ! ! L ! ! K M q % O # < 2 3 2 1 = # : g k t y G G v v V p c g > : : - r P  .A ",
"` } ) ` ` ) M 0 6 2 2 h K ~ ! ! ! ! ! ! Q ! Q ! ! ! ! ! ! ~ ! m 3 O # 1 3 2 2 : 1 < $ ; 9 s 9 d c c z b z j h > - : > > , P A P ",
"` ~ ` ` ` ~ h 6 6 2 3 z ! ~ ! Q ! ! ! ! ! ! ! ! ! ) ! ! ! ! ! x < O % 2 2 2 7 3 2 1 = $ : 4 6 8 f f s f f h , @ F H a 5 : e u y ",
") ! ` ` ` T 0 6 2 2 s K ~ ! ! ! ! ! ~ ! ~ ! ! ! ! ~ ~ ~ ! ! ! j % O 1 2 3 2 2 2 1 2 1 $ - : ; : 2 3 , 9 s 7 & 4 / Z _ D - : 5 , ",
"! ! ' ` { x 6 6 1 7 K ` ` ! ! ! ! ~ ~ ` ~ ~ ` ~ ~ { ` ~ ~ ! { x # $ 2 2 2 3 3 2 : 2 ; $ $ = ; = 1 ; : 2 3 ; $ y ( W W ^ : = 5 4 ",
"! ~ ` ` T 0 3 1 7 M ` ` ` ` ~ ~ ~ ~ ) { ! ~ ` ` ~ ) ` ` ) ! { h $ ; 4 2 2 2 : 2 2 3 3 $ o X $ $ + = < = = $ $ C ( W W C : ; : 4 ",
"` ` ` Q h 3 2 2 j } ) ` ` ` ` ' ' ` ` ` ) ~ ` ` ` ~ ` ` ~ ~ R h # 2 3 3 7 4 3 2 1 2 > ; X + @ + X o + O X X @ W ^ W W p : 9 4 - ",
"' ` ! x 0 2 2 7 { ' ` ` ` ` ' ' ' ' ' ' ` ~ ` ` ` ` ` ` ` ) } s # 1 : 7 8 6 2 2 : : ; > 2 : 7 > : + O X X o - I W o.C 4 e ^ v : ",
"` ~ T 0 6 2 2 m } ` ` ` ` ` ] ' ' ' ' ` ` ` ` ` ` ` ` ` ~ ~ { h # 2 8 h 7 2 2 2 2 2 8 8 j M b k d , > - & + - y N C y 4 a / G 9 ",
"` T w 6 2 1 7 { ' ` ` ` ' ' ' ' ' ' ' ` ` ' ` ` ' ` ` } ~ ~ L 8 % 2 j j 1 2 2 1 2 7 h h b L K J n k k s 2 = & = : > : - a C p p ",
"M h 6 6 2 1 b ' ` ` ` ` ` ' ' ' ' -.' ' ' ` ) ' ' ` ` ) ~ ~ K 7 % 7 x j 1 2 2 1 2 h z 9 j R ! ! L M n k , : + X @ = - = : 4 t f ",
"q 6 6 6 1 8 ! ' ` ` ` ` ' ' ' @.-.' ] ' ' ' ' ' ' ` ` ) ! ~ m 3 % w T h 1 2 1 2 3 z z 3 j ) ) ' } M T z f 2 + ; 4 4 : * ; ; : : ",
"4 5 8 9 , m ' -.` ` ` ` ` ' @.-.-.' @.' @.@.@.' ' ' ' | } R h - < w j 3 2 1 1 2 8 b f 8 K ' } ' ' R T n y ; @ 5 u N u 4 4 : : > ",
"n n b g 8 K -.' ' ` ' ` ' ' ' ] @.@.' -.@.@.-.' ] -.-.] L z s < 1 2 2 2 1 2 1 1 f j 7 j ` ` ) ' ` L K n s - @ 5 u C ^ V y 5 4 4 ",
") ` L z z ) -.@.` ` ` ` ` ' @.-.@.@.@.@.@.-.@.@.' -.@.-.n z 8 < 1 1 1 1 1 1 < 2 x 9 < K @.` ` ' ! n n R f ; = 4 a ^ o.o.V 5 > , ",
") ) ) b b ` -.' ` ` ` ` ` ' @.' @.@.' -.-.| @.@.' @.#.} g z s < 1 < 1 1 1 1 < 0 j 1 < K ' ` ` ' R n K n 3 ; & 4 p W =.o.W y > > ",
"` ) Y z n @.-.' ` ` ` ` ~ ' -.' @.@.@.| @.@.@.@.@.-.| z j g 3 < < 1 1 1 1 < 2 j 7 $ h ` ` ` ' ) K T K s 4 - % : a o.>.o.o.C 5 > ",
"` ) R b M -.-.@.` ` ` ` ' ' @.-.' -.@.-.-.@.@.@.-.-.n f z h < 1 1 1 1 1 1 < s h < < h | @.' ` K n R j 3 4 : = * V o.>.=.=.W u 4 ",
"| ) } j K ;.;.-.` ` ` ' ' @.@.@.@.@.| @.@.@.@.@.@.` z z f , 2 1 1 1 1 1 1 - 0 2 1 2 j R ) { L T K R h , 8 4 = : V ( >.=.>.#.C y ",
") } z g ~ :.:.-.` ` ` ` ` ] @.' @.@.-.@.@.@.@.-.-.L h > 3 h 3 1 1 2 1 1 1 2 2 < 1 7 h K ! K R L K j 7 , 5 4 = & a o.=.=.=.=.W V "
};
