/* XPM */
static char *enemy_02[] = {
/* columns rows colors chars-per-pixel */
"64 64 109 2 ",
"   c cyan",
".  c #5B6347",
"X  c #6F7357",
"o  c #7B7F63",
"O  c #9F876F",
"+  c #27531B",
"@  c #B37347",
"#  c #439337",
"$  c #3F832F",
"%  c #37732B",
"&  c #CF8353",
"*  c #F7AB7B",
"=  c #FFC7A7",
"-  c #8F5F37",
";  c #EFA373",
":  c #FFBB93",
">  c #E79B6B",
",  c #DF9363",
"<  c #FFDBC7",
"1  c #FFB383",
"2  c #FF7B7B",
"3  c #E30000",
"4  c #BF7B4B",
"5  c #FF9B9B",
"6  c #FFBF9B",
"7  c #5B5B5B",
"8  c #774F2B",
"9  c #A36B3F",
"0  c #C39B2F",
"q  c #9F8363",
"w  c gray31",
"e  c #5F0707",
"r  c #937B63",
"t  c #B79F87",
"y  c #BFA78F",
"u  c #373737",
"i  c #272727",
"p  c #D75F0B",
"a  c #B34F4F",
"s  c #9B3333",
"d  c #AF7B1F",
"f  c #232323",
"g  c #836B4B",
"h  c #A78F77",
"j  c #8F7753",
"k  c #AF977F",
"l  c #6F5743",
"z  c #434343",
"x  c #2F2F2F",
"c  c #874307",
"v  c #F37317",
"b  c #533F2F",
"n  c #8B735B",
"m  c #9B7F6B",
"M  c #7B634F",
"N  c #AF4747",
"B  c #43331B",
"V  c #332B13",
"C  c #1F170B",
"Z  c #5F4B37",
"A  c #836B57",
"S  c gray39",
"D  c gray23",
"F  c #CB6B6B",
"G  c #C76363",
"H  c #BB5757",
"J  c #8F2B2B",
"K  c #775F4B",
"L  c #A33B3B",
"P  c #875733",
"I  c gray42",
"U  c #777777",
"Y  c #8B8B8B",
"T  c gray50",
"R  c #838383",
"E  c #979797",
"W  c #7F532F",
"Q  c #2B230F",
"!  c gray67",
"~  c #9F9F9F",
"^  c #6F6F6F",
"/  c gray28",
"(  c #4B371B",
")  c #AB6F43",
"_  c #5F4323",
"`  c #939393",
"'  c #373F27",
"]  c #972F2F",
"[  c #771717",
"{  c #53573B",
"}  c #3F472B",
"|  c #831F1F",
" . c #CB7F4F",
".. c #7F1B1B",
"X. c #731313",
"o. c #530707",
"O. c #6B4727",
"+. c gray70",
"@. c #6B0F0F",
"#. c #670B0B",
"$. c #430000",
"%. c gray34",
"&. c #676B4F",
"*. c #3F2F17",
"=. c #533F1F",
"-. c #474F33",
";. c #8B2323",
":. c #A73F3F",
">. c white",
/* pixels */
"                                                                                                                                ",
"                                                                                                                                ",
"                                                                                                                                ",
"                                                                                                                                ",
"                                                                                                                                ",
"                                                                                                                                ",
"                                                                                                                                ",
"                                                                                                                                ",
"                                                                                                                                ",
"                                                  . X o O O O o X .                                                             ",
"                                                  + @ # $ % $ # @ +                                                             ",
"                                                  + & * = = = * & +                                                             ",
"                                                  - ; : * : * : ; -                                                             ",
"                                                > @ + = , < , = + @ >                                                           ",
"                                                1 , 2 3 + * + 3 2 , 1                                                           ",
"                                                & 4 1 5 ; 6 ; 5 1 4 &                                                           ",
"                                                7 8 9 ; 0 4 0 ; 9 8                                                             ",
"                                            q q w 8 4 0 7 e 7 0 4 8 . r                                                         ",
"                                    q t t t y y u i 9 p a s a d 9 f g h h q j                                                   ",
"                                  j q k t y y t l z x c p v d c x b g q t t k h n l                 7 7                         ",
"                                l j q O m k m k q M N B V C C C w Z g h A t k k m j l         7 S z D D                         ",
"                                Z g j q j Z q F h h G H J B B J a q q q m K h m r q l     7 z z f x f x                         ",
"                                B b Z g l V N q F q G a L J N L a P B g q w q j I U Y T w z x f x x                             ",
"                                B b B B B C B g H G H a L J N Z f z x f f w I R E E Y U f u x x                                 ",
"                              W 9 4 & , 4 b f Z J L J J b Q f z j g g D D ! ~ E R ^ S / x x                                     ",
"                              ( ) ) 4 - _ Q f V V V x f x B L b E E ` z w 7 U I w D D u u                                       ",
"                              ' 9 9 _ B i B f x C x b J L R E ` I I I f i x / z u u ] L [                                       ",
"                              . O h n { } f f x z b R ~ ~ R S / D D / / / w x f B ] L | [ [                                     ",
"                            . } r  .9 W @ f D z T E R 7 7 D D D / / / / w Z i f L ] ..X.o.o.                                    ",
"                            i O.@ , , 4 +.U E R I 7 / D D / / / / 7 x w B l z Q X.@.#.$.$.o.                                    ",
"                            Q W - ^ ^ ^ ^ i w z / D D / / / / %.7 z f V B l   f $.C o.o.$.                                      ",
"                            f ^ ^ ^ 7 / u x / / / / / / / / D D x i C r O &.    ( *.B (                                         ",
"                            ^ 7 / u u u u x D z w / / / D D =.x i i V &.-.-.                                                    ",
"                            w u u u u u u x 7 I I I S 7 ( =.=.i i i V -.-.'                                                     ",
"                              u u u u u x C Q o.C x f x *.B Q i i i B Q -.                                                      ",
"                              z u u u u x o.( [ [ x f x . ' -.i i b Z x Q                                                       ",
"                                x u u u z ( $.o.[ x i x -.' ' x V b b g l b                                                     ",
"                                  x u l Z Z o.$.o.x x x Q x x Q B Z Z b Z Z V                                                   ",
"                                      Z b j j g H l l j V Q Q B b b B B V B V                                                   ",
"                                      l B l Z N ] N Z B b f C l b B B B B V C                                                   ",
"                                      b B b b ;.] b B B B f C V B B ..V e B C                                                   ",
"                                      b B V B #...#.V b V C V C C B ..e e B C                                                   ",
"                                        b B B B #.#.B B B C C V V @.@.#...B V                                                   ",
"                                          V @.B B #.B B B V B [ @.#.#.e #.V                                                     ",
"                                        V @.@.B B B b b B V V B [ e e @.#.C                                                     ",
"                                        V @.B b b Z l l B V V V #.e @...@.V                                                     ",
"                                          x } &.o o o &.-.B V #.V V V ..e C                                                     ",
"                                          x -.{ . &.. -.x   f V ' ' V V V C                                                     ",
"                                            } . . { . { '   f V V V ' ' f                                                       ",
"                                            ' -.-.-.] ..} ' V V V ' } } f                                                       ",
"                                            f V B B V V { ' V V V ' } -.x                                                       ",
"                                            x -.-.{ . { } ' B f V @...x '                                                       ",
"                                            f ' } } } ' ' ' } B V V V f                                                         ",
"                                            x -.-.. N -.}   f } } } -.'                                                         ",
"                                            } ] -.. . -.x   f ' } ] *.                                                          ",
"                                              } { H . ;.x   } V B B B                                                           ",
"                                              } { . N -.}   f V V B B                                                           ",
"                                                Q J J (     f V V B =.                                                          ",
"                                                ( L L _     } ( B B B                                                           ",
"                                              { _ O.J =.-.  } ;.s ;.B                                                           ",
"                                              { ] :.:.L {   u D D D u                                                           ",
"                                              { J L :.] _ {                                                                     ",
"                                              { _ ] ] J _ {                                                                     ",
"                                                -.-.} } '                                                                       "
};
