/* XPM */
static char *enemy_04[] = {
/* columns rows colors chars-per-pixel */
"64 64 102 2 ",
"   c cyan",
".  c #5B6347",
"X  c #6F7357",
"o  c #7B7F63",
"O  c #9F876F",
"+  c #27531B",
"@  c #B37347",
"#  c #439337",
"$  c #3F832F",
"%  c #37732B",
"&  c #CF8353",
"*  c #F7AB7B",
"=  c #FFC7A7",
"-  c #8F5F37",
";  c #EFA373",
":  c #FFBB93",
">  c #E79B6B",
",  c #DF9363",
"<  c #FFDBC7",
"1  c #FFB383",
"2  c #FF7B7B",
"3  c #E30000",
"4  c #BF7B4B",
"5  c #FF9B9B",
"6  c #FFBF9B",
"7  c #5B5B5B",
"8  c #774F2B",
"9  c #A36B3F",
"0  c #C39B2F",
"q  c gray31",
"w  c #5F0707",
"e  c #9F8363",
"r  c #A78F77",
"t  c #AF977F",
"y  c #6F5743",
"u  c #373737",
"i  c #272727",
"p  c #D75F0B",
"a  c #B34F4F",
"s  c #9B3333",
"d  c #AF7B1F",
"f  c #232323",
"g  c #836B4B",
"h  c #8F7753",
"j  c gray39",
"k  c #B79F87",
"l  c #BFA78F",
"z  c #434343",
"x  c #2F2F2F",
"c  c #874307",
"v  c #F37317",
"b  c #533F2F",
"n  c gray28",
"m  c gray23",
"M  c #BF5B5B",
"N  c #3F2F17",
"B  c #2B230F",
"V  c #1F170B",
"C  c #AF4747",
"Z  c #6F6F6F",
"A  c #DF8787",
"S  c #D37373",
"D  c #A73F3F",
"F  c #43331B",
"G  c #4F3B23",
"H  c gray50",
"J  c #777777",
"K  c #DB7B7B",
"L  c #C76363",
"P  c #5F4B37",
"I  c #8B8B8B",
"U  c #9F9F9F",
"Y  c #939393",
"T  c #332B13",
"R  c #CB6B6B",
"E  c #BB5757",
"W  c #7F532F",
"Q  c #A33B3B",
"!  c #8F2B2B",
"~  c #972F2F",
"^  c #838383",
"/  c gray42",
"(  c #D78B5B",
")  c #5F4323",
"_  c #7F1B1B",
"`  c gray34",
"'  c #6B4727",
"]  c #6B0F0F",
"[  c #4B371B",
"{  c #474F33",
"}  c #771717",
"|  c #676B4F",
" . c #8B2323",
".. c #731313",
"X. c #F3A3A3",
"o. c #373F27",
"O. c #AB6F43",
"+. c #9B633B",
"@. c #533F1F",
"#. c #53573B",
"$. c #3F472B",
"%. c white",
/* pixels */
"                                                                                                                                ",
"                                                                                                                                ",
"                                                                                                                                ",
"                                                                                                                                ",
"                                                                                                                                ",
"                                                                                                                                ",
"                                                                                                                                ",
"                                                                                                                                ",
"                                                                                                                                ",
"                                                    . X o O O O o X .                                                           ",
"                                                    + @ # $ % $ # @ +                                                           ",
"                                                    + & * = = = * & +                                                           ",
"                                                    - ; : * : * : ; -                                                           ",
"                                                  > @ + = , < , = + @ >                                                         ",
"                                                  1 , 2 3 + * + 3 2 , 1                                                         ",
"                                                  & 4 1 5 ; 6 ; 5 1 4 &                                                         ",
"                                                7 7 8 9 ; 0 4 0 ; 9 8                                                           ",
"                                              7 q q 8 4 0 7 w 7 0 4 8 . e e                                                     ",
"                                      e r t r t y u i 9 p a s a d 9 f g r r r e h                             j                 ",
"                                  h e k l l l k r y z x c p v d c x b g e r r r e g                     7 j n m                 ",
"                                h g r r e k k t e e e M N B V V N C g e r g r e e g y               Z 7 m z f                   ",
"                                y e r t t e t g t A e S a D F G D S e e e h y h h y y       H H J j q z f x m                   ",
"                                b g h e e e y e K r S e S a s C a L S h e g F F y y P   H I U Y 7 u f m z                       ",
"                                T b P y y y T P g e R S a a s C D E h y b T u V V 7 Z I U Y Y H q m z                           ",
"                                W 9 , , & 9 T V y g E E Q D ! D ~ Q F f u F z x x J I I I ^ / 7 n                               ",
"                                9 A 6 = * ( ) V V P y P ! G _ F T x f T b Z ^ / / 7 n J / ` n ' 8                               ",
"                              8 - A 6 : * @ 8 V T T T ] ] ] B x m n ` Z ^ Z ` ` f N [ 8 N ) Q E C                               ",
"                              8 - , : : & 8 ) F b b F T f x P P n ^ ^ ^ ` ` u u u 8 ) N ) E Q Q Q                               ",
"                              8 8 o r r X { [ F F F f f u g e I ^ ` ` x x u u u q ) 8 [ D D ~ ! }                               ",
"                              8 | O > : * , 8 z z j u x ^ I ` ` f x x u u n u u { ) ! ) _  ._ ..                                ",
"                              { | 4 ; X.6 ; 4 q j J x j ` ` u x x u u u n u T   { { ) _ ] ]                                     ",
"                              o.x O., 6 A L J J J ` q u u x x u u u u x f x o.                                                  ",
"                              o.x +.a L J J J ` m i i u u u u u u [ f f f o.o.                                                  ",
"                                o.' [ J J ` m i i i i m z n n n ) [ f f i o.o.                                                  ",
"                                    i i i i i i i i f x _ _ x V N B f f o.{                                                     ",
"                                      i i i i i i [ _ _ @. ._ f o.. B i o.{ x                                                   ",
"                                        i i i i N ' ' ~  .} F F b b b b F b F b                                                 ",
"                                          i i F F N } } } N T b P P P b F F b z                                                 ",
"                                          V F F y y T T T T F F b P b b b F b T                                                 ",
"                                          x b b b F b F V V F F F P  .b  .F b T                                                 ",
"                                          F b F F  .~ F V V F b ~ D D ~ F F P b                                                 ",
"                                          b F F b  ._ T T T F T F D E a ~ F P b                                                 ",
"                                            T F F } ] F T F P  .b D a D D b y                                                   ",
"                                            T T  .F ] F T b b b ~ D ~ ~ ~ b                                                     ",
"                                            T  . .F F F T F P ~ D ~ ~ y ~ F                                                     ",
"                                              T _ F F T T T ~ g y b y g P F                                                     ",
"                                              T T F F T T F b b | X | y F b                                                     ",
"                                              T T T T T T T . | o o o | . #.                                                    ",
"                                                T T T T T T #.. | | | C ~ #.                                                    ",
"                                                T T T T T T b { #.#.#.{ T                                                       ",
"                                                  T T T F T #.F F F T F { |                                                     ",
"                                                      b T F { | X o o X | o.                                                    ",
"                                                        F F . { { { { { $.{                                                     ",
"                                                        T F { . { { #.. | {                                                     ",
"                                                        T T o.) ' . . ) . #.                                                    ",
"                                                        T T T { ! | a . )                                                       ",
"                                                      F F T T } Q Q | ' }                                                       ",
"                                                      F F T T N ! a a ! [                                                       ",
"                                                      F F T N N [ @.[ N N                                                       ",
"                                                        F T N ' Q Q Q s [                                                       ",
"                                                            [ s D C D ! [                                                       ",
"                                                            ' ! s D s ! )                                                       ",
"                                                            m [ ! ! ! [ m                                                       ",
"                                                              x x B B x x                                                       "
};
