/* XPM */
static char *enemy_10[] = {
/* columns rows colors chars-per-pixel */
"64 64 114 2 ",
"   c cyan",
".  c #9F876F",
"X  c #B79F87",
"o  c #6F7357",
"O  c #2F6323",
"+  c #27531B",
"@  c #37732B",
"#  c #3F832F",
"$  c #439337",
"%  c #9B7F6B",
"&  c #AF977F",
"*  c #CF8353",
"=  c #BF7B4B",
"-  c #F7AB7B",
";  c #FFBB93",
":  c #EFA373",
">  c #875733",
",  c #DF9363",
"<  c #FFC7A7",
"1  c #B37347",
"2  c #9B0000",
"3  c #D78B5B",
"4  c #FF7B7B",
"5  c #E79B6B",
"6  c #A36B3F",
"7  c #C39B2F",
"8  c #FF9B9B",
"9  c #774F2B",
"0  c #AF7B1F",
"q  c #8F5F37",
"w  c gray39",
"e  c #9B3333",
"r  c #9B633B",
"t  c #D75F0B",
"y  c #7F1B1B",
"u  c #9B5B13",
"i  c gray23",
"p  c #777777",
"a  c #A78F77",
"s  c #9F8363",
"d  c #6F5743",
"f  c #5B472B",
"g  c #AF4300",
"h  c #BF5B5B",
"j  c #732B00",
"k  c #BFA78F",
"l  c #836B4B",
"z  c #533F2F",
"x  c #5F4B37",
"c  c #B74700",
"v  c #775F4B",
"b  c #43331B",
"n  c #1F170B",
"m  c #937B63",
"M  c #FF8F3B",
"N  c #FFA35B",
"B  c #8F7753",
"V  c #67533F",
"C  c #831F1F",
"Z  c #4B371B",
"A  c #836B57",
"S  c #FF7F1B",
"D  c #8B2323",
"F  c #8F2B2B",
"G  c #A73F00",
"H  c #CB5707",
"J  c #332B13",
"K  c #6B4727",
"L  c #5F4323",
"P  c #6B0F0F",
"I  c #DF670F",
"U  c #CB7F4F",
"Y  c #5B0707",
"T  c #5F0707",
"R  c #7F532F",
"E  c #EB6F0F",
"W  c gray34",
"Q  c #771717",
"!  c #D7BB43",
"~  c #EBDB57",
"^  c #972F2F",
"/  c #A73F3F",
"(  c #AF4747",
")  c #FFFF73",
"_  c #6F6F6F",
"`  c #675333",
"'  c #5B6347",
"]  c #7B7F63",
"[  c #474F33",
"{  c #5B5B5B",
"}  c #232323",
"|  c #272727",
" . c #3F472B",
".. c gray31",
"X. c gray28",
"o. c #373F27",
"O. c #2F2F2F",
"+. c #434343",
"@. c #A33B3B",
"#. c #B34F4F",
"$. c #4F3B23",
"%. c #2B230F",
"&. c #53573B",
"*. c #3F2F17",
"=. c #731313",
"-. c #373737",
";. c #670B0B",
":. c #7B634F",
">. c #676B4F",
",. c #C34F00",
"<. c #BB5757",
"1. c #4F0000",
"2. c #430000",
"3. c white",
/* pixels */
"                                                                                                                                ",
"                                                                                                                                ",
"                                                                                                                                ",
"                                                                                                                                ",
"                                                                                                                                ",
"                                                                                                                                ",
"                                                                                                                                ",
"                                                                                                                                ",
"                                                                                                                                ",
"                                                  . X X X . o O +                                                               ",
"                                                @ # $ $ # @ O O +                                                               ",
"                                                % & & X & * = + +                                                               ",
"                                              = * - ; - ; : = O >                                                               ",
"                                              # , - < , ; $ = # 1                                                               ",
"                                                2 + 3 + 2 4 5 1 6                                                               ",
"                                              = 7 = : * , 8 5 9 +                                                               ",
"                                              6 , 7 0 7 : = = q                                                                 ",
"                                                0 w e w 7 = r q                                                                 ",
"                                                t e y e 0 u i p a a s s                                                         ",
"                                          d d f g h h h 0 j d & X k X k X l z                                                   ",
"                                        s x f i i g c g j l % k k k k k X . v z                                                 ",
"                                      d d x b b b n b y e a m % M N X X X a B V                                                 ",
"                                    d l d C x Z Z b y e h a m A S S N X X a B V z                                               ",
"                                    d l C d D F F C e h m s A G G G c H H d z b z                                               ",
"                                      J b z d F F C e h B s z K 1 * 3 = = 1 r 9 L                                               ",
"                                      n b z z P P P D F x d 9 > I S M = U = r 9 L                                               ",
"                                  H   n b J b J Y Y Y Y T J 9 r I S M 3 * * R L                                                 ",
"                                E 7 E W l f J J Q C C C d x d > 1 M M * * R K L                                                 ",
"                              E ! ~ ! E s l b b ^ / ( ( l z b g I I X X . 6 L K                                                 ",
"                            H 7 ~ ) ~ 7 H _ b b y y C C ` ` = , U ' ] ] ] o [                                                   ",
"                              E ! ~ ! E { { } } } | } R R I S S * 1 [ ' '  .}                                                   ",
"                                I 7 I } ....X.X.b Z K E E E E 1 q 9 [ | | o.}                                                   ",
"                                9 H O.} O.+.@.^ E h 1 h #.F F L $.b %.} O.} | &.                                                ",
"                                L *.O.| O.} F ( @.^ ^ Z =.=.Y Y %.%.%.%.%.%.%.o.                                                ",
"                                q P i } } O.F D D T T Y Z b n n O.%.%.%.%.%.} %.                                                ",
"                                  P P -.} P P P P O.O.o.[ o.o.O.} } n n n n n                                                   ",
"                                  D C P +.J J J J %.b b o.b J } } } %.n n n J J                                                 ",
"                                          d J J J %.n J J J n | J %.n n n n J z b                                               ",
"                                          n J J J n %.n n n %.%.n n n n %.%.b x x                                               ",
"                                          n b J J J n %.n n J b %.%.J J J b %.d b                                               ",
"                                          J b b b b J n %.%.b b J J Q b b C z z b                                               ",
"                                          b z b b b J J n n %.J J J C F D C z d b                                               ",
"                                          n b z J b b n J n n %.b J C F F D x z J                                               ",
"                                          n z z z b J Y Y n n J b $.Q C C C Q z J                                               ",
"                                          z Q b J J b n n n n J $.Q / e Z e Q z                                                 ",
"                                          D Q b b b n Y n n n b D e e d D / ^ b                                                 ",
"                                          D D Q b ;.Y J n n n J D F d :.d e D z                                                 ",
"                                          D ^ Q b b ;.J n n n J z >.E E ] &.b f                                                 ",
"                                          z D b Q b J n n n n J ' o ] a o o &.f                                                 ",
"                                          o.>.>.[ o.J J J %.%.J [ o ] ] o ' [                                                   ",
"                                          ' [ [ o.o.b J J %.%.n o.[ >.>.e D |                                                   ",
"                                            o. .o.b J J J J J J o.o.o.[  .&.[                                                   ",
"                                                J J J J J J J J  .G ,.H ,.G o o.                                                ",
"                                                  J J J J J %.J o.[ ' >.>.>.>.o.                                                ",
"                                                    J o.J J %.J  .&.>.<.>.>.' o.                                                ",
"                                                    J J T J %.J J [ &.>.>.<.&.[                                                 ",
"                                                    P P J T J %.o. .e ' <.Z o.                                                  ",
"                                                  C 1.2.2.J J %.o.  o.^ ^ ^ %.                                                  ",
"                                                C Q Q P n T %.%.    o.y P P |                                                   ",
"                                              y D P P *.J J J       } D ^ Z *.                                                  ",
"                                              O.-.-.-.O.} }         e / / F C Z                                                 ",
"                                                                D / / / F D C |                                                 ",
"                                                                D D D D Z *.Z |                                                 ",
"                                                                | O.-.-.-.-.|                                                   "
};
