/* XPM */
static char *enemy_07[] = {
/* columns rows colors chars-per-pixel */
"64 64 102 2 ",
"   c cyan",
".  c #5B6347",
"X  c #6F7357",
"o  c #7B7F63",
"O  c #9F876F",
"+  c #27531B",
"@  c #B37347",
"#  c #439337",
"$  c #3F832F",
"%  c #37732B",
"&  c #CF8353",
"*  c #F7AB7B",
"=  c #FFC7A7",
"-  c #8F5F37",
";  c #EFA373",
":  c #FFBB93",
">  c #E79B6B",
",  c #DF9363",
"<  c #FFDBC7",
"1  c #FFB383",
"2  c #FF7B7B",
"3  c #E30000",
"4  c #BF7B4B",
"5  c #FF9B9B",
"6  c #FFBF9B",
"7  c #5B5B5B",
"8  c #774F2B",
"9  c #A36B3F",
"0  c #C39B2F",
"q  c #836B4B",
"w  c gray31",
"e  c #5F0707",
"r  c #9B7F6B",
"t  c #937B63",
"y  c #AF977F",
"u  c #B79F87",
"i  c #BFA78F",
"p  c #A78F77",
"a  c #373737",
"s  c #272727",
"d  c #D75F0B",
"f  c #B34F4F",
"g  c #9B3333",
"h  c #AF7B1F",
"j  c #232323",
"k  c gray39",
"l  c #8F7753",
"z  c #6F5743",
"x  c #434343",
"c  c #2F2F2F",
"v  c #874307",
"b  c #F37317",
"n  c #533F2F",
"m  c #5F4B37",
"M  c #9F8363",
"N  c #1F170B",
"B  c #43331B",
"V  c #D37373",
"C  c #AF4747",
"Z  c #332B13",
"A  c #DB7B7B",
"S  c #831F1F",
"D  c #2B230F",
"F  c #972F2F",
"G  c #4B371B",
"H  c #A73F3F",
"J  c #7F532F",
"K  c #BB5757",
"L  c #C76363",
"P  c #8F2B2B",
"I  c #8B2323",
"U  c #CB6B6B",
"Y  c #AB6F43",
"T  c #A33B3B",
"R  c #4F3B23",
"E  c #6B4727",
"W  c #D78B5B",
"Q  c #6B0F0F",
"!  c gray50",
"~  c #8B8B8B",
"^  c #777777",
"/  c gray42",
"(  c #6F6F6F",
")  c gray34",
"_  c #676B4F",
"`  c gray23",
"'  c #4B4B4B",
"]  c #53573B",
"[  c #3F472B",
"{  c #FFB37B",
"}  c #373F27",
"|  c #9B633B",
" . c #DF8787",
".. c #771717",
"X. c #775F3F",
"o. c gray28",
"O. c #7F1B1B",
"+. c #3F2F17",
"@. c #530707",
"#. c #731313",
"$. c #474F33",
"%. c white",
/* pixels */
"                                                                                                                                ",
"                                                                                                                                ",
"                                                                                                                                ",
"                                                                                                                                ",
"                                                                                                                                ",
"                                                                                                                                ",
"                                                                                                                                ",
"                                                                                                                                ",
"                                                    . X o O O O o X .                                                           ",
"                                                    + @ # $ % $ # @ +                                                           ",
"                                                    + & * = = = * & +                                                           ",
"                                                    - ; : * : * : ; -                                                           ",
"                                                  > @ + = , < , = + @ >                                                         ",
"                                                  1 , 2 3 + * + 3 2 , 1                                                         ",
"                                                  & 4 1 5 ; 6 ; 5 1 4 &                                                         ",
"                                                7 7 8 9 ; 0 4 0 ; 9 8                                                           ",
"                                            q q 7 w 8 4 0 7 e 7 0 4 8 . r                                                       ",
"                                    t y u i i i p a s 9 d f g f h 9 j q k l z                                                   ",
"                                  z y u i i i i i z x c v d b h v c n q u i i i p l                                             ",
"                                m M O O u i i i p q n c c c c c s s N B r i i i u p z                                           ",
"                                z M O O O p p r i V M C B Z N N Z B n q y M i u p M q                                           ",
"                                z q l M M q z y V y A y g S N D S F M M p q q M M M q n                                         ",
"                                m 9 n m q B n M M M V V f g G S H f M M M M m M l l l z                 w w                     ",
"                              9 J , 4 9 8 m j z l M K L f C P I H f U l l l Z z m n B             w w w w a                     ",
"                              J Y , ; ; ; & j N z z q z T g I G P K l q m B Z D m @ R     k k w w x c s j c                     ",
"                              E 4 W W > 4 - j Z B B Q Q Q Q I P Q B c c c s N m & & W ! ~ ^ / x j j s x                         ",
"                              E 9 , & 4 9 J Z B B B B S P I S c c s c n a c s ( ) ! ~ ~ ! / 7 s x                               ",
"                              7 u i i O _ B Z B B n B B c c c m N B n ( ( a a ) ` ~ ^ / w ` a w                                 ",
"                            o o _ i i p o Z Z B B Z j j c f f F ( ( ( ( 7 x a a j ' ` s s s s                                   ",
"                            ] [ 9 { ; ; & 8 Z Z j j n F T ( ( ( 7 w x s s a a a c c j x T F g                                   ",
"                            } [ | & ;  .U | Z Z s ` ( ( ( 7 w a s s s a a a a a x c c F S ..S                                   ",
"                            [ j I X.& f ! ( ( ! ) ) k 7 x s s s a a a o.o.x a s     F O.Q Q                                     ",
"                              j ..! ( ( ( k 7 w c a a s s a a a a o.o.Z Z B                                                     ",
"                                ( ( ) o.a s s s c a a a a a a c o.s s s m Z                                                     ",
"                                o.o.a s s s s s s c x o.o.o.c n m s s B n N                                                     ",
"                                o.c s s s s s s c +.D D s s z z m B B m l B                                                     ",
"                                  c s s s s m O.@.S S O.s s B Z q m m B q q z                                                   ",
"                                    j s s M z #.@.O.O.@.s s m q M m n m m m B                                                   ",
"                                      N n q q z #.@.@.+.B B B M M q z g m n Z                                                   ",
"                                      N n m q l l M l n n B B Z q q z m n m Z                                                   ",
"                                      N B n m q K H B z n N n m B B ..m I m Z                                                   ",
"                                      n B B n m m ..F z m B Z B n G Z ..m B Z                                                   ",
"                                        Z n n m m ..F m n B m n B D G Z ..Z                                                     ",
"                                        B n e B Q Q ..m m B n z O.D O.G Z N                                                     ",
"                                        B ..e B Q n n m g B Z n Z D Q ..G N                                                     ",
"                                        B ....B B B n m m B n D D D Z Q Q N                                                     ",
"                                        Z n Q B B n n n n B B m O.O.Z Z B N                                                     ",
"                                        Z [ ] ] ] ] [ [ .   Z [ ] B B B B                                                       ",
"                                        Z $.] $.$.$.$.[ ] } } [ [ . . [ c                                                       ",
"                                          Z $.F [ [ [ [ Z N } $.$.$.$.$.}                                                       ",
"                                          N } [ [ [ [ Z Z Z Z [ [ $.$.[ }                                                       ",
"                                          Z ..} } Z N [ j } N Z [ [ [ ..                                                        ",
"                                          } . $.[ } [ }   c [ Z Z Z N                                                           ",
"                                          } g $.$.Q [ }   } Z [ [ }                                                             ",
"                                            +.O.@.+.Z     } Z } O.j                                                             ",
"                                            D Q Q +.N     [ Z Z } j                                                             ",
"                                            D +.+.@.N     O.N Z Z j                                                             ",
"                                            +.S S S @.    #.Z Z Z j                                                             ",
"                                            S F g I +.    Q Q +.+.s                                                             ",
"                                            S g T F S     Z O.Q +.}                                                             ",
"                                            S g g I S       c } [                                                               ",
"                                            S S S O.$.                                                                          ",
"                                            $.$.[ c c                                                                           ",
"                                                                                                                                "
};
