/* XPM */
static char *enemy_01[] = {
/* columns rows colors chars-per-pixel */
"64 64 113 2 ",
"   c cyan",
".  c #5B6347",
"X  c #6F7357",
"o  c #7B7F63",
"O  c #9F876F",
"+  c #27531B",
"@  c #B37347",
"#  c #439337",
"$  c #3F832F",
"%  c #37732B",
"&  c #CF8353",
"*  c #F7AB7B",
"=  c #FFC7A7",
"-  c #8F5F37",
";  c #EFA373",
":  c #FFBB93",
">  c #E79B6B",
",  c #DF9363",
"<  c #FFDBC7",
"1  c #FFB383",
"2  c #FF7B7B",
"3  c #E30000",
"4  c #BF7B4B",
"5  c #FF9B9B",
"6  c #FFBF9B",
"7  c #774F2B",
"8  c #A36B3F",
"9  c #C39B2F",
"0  c gray31",
"q  c #5B5B5B",
"w  c #5F0707",
"e  c #373737",
"r  c #272727",
"t  c #D75F0B",
"y  c #B34F4F",
"u  c #9B3333",
"i  c #AF7B1F",
"p  c #232323",
"a  c #434343",
"s  c #836B4B",
"d  c #A78F77",
"f  c #9F8363",
"g  c #8F7753",
"h  c #67533F",
"j  c #2F2F2F",
"k  c #874307",
"l  c #F37317",
"z  c #BFA78F",
"x  c #AF977F",
"c  c gray23",
"v  c gray28",
"b  c #8B735B",
"n  c #6F5743",
"m  c #43331B",
"M  c #7B634F",
"N  c #9B7F6B",
"B  c #B79F87",
"V  c #DF8787",
"C  c #BB5757",
"Z  c #5F4B37",
"A  c #332B13",
"S  c #533F2F",
"D  c #875733",
"F  c gray50",
"G  c #6F6F6F",
"H  c #D37373",
"J  c #BF5B5B",
"K  c #972F2F",
"L  c #9F9F9F",
"P  c #939393",
"I  c #8B8B8B",
"U  c gray39",
"Y  c #836B57",
"T  c #775F4B",
"R  c #A33B3B",
"E  c gray42",
"W  c #6B4727",
"Q  c #AB6F43",
"!  c #7F532F",
"~  c #1F170B",
"^  c #574333",
"/  c #777777",
"(  c gray34",
")  c #775F3F",
"_  c #D78B5B",
"`  c #831F1F",
"'  c #979797",
"]  c #C76363",
"[  c #AF4747",
"{  c #8F2B2B",
"}  c #2B230F",
"|  c #9B633B",
" . c #3F2F17",
".. c #373F27",
"X. c #670B0B",
"o. c #771717",
"O. c #731313",
"+. c #4B371B",
"@. c #676B4F",
"#. c #474F33",
"$. c #53573B",
"%. c #5F4323",
"&. c #1B1B1B",
"*. c #3F472B",
"=. c #A73F3F",
"-. c #533F1F",
";. c #8B2323",
":. c #6B0F0F",
">. c #530707",
",. c #5B0707",
"<. c #7F1B1B",
"1. c #170F07",
"2. c white",
/* pixels */
"                                                                                                                                ",
"                                                                                                                                ",
"                                                                                                                                ",
"                                                                                                                                ",
"                                                                                                                                ",
"                                                                                                                                ",
"                                                                                                                                ",
"                                                                                                                                ",
"                                                  . X o O O O o X .                                                             ",
"                                                  + @ # $ % $ # @ +                                                             ",
"                                                  + & * = = = * & +                                                             ",
"                                                  - ; : * : * : ; -                                                             ",
"                                                > @ + = , < , = + @ >                                                           ",
"                                                1 , 2 3 + * + 3 2 , 1                                                           ",
"                                                & 4 1 5 ; 6 ; 5 1 4 &                                                           ",
"                                                  7 8 ; 9 4 9 ; 8 7                                                             ",
"                                                0 7 4 9 q w q 9 4 7 0                                                           ",
"                                              q e r 8 t y u y i 8 p a s d f s                   q 0 0                           ",
"                                    g d d d d d h a j k t l i k j a j f z z x x s           q 0 c v p                           ",
"                                  f f z z z z d b n m j j p p r j m M f N z x d d n     q 0 0 a p j                             ",
"                                g d d d z B b z V x B C Z A A S D C g f f g O N b b F G 0 c p j                                 ",
"                                s d d d N n N V B x H J C K S C C H m p G G b F L P I F U p j                                   ",
"                                S Z n Y Y Z T N N H O C C K R R m p Z m a j I P I F G E v r                                     ",
"                                W 8 Q - ! 7 ~ s g y D D D K j p ^ y G / E j j F F G ( a v J                                     ",
"                                ) , , ; _ ) ~ A S Z S S j p ` S S ' ' E v a j ( 0 j a ] R R ]                                   ",
"                              @ 8 & _ > 8 m ~ ~ A m A p q [ S ' ' E E v 0 c j j p p J R C R {                                   ",
"                              Z 4 & _ 8 ! } A S A p a s s P ' F ( e e v v c r r p u K R K ` w                                   ",
"                              Z | > , )  .^ j p p S Z I ' E 0 e e a c 0 c r ....m X.o.` O.O.+.                                  ",
"                              X O o d o ^   ~ j 0 F ' / 0 e e v a a 0 c r m @...} w X.X.m +.W                                   ",
"                            . X #._ ; _ @.  0 G P ( 0 e e a a a a 0 r r m ~   $.} m m X.X.%.                                    ",
"                            $.r | 4 , ] / / U e a 0 e v a a a v a r p &.g s m     %.X.%.                                        ",
"                            *.} Z =./ / U 0 c j v v v v 0 a m +.+.&.p ..Z S m                                                   ",
"                              *.! / U 0 c j j j 0 q G G E q +.A -.r p ..m S m                                                   ",
"                                p v c j j j j j r r j j j p -.-.-.A r S S Z g                                                   ",
"                                p j j j j j j r a { R ` j j #.r j S m S m S                                                     ",
"                                  p j j j j j +.+.;.;.;.` j ..#.a d s Z S n n S                                                 ",
"                                    p j j j a :.O.O.O.O.a ..j ~ n s S Z S m S j                                                 ",
"                                      p j c Z Z K :.:.K ~ ~ ~ Z Z S S m m m m m A                                               ",
"                                        A m Z s Z n s s S ~ A S m m m m m A m m A                                               ",
"                                        A m S S n [ y D ~ ~ ~ S S m m m A A A o.A                                               ",
"                                        A m m S u D W A m ~ ~ m m m X.A >.A w m A                                               ",
"                                        A A m m u S m A S A A A m A A >.>.>.,.,.A                                               ",
"                                          A ~ { S K <.S m A A S S m :.w ,.w w 1.                                                ",
"                                            m { ;.<.A m A m A Z m m :.:.w X.>.>.                                                ",
"                                          A X.<.A m A } A A A S S ;.;.o.X.X.X.m                                                 ",
"                                          X.O.<.m A } } A m A S m o.:.m X.<.X.A                                                 ",
"                                            w m m m } A S A m b :.m m X.X.X.A                                                   ",
"                                              ~ S S m m ~ A ~   m $.@.o @.$.j                                                   ",
"                                              A #.*.*.*.A A ~   m #.#.#.#.*.j                                                   ",
"                                              $.#.*.*.m A A ~   p m #.*.*.` p                                                   ",
"                                                ` *. .A A ~ ~   j #.A A A A *.                                                  ",
"                                                   .A ~ ~ A ~   A *.#.#.#.$.r                                                   ",
"                                                    +. .A  .A   A *...A A A r                                                   ",
"                                                      A A  . .  A #.....A :.r                                                   ",
"                                                       .:.A  .~   j <. . ...O.                                                  ",
"                                                      }  .A A ~   .. .<.:. .                                                    ",
"                                                     .o.:.A A ~     ..{ { O.                                                    ",
"                                                     .o.:.A A *.  *.m m m m {                                                   ",
"                                                    ~ :.A A ~     m -.=.=.{ -.                                                  ",
"                                                    A  .A A ~     +.{ =.=.{ -.                                                  ",
"                                                      ~ ~ ~       -.W { { { -.                                                  ",
"                                                                  j -.+. .-.j                                                   ",
"                                                                    p j j j                                                     ",
"                                                                                                                                "
};
