/* XPM */
static char *enemy_15[] = {
/* columns rows colors chars-per-pixel */
"64 64 99 2 ",
"   c cyan",
".  c #7B7F63",
"X  c #9F876F",
"o  c #6F7357",
"O  c #3F832F",
"+  c #37732B",
"@  c #439337",
"#  c #2F6323",
"$  c #27531B",
"%  c #BF7B4B",
"&  c #FFBB93",
"*  c #FFC7A7",
"=  c #F7AB7B",
"-  c #CF8353",
";  c #EFA373",
":  c #DF9363",
">  c #E30000",
",  c #FF7B7B",
"<  c #E79B6B",
"1  c #B37347",
"2  c #FFBF9B",
"3  c #FFB383",
"4  c #774F2B",
"5  c #A36B3F",
"6  c #C39B2F",
"7  c #D78B5B",
"8  c #8F5F37",
"9  c #AF7B1F",
"0  c gray28",
"q  c #5F0707",
"w  c #9B633B",
"e  c #434343",
"r  c #D75F0B",
"t  c #9B3333",
"y  c #7F1B1B",
"u  c #874307",
"i  c #232323",
"p  c gray31",
"a  c #777777",
"s  c #A78F77",
"d  c #9F8363",
"f  c #6F5743",
"g  c #2F2F2F",
"h  c #F37317",
"j  c #AF977F",
"k  c #B79F87",
"l  c #BFA78F",
"z  c #836B4B",
"x  c #5F4B37",
"c  c #43331B",
"v  c gray23",
"b  c #373737",
"n  c #272727",
"m  c #836B57",
"M  c #332B13",
"N  c #1F170B",
"B  c #8B2323",
"V  c #775F4B",
"C  c #831F1F",
"Z  c #4B371B",
"A  c #2B230F",
"S  c #8F2B2B",
"D  c #AF4747",
"F  c #67533F",
"G  c #9B7F6B",
"H  c #533F2F",
"J  c #BF5B5B",
"K  c #8B735B",
"L  c #937B63",
"P  c #5F4323",
"I  c #8F7753",
"U  c #6B4727",
"Y  c #6B0F0F",
"T  c #CB7F4F",
"R  c #7F532F",
"E  c #670B0B",
"W  c gray34",
"Q  c #A33B3B",
"!  c #972F2F",
"~  c #533F1F",
"^  c gray42",
"/  c gray50",
"(  c #5B6347",
")  c #6F6F6F",
"_  c #771717",
"`  c #474F33",
"'  c #5B5B5B",
"]  c #CB6B6B",
"[  c #3F472B",
"{  c #373F27",
"}  c #B34F4F",
"|  c #53573B",
" . c #3F2F17",
".. c #731313",
"X. c #5B0707",
"o. c #A73F3F",
"O. c #676B4F",
"+. c #170F07",
"@. c white",
/* pixels */
"                                                                                                                                ",
"                                                                                                                                ",
"                                                                                                                                ",
"                                                                                                                                ",
"                                                                                                                                ",
"                                                                                                                                ",
"                                                                                                                                ",
"                                                                                                                                ",
"                                                                                                                                ",
"                                                . X X X . o o                                                                   ",
"                                                O O + O @ + # # $                                                               ",
"                                                % & * * = - % $ $                                                               ",
"                                              % - = & = & ; % # $                                                               ",
"                                              $ : - * : & + % O -                                                               ",
"                                                > $ % $ > , < 1 1                                                               ",
"                                              % < - 2 ; 2 3 < 4 $                                                               ",
"                                              5 - 6 % 6 ; 7 1 8                                                                 ",
"                                                9 0 q 0 6 % w 8                                                                 ",
"                                              e r t y t 9 u i p a s s d d                                                       ",
"                                        f f e g u r h 9 u i f j j k l k l k z                                                   ",
"                                      z d x c v b g n n e z m j j j l l l s d x                                                 ",
"                                    f d f x c c M N c B t s s V j s j k k s d f                                                 ",
"                                  f z x f C x Z A c S t D s k F G X s j k s d z H                                               ",
"                                  f z H C f B S C C t D J d X K K m m m L L f H c                                               ",
"                                    P N x f f S S C t D I d I H U 1 - 7 % % 1 w P                                               ",
"                                    N M H H H Y B Y B S f f H N % : 7 7 % T w U P                                               ",
"                                  R N c M c M Y B Y Y E q M H x 1 T : 7 7 % R c                                                 ",
"                                  p g g W z M B B Q ! S f z f f w 1 - : - w ~ P                                                 ",
"                                L ^ / / ^ d c Q D J J J z H c . . X l k j X P                                                   ",
"                                ( 0 n i 0 ) c E _ E _ _ I d % : T w ( . . o `                                                   ",
"                              ( w i n i g ' i i n i g g 1 T - ] - 1 w n ` [ i                                                   ",
"                              4 - e v i i p 0 n c Z U 1 % J % 1 R 4 U n n { i                                                   ",
"                              4 7 i g i g e Q B ! 1 J T } Q S P c A A i g i n |                                                 ",
"                              P w  .g n g i D D D Q ! Z ....X.A A A A A A A { {                                                 ",
"                              8 C Y v i i g S B B B q X.Z c N g A A A A A i A                                                   ",
"                                A Y Y b i Y Y Y Y g g ` ` ` { g i N N N N N                                                     ",
"                                B C Y e M M M M M A { { { c M i i M N N N M M                                                   ",
"                                      f M M M M M A N M M M N n M M N N N M H c                                                 ",
"                                        N M M M M N A N N N A M M N N N M M c x x                                               ",
"                                          N c M M M N A N N i c M N M M M c _ f c                                               ",
"                                          M c c H c M N A A c c M M _ c c C H f c                                               ",
"                                          c H c x H M M N N N M M M Z S B C H z c                                               ",
"                                          N c H M H c N M N N N c M Z S S B x H M                                               ",
"                                          N H H H c M X.X.N N M c c _ C C C _ H                                                 ",
"                                            H _ c M M c N N N M c _ C C Z B _ H                                                 ",
"                                            B _ c c c N X.N N c o.C C H B o.B c                                                 ",
"                                            B B _ c E X.M N N M B S H x f t C H                                                 ",
"                                            B ! _ c c E M N N N H O.L s . | c x                                                 ",
"                                            H B c _ c M N N N +.( o o . O.( M                                                   ",
"                                            { O.O.` { M M M A N ` o o . O.( {                                                   ",
"                                            ( ` ` { { c M M A N { ` O.O.t B n                                                   ",
"                                              { [ { c M M M M M { { { ` [ | ` {                                                 ",
"                                                  M M M M M M M [ { M M { | o {                                                 ",
"                                                    M M M M A M { ` ( ( ( ( O.{                                                 ",
"                                                    M { M M A M [ | ` Q ( O.( {                                                 ",
"                                                      M q M A M   ` | | O.D | `                                                 ",
"                                                    S Y M q M A { [ t ( D Z {                                                   ",
"                                                  C Y C Y M M A {   { D D ! A                                                   ",
"                                                C _ _ Y N q A A {   { y Y Y n                                                   ",
"                                              y B Y Y  .M M M i     i B ! Z  .                                                  ",
"                                              g b b b g i i         t ! t S C Z                                                 ",
"                                                                B t t t S B C n                                                 ",
"                                                                B B B B Z  .Z n                                                 ",
"                                                                n g b b b b n                                                   "
};
