/* XPM */
static char *enemy_08[] = {
/* columns rows colors chars-per-pixel */
"64 64 55 1 ",
"  c #63747D",
". c #0000A4",
"X c #0000C8",
"o c #000098",
"O c #0000FC",
"+ c black",
"@ c #00007C",
"# c #000070",
"$ c #0000E0",
"% c #B47044",
"& c #FCF400",
"* c #CCC400",
"= c #885830",
"- c #80502C",
"; c #C87C4C",
": c #0000BC",
"> c #F0945C",
", c #9C6038",
"< c #B4AC00",
"1 c #6C4824",
"2 c #FC9C60",
"3 c #FCB890",
"4 c #FCC4A4",
"5 c #FCB080",
"6 c #D08050",
"7 c #FCBC9C",
"8 c #FCA470",
"9 c #FCCCB0",
"0 c #FCD8C4",
"q c #E88C58",
"w c #2C2C2C",
"e c #DC8854",
"r c #202020",
"t c gray22",
"y c #A0643C",
"u c #905C34",
"i c #00004C",
"p c #C0C0C0",
"a c #646464",
"s c gray66",
"d c #000040",
"f c #0000D4",
"g c #0000B0",
"h c #000088",
"j c #000064",
"k c #000034",
"l c #00001C",
"z c #484848",
"x c #000058",
"c c gray44",
"v c gray33",
"b c #00002C",
"n c #5C4020",
"m c #0000EC",
"M c white",
/* pixels */
"                                                                ",
"                                                                ",
"                                                                ",
"                                                                ",
"                                                                ",
"                                                                ",
"                                                                ",
"                                .XX                             ",
"                              o...O+                            ",
"                            .....O@++                           ",
"                           #$...$@++++                          ",
"                           ##$$$@+++++                          ",
"                           #####+++++                           ",
"                           %&###++++*=                          ",
"                           -&;:;>,:;<1                          ",
"                           %23456=736=                          ",
"                            235888886                           ",
"                            23>9003q6                           ",
"                            23>888>q-                           ",
"                         +++w888;8qew+                          ",
"                       oorrrt%%yyuu-w+i                         ",
"                     oo::rrrpa++-++saiiii                       ",
"                    o::::rrr+++#dd#++#####                      ",
"                   o:Ofg:r++hhhhj#####hh##i                     ",
"                   gOffgod++k##hjhhhhhjddh#i                    ",
"                  gOOfgodd++lkjjjjjjiiddh#h#                    ",
"                  ggfggdddl++lkikid@@@jh..##i                   ",
"                 gOOOO#ddzzzl+lkkkddddx.:..##                   ",
"                 OgfOOO#zaccvv+llkkkkd..:.hii                   ",
"                 gffcchazzvaccvvzlbbbb..:.@ii                   ",
"                 ggcco6ztttzvaaccvzlli.Xh.##i                   ",
"                  gcf66yy-dtzzzvaccvzffff#ii                    ",
"                   ..66ynndavt++zvaccvzc@f#i                    ",
"                    @66yyndaat++ttzvaccr###i                    ",
"                     ----ndvatkk6y-tzzariiii                    ",
"                       hh#dddddd66yy-iiiiii                     ",
"                        ghhh##jj66yy-diiii                      ",
"                        go@@@@@@----nddkk                       ",
"                        go#jjxiki@oooohjk                       ",
"                        @#jjiiik@o:f$$f:j                       ",
"                        oohh###ih:f$$m$f:                       ",
"                        oohh@@@ih:f$$Off:                       ",
"                        oohh@@@ih:f$$Off:                       ",
"                        o:oh@@@ih:f$$Off:                       ",
"                         :oh@@@xh:f$mOmm.                       ",
"                         :oh@@@xjggOOOOO:                       ",
"                         :oh@@@xkX$f:::f$.                      ",
"                         :X:@@@xkXho:::.$.                      ",
"                        o:@@@@xxghhh...h#$                      ",
"                        oox@xxddx+j@h@@@j                       ",
"                         dxxxxdd++ijjjjii                       ",
"                         dddddd++++iiiii+                       ",
"                          bdk++++d++++++l                       ",
"                          bdkl+++kddkl++l                       ",
"                          bddkbl++kkbl++                        ",
"                          +bbl+++dl+++++                        ",
"                          +dlbl++ldkbl++                        ",
"                           ddkk++dkkbbl++                       ",
"                           +llb++dkkbbl++                       ",
"                          +ddkkb+dkkbl+++                       ",
"                          dddkkb++++++++                        ",
"                          drrrr+++                              ",
"                                                                ",
"                                                                "
};
