/* XPM */
static char *enemy_06[] = {
/* columns rows colors chars-per-pixel */
"64 64 56 1 ",
"  c #63747D",
". c #0000A4",
"X c #0000C8",
"o c #000098",
"O c #0000FC",
"+ c black",
"@ c #00007C",
"# c #0000E0",
"$ c #000070",
"% c #B47044",
"& c #FCF400",
"* c #CCC400",
"= c #885830",
"- c #80502C",
"; c #C87C4C",
": c #0000BC",
"> c #F0945C",
", c #9C6038",
"< c #B4AC00",
"1 c #6C4824",
"2 c #FC9C60",
"3 c #FCB890",
"4 c #FCC4A4",
"5 c #FCB080",
"6 c #D08050",
"7 c #FCBC9C",
"8 c #FCA470",
"9 c #FCCCB0",
"0 c #FCD8C4",
"q c #E88C58",
"w c #2C2C2C",
"e c #DC8854",
"r c #202020",
"t c gray22",
"y c #A0643C",
"u c #905C34",
"i c #00004C",
"p c #C0C0C0",
"a c #646464",
"s c gray66",
"d c #000040",
"f c #0000D4",
"g c #0000B0",
"h c #000088",
"j c #00001C",
"k c #000064",
"l c #000034",
"z c #484848",
"x c #00002C",
"c c #000058",
"v c gray44",
"b c gray33",
"n c #5C4020",
"m c #0000EC",
"M c #0004FC",
"N c white",
/* pixels */
"                                                                ",
"                                                                ",
"                                                                ",
"                                                                ",
"                                                                ",
"                                                                ",
"                                                                ",
"                                .XX                             ",
"                              o...O+                            ",
"                            .....O@++                           ",
"                           o#...#@++++                          ",
"                           o$###@+++++                          ",
"                           o$$$$+++++                           ",
"                           %&$$$++++*=                          ",
"                           -&;:;>,:;<1                          ",
"                           %23456=736=                          ",
"                            235888886                           ",
"                            23>9003q6                           ",
"                           +23>888>q-+                          ",
"                         +++w888;8qew++                         ",
"                       oorwwt%%yyuu-w+ii                        ",
"                     oo::wwrpa++-++sai$$ii                      ",
"                    o::::rrr+++$dd$++$$$$$i                     ",
"                   o:Ofg:r++hhhhdhhhhhhh$$ii                    ",
"                   gOffgoj++i$$hdhhhhoo$oh$i                    ",
"                  gOOfgodd++jkkklkkk$$$oh$h$                    ",
"                  ggfggddd+++jiilid@@@kh..$$i                   ",
"                 gOOOO$ddzzz++jixlddddc.:..$$                   ",
"                 OgfOOO$zavvbbjxxxxlld..:.hii                   ",
"                  ffvvhazzbavvbbzjjxxx..:.@ii                   ",
"                  gvvo6ztttzbaavvbzjji.Xh.$$i                   ",
"                   vf66yy-dtzzzbavvbzffff$ii                    ",
"                   ..66ynndabt++zbavvbzv@f$i                    ",
"                    @66yyndaat++ttzbavvr$$$i                    ",
"                     ----ndbatll6y-tzzariiii                    ",
"                       hh$dddddd66yy-iiiiii                     ",
"                        ghhh$$kk66yy-diiii                      ",
"                       gg@@@@@@@----nddxx                       ",
"                       g@offffooccdkkccdj                       ",
"                       gXf#mmmfoccxldddjj                       ",
"                       gXf#mmmfooixdiccdj                       ",
"                        X#MMMMmfoixiiccdx                       ",
"                        X#MMMMmfoixckkkcx                       ",
"                        XOMMMMmXokdckkkcx                       ",
"                       @XMMMMMMXokdckkkcx                       ",
"                       XmXXXXXXmXodck@@cx                       ",
"                       XmXggggXmXodckcc@d                       ",
"                       mX@ooooc@:odcciidcx                      ",
"                        d@hhhh@xkkddddddxx                      ",
"                        li@@@@kljjxddddxx                       ",
"                        +iiiiiix+jjxxxxxx                       ",
"                        jjj++++++jjjjjjj+                       ",
"                        djj+++++++jjjjj+                        ",
"                        dlj+++++++++++++                        ",
"                         dl++++++llxj+++                        ",
"                         +++++++ jx+++++                        ",
"                         djj++++ ++++++                         ",
"                        +dx+++++ dlxjj++                        ",
"                        +dxxjj++ +jj++++                        ",
"                        +ddlxx+++dlxjjjj                        ",
"                         ++++++ dddllxxj+                       ",
"                                +++++++++                       ",
"                                                                ",
"                                                                "
};
